<mxfile host="65bd71144e">
    <diagram id="HIP3nbAZw_EuaXWnEj3U" name="Page-1">
        <mxGraphModel dx="1045" dy="721" grid="1" gridSize="10" guides="1" tooltips="1" connect="1" arrows="1" fold="1" page="1" pageScale="1" pageWidth="850" pageHeight="1100" math="0" shadow="0">
            <root>
                <mxCell id="0"/>
                <mxCell id="1" parent="0"/>
                <mxCell id="7" value="http://ics2o.mths.ca" style="swimlane;whiteSpace=wrap;html=1;" parent="1" vertex="1">
                    <mxGeometry x="40" y="40" width="760" height="430" as="geometry"/>
                </mxCell>
                <mxCell id="8" value="&lt;font style=&quot;font-size: 19px;&quot;&gt;Bakery Menu&lt;/font&gt;" style="rounded=0;whiteSpace=wrap;html=1;align=left;" vertex="1" parent="7">
                    <mxGeometry y="20" width="760" height="50" as="geometry"/>
                </mxCell>
                <mxCell id="9" value="Type of bread" style="rounded=0;whiteSpace=wrap;html=1;fontSize=19;" vertex="1" parent="7">
                    <mxGeometry x="30" y="150" width="130" height="40" as="geometry"/>
                </mxCell>
                <mxCell id="10" value="Please select the type and size of bread you want" style="text;html=1;strokeColor=none;fillColor=none;align=center;verticalAlign=middle;whiteSpace=wrap;rounded=0;fontSize=19;" vertex="1" parent="7">
                    <mxGeometry x="20" y="100" width="440" height="30" as="geometry"/>
                </mxCell>
                <mxCell id="11" value="&lt;font color=&quot;#333333&quot;&gt;Type of bread&lt;/font&gt;" style="rounded=0;whiteSpace=wrap;html=1;fontSize=19;" vertex="1" parent="7">
                    <mxGeometry x="180" y="150" width="130" height="40" as="geometry"/>
                </mxCell>
                <mxCell id="12" value="Calculate" style="rounded=1;whiteSpace=wrap;html=1;fontSize=19;" vertex="1" parent="7">
                    <mxGeometry x="30" y="230" width="120" height="40" as="geometry"/>
                </mxCell>
                <mxCell id="13" value="Your order is:" style="text;html=1;strokeColor=none;fillColor=none;align=center;verticalAlign=middle;whiteSpace=wrap;rounded=0;fontSize=19;" vertex="1" parent="7">
                    <mxGeometry x="15" y="290" width="150" height="30" as="geometry"/>
                </mxCell>
                <mxCell id="14" value="&lt;div style=&quot;text-align: left;&quot;&gt;&lt;span style=&quot;background-color: initial;&quot;&gt;bread type | bread size&lt;/span&gt;&lt;/div&gt;&lt;div style=&quot;text-align: left;&quot;&gt;&lt;span style=&quot;background-color: initial;&quot;&gt;Cost&amp;nbsp;&lt;/span&gt;&lt;/div&gt;" style="text;html=1;strokeColor=none;fillColor=none;align=center;verticalAlign=middle;whiteSpace=wrap;rounded=0;fontSize=19;" vertex="1" parent="7">
                    <mxGeometry x="20" y="330" width="220" height="30" as="geometry"/>
                </mxCell>
                <mxCell id="15" value="" style="shape=image;verticalLabelPosition=bottom;labelBackgroundColor=default;verticalAlign=top;aspect=fixed;imageAspect=0;image=data:image/png,iVBORw0KGgoAAAANSUhEUgAAA5gAAAJYCAMAAAAwibmPAAAAdVBMVEXm5ubYrWbMl0XXtHjDj0PToFG0ezD///+/iTy9hDXFmFLOpF/hwIe/gCmucCDaxJzLs4fQvJXKjTPEqXnfq1Tq17XezKu6eB7y38Lnu2/ZmzqnXwrw5NHvz5m6m2r47Nu4aAmxilHTjB/68+vMeQyZbzV+ThMZe1xyAAAgAElEQVR42uydf1OjXBJGBYLGQEQRCBe5JgOu3/8jbj99ieP8s1X7o2p1PEwSE06MFjMnT3dz8743d39uN39uUCj0/0I5CFAoYkKhUMSEQhETCoUiJhSKmFAoFDGhUMTkIEChiAmFQhETCkVMKBSKmFAoYkKhUMSEQqEcEyj0K1HEhEIREwqFIiYUiphQKBQxoVDEhEKhiAmFIiYHAQpFTCgUiphQKGJCoVDEhEIREwqFIiYU+qPF5JhAoV+QchCgUMSEQqGICYUiJhQKRUwoFDGhUChiQqGIyUGAQhETCoUiJhSKmFAoFDGhUMSEQqGICYVCOSZQ6FeiiAmFIiYUCkVMKBQxoVAoYkKhiAmFQhETCkVMDgIUiphQKBQxoVDEhEKhiAmFIiYUCkVMKPRHi8kxgUK/IOUgQKGICYVCERMKRUwoFIqYUChiQqFQxIRCEZODAIUiJhQKRUwoFDGhUChiQqGICYVCERMKhXJMoNCvRBETCkVMKBSKmFAoYkKhUMSEQhETCoUiJhSKmBwEKBQxoVAoYkKhiAmFQhETCkVMKBSKmFDojxaTYwKFfkHKQYBCERMKhSImFIqYUCgUMaFQxIRCoYgJhSImBwEKRUwoFIqYUChiQqFQxIRCERMK/Y/p723laCAm9H9O1/Vf0Lvr7vXcx3Ee7dI/Tcvy5tvUTWUcx35e13m+SU87r3dn2+x1b/yrvbrtO6/rajTd2Iva8+bRbkZtsenH8Qf9LfBvD/qfUncs9rGOsWne3i6XS7pKx8t1e1umRQ+Xsh7Ps9k39/0oBW1z8XQ7z+MsQ+0Jsy62rXpkQtp+/w7bO0rvMX37X3qcERP631DPvTFOST0X8W3bPu74tiyTRafMlJv2KMSQhVq5Om92WmhKzhs38arnttljN3N2oCSWnL1dFLqICYV+7hfHultOptvlk4Xb/ZPfu7ydFlm5tFM7Tcvv51zSExerb7sQYuz7aDejq/lhpsenbmbtnMeUppaY57Ef7Nn62s+979/0VDG8Iib0x9JzLHYvLy/qHTfhvIB9Sx2l77t4Uu727VS2p5OQcnPqsnzZnpb8vFzz1jQN1oVauSpBr6mZEvVOBazS1VtXT8vRFO2bs3JztipXt6MXwOcVMaE/kJ77MJ2uwZcCcZcvycNlytvj/T7Pp9zSsi3LLm8tFhevY5duul+mLHTlbj+1y/JHtSuR7dKVVuFads59EswbTc2EfPSTWku5a9c5XdOUybHZeU7+rogJ/TnUqsz6cGtJee0pLy6jtizPu7Irc4vESVsuGVWpTu3xaKWsbW2bl6VZnCs3Tdlymnxmu/g3SN1U4ary7aI1oONsjeeWnBr99K6ebnUxOa93Ry+FfUuPvQr+xqMhxIT+G3Qu2stWsiourXFsW5/rTGUXMsvGvKskXxZC9hw6bQdzrCurrCjLctKOqay6yWQ0VRWl7XStayXo58mRvWyexbofBitWh+ZmThWsbFRvuY7NMKYh0FOMdVH7Fu1i25iebNXuGTGhfyX9qAnHkBLt7VrA6mYT6STTzMfMzCvzMivsT+bXqiiscu26zCQ8aQBkfWRW1EWmxDRXy+NRaepXU3w5tsf0wh91ru4uJnTtveVg0q3nTTqLydGv4zqo62zqYG8JVgnrJEvKV51YGVfEhP6F9G6N09vvMyKpek0jn+Sol6KTJWWXZWVneRlMR5kZMruXVWWWBfNwl1tZ68+zfYYlbKeiN5nZpZspZehytVIXa07N6CzENPOxwtXF9MSMzdCf13NsdCK1DjG6j6Oq2lT3WuT2aWqLmNDvTlfRVftk5efzkttsdfITJWbO5aRiVVlp+Vh5HRtqKy2LQompu4XqzKA0szwrdzuTMmT+wNX1mC2trrVmdGf+StAu99MspmPqYKcpvQOE1ESmRnIc/M6gmlYieh07pE6zCYX9xBiCORz7wYITMaF/A/WIWWP3aY1AWiawTXe6Ke+6PC8nnYi06rRTUmZSMbiI0kRmqvNrdON+FqZnYRfT0cTRTnvoApfekmZhyq1x1d1SEdq2aSw0bSv7TE1zU6vyrIDtvX5VB3oV08vavnms45i0DL6MIfY+tp3XFTGh338Jwblur0GZYqsty4O1hOoOu01EWanCtbimoGyTlkUdC4VWIS+b+inWTxrNCIbaorLYxjXmpgmsdFXYZpXJPlmbWrmndmcb8vrcNv0mWpHQp0I1zYNGTYE+KldzcLCmMwW0fjefBvWJzp/lREzoN6RzWK5d3rY0wDcZWZVdlZtGhUYtykXzUsK5lttw9HG7W/u+JtWZTV1s+69aNjGZmdWp76yCDC9NTJM/hC4ru5SlS+7joWVbiKC3BXWcVsh6x9kMjXeVo2foPJ7jFqHWiMY6zWql5uBrABET+j2XEMRwXT5gGmh6Oim9FF6pVvX+UIVpprsmpFKy9t5Sgight57PYyv6CQ0JUveNp6mM9BvPzCw7PGpIZBba6wX1nBoSdV1V6Scpj0trYfWmsL1baE18dz07Ek2+dCJTK/T6QV3n5mVtWapfTQ82Owdf+oeY0O9Gz8Xxo7H0MxyaiE5L26kALatMFhY+4Sm8fDVl6uh9ZNTwRV1eM1jp2jSPzWDx19lTG8WpZWNoXovi12uUn3ErbbNDVR3s+zMtOch0PtR+qF1zl9HL3kI1cTBfQ7mNgyw7J3vFoLFsk9YWyH+fxqqwLWq3MPoMKOqzL+mtIdW0WkzE/+0L+n2oheXy6RMh182iLE1QfdoqUQpVr8G/esZ1qRfUqKUunu2p5cG8sj9e/UrjppjKwjKyebb20yTuByt+u2fFZlUG60CHp+fq9bnOHl4up9PpclpMzSLzSZHSUu8EweQt83xbWaQTNUE/wH+qrv0a68Fazi1JN/9Tbuu3UEusXlNl7bh+4b8j/ilCf9O7NZbXz4BsE1gJoOyqOk1mKhPRRz06+1H4/DWmytNs0Qg1nw5KOJ0DsT2H3La9kf2hMo1Vnm4VbfVa1099/9T4aOip+rV/PVRNb7SP2b3S8tSe2nxXVoWf99C50CJNccN2ArT0Xy/1nFp5pPXvdfCzKRKxTp1lMrbOwse2GasVRX+OaRET+jXpuZ7+OFep/+ZAmryYlV2lxLwOUnWuw89M2s4y1yrYdtsOagmrw+3pdLS9+S7PTdrd4WDm3J8uD11snjzO6upX1Oe5kjvPVXb/8Ks6mPnV7cPp9PL+kh/bMs9KP8miM6TP1r42Pi3ytPaOs5vy67tILeWSmPalU/8ZQtrp7x5Ky1ofAg1eQacZrtW0K2JCvzQ918tvK/NtAKtVA5kW7hSqYtUmPm6T1uApFoKWBuh8o+rLo0Wmhat9x+72cnp5edhl4X6/2+1yEzPLZFzmEx81gHWlQrP21FWq2cvd3+9vbx/e31/e39//sX94eXjYHZR3r69+urPQVGlopGdR+NIhq06vSw90v/ac9DlQKm6D9Z2+N+gjLdpXdO6vEjXF5uyLghAT+kVp6D6vt1NYupU6+e/Tl5AGMPXjk/+Ll5a7/SHU6vgsLvd7C83jztKxPBwOZVadjg8Pt4fKHhw0xKmsDD7cl2lZQeiyYuiHGAyYyQre+vGf7F3tdqM6DIwxELAJHzE4kIIp5aTv/4hXI5n0vsDu9ge5t2lTk93sOZnMSBpJzqaP+oOosr7dH3VNTyWUlhaM6RwUr7IVAxP6t2rxgQE+pyD2K36aTID5pJDfWd55WK5nLrGmSYAFMPlBryqxEc0z25xOYJ6nv+50nZIDk29kZr0FJCf268ACwCnUxXvCJaEiyVRvSHoiukyK1KQFcWN2WNcBZ7MZrYNV1qQGNFppQlZrK9/pCS45rzMUJJOE7bVNE4hQ60eZE6BTYzeDJxZ4DcSxTUcMa3SzLGBM/miA5c8mT6cBzc/oCmLBOnjm9CVWVKcjwARORdCKO5DjzVEE7W9LhJ5v1POUHT4//p5oJ+iZKvG25qhSaUm30ru+YatdD+RaW4ETSanSj0jw6NZpp1t805zncQQcwldK+ORf6HRZR5KX4z4ukKJ2IlTDrEBH5S0t61f+em3bFsK2pSXhMiHwe9gIGq39PDaQn4ROIs+GXwjInAT18x4V7bNHAEu6thcoSsr4AOYkCeLp/zfUeIbxBOZ5+stO1/5/ElaMqU+lY5MIBGTFuVikXijM8x7frUmKMlEEQhKpikHHhUrXNk3bEWYa17aseh1dW+YF+I/Eqckf9au+fXwnjiLOe5ZmmpRuRtLXLkuWW/ddF4kpiC6VBUTNlqfWdZ0fZ8Lmet09JukRThf0jDSdFgsRvc7+ediC0PiF6JjEalSyBwKtxq8lLyw0ymE0oNlc9hOY5+kvOh0neT9/HW0j6GrW6KNkUmo8wcwPXUtgnKwlxlwWlfSPz8cdTp0ka1t46KL3lVOoWkmdk5AIR5B21oIyTZaVeZnea8w/eDw+6FbfksRwY5hUQ0JQpg2udSHe0f8UrxrHWZr5cl016WaI0YFeE6jz6JCW4mpGYe5B+2ytF65EWqjBOCF0hvWcqo3FFLmEWZb+zP0E5nn6S07XIbm9NexTbHBoxtJKuIjCuWbh9/9kyiwzRtFvbH77/v6osyxNDYWUJknLPNU2aLquUQ6pmkq3rSYct10L3BVlZvKcrqNg1BTl7Xb7eNxujzov0AQGSx5XSnRwuiPC7Voi3o7uiXTzTbl28APPrhxaqyZr0AstM37YIeule4VUN3dzolUMkrbP1DJlk+R7Fs7YckETRRWkaqURLWpeJKWG8QTmefoLTq/rOCURk3epjygVnehseI3ec3nXp3WZJhY51eTxvCF7mtcFESuFkGlRZEAXKVmvONKkn4jFQmgb7Zw1r9yYvCa+NCZoS/gs6jq/09OKciNEEsG2lhBIaO68R0RJ98jy0G3bXOUxowADZb2Et8gH8bz2GT2ZuFbMuEyOmXRa8z9HJGzWo2yCV87kiUuVSFwudjI0HR75cT2BeZ7+49PrWLGPToD5lTyZLFGyZKYEVwKTSKZaCjTtRsGftcSlWf5xT4rPR5F/5K7T2gXUQiiApIARSR+5ER4tkWiHwNRuyOdQyBh0S5FmWpZpTmRZ5HSDc50osLPGUDA5oPmZb0AmwNm6DkN/gED4YP2UFkmZ6omIFdOApJ/LI2vLOSo7YR7Yux+mXySM7Psq8iOGfC2TWqZYR5HiCTwJipDp/QnM8/Sfnu7DxAN44nv4K4u4RJjYwSbXsEB0elLIucJmR+En/aAUoWrbykSZzcKn3jE7EgfWtVpaRKeas7l0MWlZ33XI5jpCbHB0OX5rSL8SeULZprDuFaZqFbDcMQSlRQTQRCsIQtyxqSZDHw+qGfSWE/cqjbYTdtwOImkbJk2tJ8te2rsksyIqkYqFpCWUco8Je5g4+oRjaIJRoueOat/wqIMTmOfpPznd95XepxKL8T3Md8yWABWiSmneqnhiT5IR9aks+fggmiPgIRFE9NZiUIBHNNhULqDu+HLj7ALRIt2IJwmXzeARNBK5oRsL1KZQXwnVgo4S3AjlZWnEGA8FO4zzwJtJpLN5kCl5jeuJKVPT0iNO+Oikz3ggn9PiE/D0FzHD4y/OMCZTXAfsrUeSR1zsUKyi11nF9r3mZQ3S4n1YaE9gnqf/4JRQOTbd1MfaCL5Q/xcLATzlcUKr+GKJ3pJe2dZsCQr/AGQzssAEmQ1Dx3Bzm2tAdetKDImgzxNuSWzO+8oxoAxLxyzmrkOu1Q/4vgUTSOMizHShYpqMiCR0eD9H6qSnViqBTcGEDgVNAvdmTFkmSZIZuBr4ua0DGXK5lLi1T+6CTd7C0Ns+BpM9gzRGnz13e+IgY8sB94otftyv57av8/Rvn0oqc3r+TCbIUCKJAwUWLpJULs7QqhDTAZjbplJiTmuq+bL7bmlQwMCsDnrIewtmjNMj2GNAM6/a4+UGl533kaw4nOP6rjgZll4GAlDN2teGtmG2hJCdhStHPMQCBJiE6DMBBr9uaMNWlEUZtleZJbmBe75wGDISuzu5SGmMU9mXdFR/8eqF6V23PKqXGZdS4KIV0EptpUKViD5Qzkbp8/Rvnu5eGvmnt5cAZQWrkbXEIEjxiCtJldLPBBBHNNU6rl1431z2NW4tuFx4lSXmsxP2dlmeB0zusr/rusv2rh1fuNGTjs1eOzZt8sIRTyq0Q2kEIw0Gnh07zzJcPQL0si4wJ6QotYTqmRdmK5LEFiWRZp7fa/gB+4nIm3R1pRfi8AbjiCZY+pJUph2AI/todJ8OUauOSJOTP2hjmya6ZuEPp/0E5nn61053DNr46WrGOzXj+gYkLGk4At5CqCxIvU7s56kqTKCTXVs8yWqdZRVXxNfMmJzXiEVePrtegEShygtfGb8uvLXrB7Zr3H/AAOXKJSQv/uPJPRxt8hCfDgkjkrIkYKsiR4b49Z0WG2d2yzxNzZaawANl4YjwJHy5gdtiYNBhMpT8DjeaoOkaepZDy0zmiUUjEKFXsQHe+/0E5nn6V9KwBC5uIe4543MA06I80rGJhhuypuz2Ud+TPs0m7nl0nPhkfF0Eiqssy+OFeTPvyPshwqvg88J3DEuglI+PP2E9CBRPkysRfyJ503rsNuDQcowZIICzgZfIBNKym4UJYSECfwGVJk1TwuyGUktK7Idps35YlFEOk4Xw+rMYaX5JWLkwLt/u2SPC5I7TQ9PSRxMjcz6BeZ7+8dN9BS3xuAEZDMucKWRZgWYWbSycr/fH5+fjnucvsyzOmmyzMMAOrFCxeotBGHkzRo1v/rweyBRl+2bHiOkDnHJ9xCdL4nlgh52X6ZMcZI5x+Qh9mGiDWooOIZigqhBaiiWd2fKiKNDpaQ0pb5XC7Q7SHKvv71Q1LQ/KJD2b3KPbsOchs/30Y2tXR6L2J/KEAaFSk+j6E5jn6R895XwL3DEcZ/EKricvFIn+VjrpSMHqpbJJnqew3tnOrzMSnc144Gj9WfUs6ARj7gxMFq9XgO7C+JS90JFZ47JoPrgwYx6ceeWnsOaNS/SQvWUxO0iMOYMBuQUsaBf4ZkPQNjiiz9cLPvcXKVZ6zSR1U4vWTZV9f38mFXv6NKeV77efPBcHm/hQ4hHwU39oWKmm8FjMKo6jHRp/AvM8/XOncQcPZGzPwHzGyQRoHmkxARZWdWtCNVRhc8HptmsGITlCEaOH91Sucatz3Lg+v7HHDwR51wPDnJSV3A9z7Q9lsoTdBdyQuSsytfMqy2d91LJcMmFcDgSt4OiFVZ3UR7dNkZ51wOm2ETRNWn/nd/SuZGrbilf9+flZ50tTNR411tbBXPQ2A01xjnyPKBpgxNSU/9i7uu42kSUIQkg2cAVYwI7iQayWlf//T7xdVT0o9+F+7ebswwYndiSNrcjnqOjq6uru4WVEyLnjwWg8xuB+R2d3YO6nP/B0ZWZJP43CJVlsjtlzNzYzXmlLnULo+n6EDLNG3+FM0roIdtJ1HJL4DCpKEnxaza6FlNR0HMJ4JEt726Pz2ldC6kHXc1F+zSJE2ogCpmQgGoCMt8J2C4247Zups4jZAG/X4vp43O3z+fV1+cfDQiZ6Qm/V83S5XD4vp2Mhkt5ylrT72wVMjCRxYA6cW03Pe6qiqLpZYybnFHZg7qc//FRiKhcHLKEotZ5yyBv2GNc1i5cMppEhj8ERs/LQz+9oWhxxGFpFaBkwodKiqJFgig3ryA4XV10Z/qDeKKDq24hwZZ9JwGWgPTsHdkY7vtaRqJA59oZAI6T19WrXDhRsphnybd82HU+ujydcemjhrA5VmTfd/XEcLGx+fn4+q9sEVelaF4XFzQ/M0/Mpm7Tsp+UmKb/0z4HKbY0tKX22A3M//aGnaYkkHQBhdq6WM4oYTyxmY4P2Bo+0AqHwj0Lj4sKO4LUIm4vvdF7sW89Equs5BJsAGqfRhSAtYMeNEXikvmq3M6e/HoClEilYLh4y+TBWjLFOGvFvGIe68qjOvhMa+8hzcd+Q2l4f9+rz6/3zYgEzv9fH6vbt99/L6/vlcjqdqmIaW87CvReSaLUF5duQrAYHugpwqGUs9liZF8O3HLS/sXDrdZMdmPvpDzhdMzJNMVELRE3OtMqiA83ebTu3aNcQ3tYk6kSCzx9bPVF0jK4xRLkEokdCfX+qhfA+2W309JLoXEJKQJeMP6vXFTNPVJOcJNacuSqURRZiDNaT5Zc9t3oBla4O8UNG2nE0Unt/Po+Hw/G9Nv45nE6Hj18PtxwWPhQu72orM4pQ3Hwbp/drbnkloJluabJ0jl6bEn2fMwYn7MDcT//8qaw5I4MWFyqPc6E160PBeapzU3RoPmY4VXpH70BGmVVZ36bppPIIiv7xBSQ5CeLi3+fKrYtDCJKrozoq/YyOXF/IxVXsqo3EdHHIPCVN9/B8Yw+nHusoQduCUlwW7w3UiYy81kVenY4WXiE1YzIBW02qkyWcx+p0hzMX+Kyqw8dvWiU4cNM1dVjFyYEePY7rKurBhwTONOjtwNxP/+yp08OVb3u+dQFEqrBo37A3ctt1LSOPckaPiu4JiCn3WxfxWmWGGSuL0XEMhK2u8iQq6wCOHkudAnvFM75oLiMh3ESC2uTAfBVE9axKOWNgkhx4oRlpzcVVJIsuErO0Yono1CKPPF6OeX0rWtlmIcpa/vn1+f52qjo8Yti0WFgeOORgi5j5FjqHQ1kOTQ66b8wWRoS8RJtYAwloB+Z++sdPkZ8hPjHNG2dfTDdr409DKhjtTTzBZM4wSFfcRmOj5nVQUE0hU4H09SGhNoYlMd1FeGIqmzDI85fSg+91d92YAmsgrU3MlFeRmGi1vyDVP+1XUkzf4E/HEG4zsorWWirZ1Kd3rDcCV0cF02Jd010vX59vb4/ng1S2LrpbjU1i337zqhGCZHm7uSQLUoElSDdMudZ6MU4HtJi5A3M//eOmO3wgRFoOuQT0LWJ55EwrepAQFJw5Zslz7kgEfButtWtmLF/2aOjJo9c6YpJWtyAXEjCdzLIs6cVOUlevuGTsrJymmRiG3MpwKlk3EJfBo+riotO/eolAdCEMZ5sN3vtXdG2xH56aorrX12I4HI0d1NRxLY4+n29v1fH4fH6dSoz1u9accSBDIuxA0H9AZLmQ89ZQ/OGWsaGsB1ZNwDT+2g1E+7v6b3KaCKQqjJgfF9nVD/3S0Ll4REtFCgZVD2FaLMn9dVot0DQId2CbG7E1ZqqIGj1opuAYEpay5MvjeMlRETJMU0v3gEDI/zFpRJmXUrzkma4PIRn83Fq7bEBcU/lT9iKozRm5tyo0WUSDaFeEprRMs0qdz22BmSZHtKKg3Fm3nD9y+PhQezjV19J3b8LSP1xVx8SkIOy4zrljEHs9/9oZevub/G9xSr4nbSWTUKqGEHrDm9nlTuSfqcZI5yzWvaLfBMFy8g2TKN4hgaTUAiRG/bMw5IaQTOjky/Zck5CxoijitNXSPjFjXSVQz8yi/xBzVS/jSFx1L55/YR6pqwGIuVdV1uT2k2ybKWB6RkqGS/iHaS7QtdYV1elxrA5V3fU9Jkcfn29Vnv/y+fVE/dPY6gfNBrBbUPgZbuo4Kctbk9vjtbHbw0EDA/Ma0/+aftyBuZ/+nzKsCyFJrFk2mZQMkHhYCIZkAlIRf24NmoyZ2OljtzlAbh4RMpnMnReGSjpZFyZy+FGgGXEL+q/LRt67goJlugKkhkxhh1HWfuB8Rh0ScZHc2lVjWu8UUUMmGXezv7vRdllfjyypf0XhO9ukJbtM9NPUVFVTGBKrO8YIcUDt43l63Pum+vy82ZVqauo3KkBpcdL33oJv/oXT+Ayors32czHuwNxP//dThA6ve0jOWTY3TrLmSGxhSGK1BIuWAymsL0pn0Jyd1BbcmH6W50C5XtA4OouQWFHQjho1gPDJXNWFIlHWzKWgdHVI8Y/dnAy0fBEafgBVlX4+qrPSYIOqI06a3eWnkmmKlosnmJmKKoJm5qpUX+RXzTLoYWTHlw7W9wcmSj8vmCXfF5XILKHJokmuJZ9ks0w+az6AzUV1nfP52rADcz/976fuMpe4Gcb4cussXsgPm8jqN0Qjk1rLdXWBu2LtI44tVvFwR1YzT3jzqwna4Agktu3EyGXPwOA4c24Ws9Up+WaBPzBcb+ratFQlv7pGrOx+pmrEusnLe+fyT5B/3askcSuMslKS8k9Zg2TGpRosZQh3+q5pu24WN5ZhaG6v1/px76apvlze7+00YSxQ+fEhOssuGzWYlFi5Wcq6yPImPzlZ3oAedmDup/+5YcT9ORBhXTFRrcFxwHuEopDJv7PHTAiwDJfNNnSruN0MfpqyoRL7eAb3BJMNKn4Y+lS6UKUkJYvEmMGrdU8uePE8bvGNbBj3zikUrtslwy8ekTXVNXhSq5qNQ8r1oEQAFpeMVMt0ySn6TAVmmvZEnBbddyp2UgibwtR1nD49Nc9fTqcOloWuKcq3D7cawPmD+Z3cVE0zBqfsYux7zUXzBcfttnEH5n76b05XtXI4P/X3tlRPMcbtTwqXhsJxFncddQ83Q1DgbLnmNS97jxnfSu6OnM8xIHFczk5OETrhM1hhssuiHOekoF5uUShGLzYLpoEjt8Li14uMU7ig16p8OXq5lDhU7HQEhgRMDZaVVQiAjcurzuldnY7RZQMn6jz2mpaxlQnBY7GBtb/er9ei7e758f3RTKC4BbyzHNVlGJSPvdQS+ZL7QQFMbRTMhxpsontNAtqB+XOT1cyzqZeBximfmwFUqF9I7lTOW9zw5n4BcE5JnsCjPTpjD8jYpASzNZKqoY2FhQmjbd988AaRnn03gcAdr2FsA/ZsJfVUATFw9CTkI25XH+f2pp3OjbAJHGNolwzqeN0aahm8CyWSv/rjbasze2ieWh/N7lxg5aty/5EsEHQC8WqFXzejAEUGTGTyLxYptP318ehj31aXr6qftE7wgCbql222PHyUCZ4DVriwnXqoh7os8Av17WIB7pgAACAASURBVLID8yc+JSITV01GGDfLJDg4KoPenh5umOLp+xYPTfS+jT6zlYsGoNxgeiyqfPbWD7Pil7G1mjRW41alhxoQVJvIfBilPdAGSL8YjJwsdBRX1Yw9au/JrHWxIsrzPM3qCkFGmtrAkvqavHVqGKEzlv0vo/PZNNRgHJNPdkmlU7p1vc9MBuEIVTdb01wFohWDhKg2tdf73Z4ca1LqYtY4QPiAmGneSGRvN2aYJfo16xw9J/ZRsdCJoQZNN687MH/O0zW+PtQgInepyvIhVfmSwKPaQ9ycMzEVCZ1fzlOIPkiZxUWDiH2Ji0RYQy0nHI/nTNYfNA3n82xv0AxbluV5ldwS2F0SzyvnIeN1ob8aU58DuzNR+rT/nvsH0qxzA8NNEZSrtgrovU689fKiRgeNcfHtXVPkzNlRIXR8RcsNl8kdv3qlRKZ7jtPkRUTAFHJh8UU8tR/OkLG2D1Q2+3v9dkHTirHZIs8x3IDFkhJe2QM1IGy5zovm5uZ/4NJ3amfrDsyf6tRNMyG1QyG0LGtMKeXmpfMmDaKUpHX87i27LBJQkMt5P0Yaa2VABN9dWzuxMDkBERbeZsg69PEZyw0qU45dM+eRnSZsnU5zeTYfrBtheTGwsAT/X1gm98tjUN3UG2bnXLu1cmlKXimk4S/6eBIWTfBfS2LS1UNkADtL2snRq4oKt5i45YGVGZRPZS50d6+i5D/Zu9bmtnUspkcUt5a2tBKTl/Ilw0k1+f9/cQngUPZ+3zuz6brTJo2VOErG4HkBOKLR7gZNMRCY0+LG3qFXWS+fP7HMz5xHBjp1qbQcbldMTV6uG4Yly2g15qQF2zVmigL0BOb/A/P8GDjeOajJaOLHAOSIlc01wGRY8U6V0bBCwadRauojh38yXs97lMcj9R3qBzHb9aGGzIpNCDUZRtcYqVSOsbQRJd/wQAAHFrEqYZRZ4OYK3LO545hes97DTkq1fPvtSuNMlbFLDeOtW6Ximfm3oqM+8lp1wvsO8gKqj2TrBLUxym4ke0v41bNNprM2sh5SW8Tfjn1k5MnYep3f//7kbl76toMIxEbsZCITSqgn9H7Imq0J7QC/B/44ogA9gfmnXSU6dpNo7SXdRVFNRHWvKw/fq3KYX1lHNh2q5DYfLO31atTTIjRyoQjf22QFMSm6UJyxf7xIPZhrugpMOFBFUIK2jMcDzdgpbDZBtI/qyOoOwsL8s35OoG8BGD0RKxjYCuWGaas4x+YPSUEHP0ElJukDutNom7609VJZQcYt1GcQN58gjSZLKY38g19mufN/1JA1FiADfceYyUavqyB//3j/+PX19fL5CaPKepvT8DYMHGlWcN5AxqvxskbJetsT/1yvbbtLHl16AvOPIs7tFuekqsJLyWQRD7SAZFWlRgg2BHjwFzhaQemxExKt04m6r1HCGSC42DWadRY7oCg6LcltsC0KpzWxRR4LAgBU+3mpUTAWfa3FImMXCUmQQXJoyboRdnaQsng8gMDCJ9estP6rwYZukbe72AqdIZ4XYDKo2SwWBKNnbAhs243ovLBq65CSBVXU+iWIgdSJhKBzpA1V5MZgpgmy4Vvf3z/PX1/nH18/XuZ+cevSDxxfToTnBMMR5t2Qf9kfTDN7Rs0M4fQTmH9Esrobb/yQUJhlxx1uTSncomRs6dndW/lIch8iabk/h2KltwlnYchMBN6epJpWMkdNiTHcvV+iFZgAZozO2+wjNh+83Ux+xHdLNJK13V31TV6u2+hxzKAG9F5AHLlqMiZDFZ2X8yIH9PnRXhmL15lVF50b/C01pUkzgQ7cPiTHO3Wygp02nHYqhJvEO5nIlKPWokhpzbNO2TMEq9E7cPTO/YQ12SNWgb5LkjlMEoCd662R/TNzdNLjr2Lm0G+jK89tX3/C1RJtVm4RoYmCy2Pz/yiUbC7YXDTSAb4GvJTuOsnki+XA0kdHs94phSVfkuiKYisMOZCwoqJ0fpeJQA2gMNbxkHm5pQZcy3x9l0NBi9hz9uDN5k7Ph0pw1z37sG1UiZ3IN4guB088krKHHHTsVcmxW1sB6bMltQeBHP1b32aaNnS1d816CxPNpebYkpsGtzom2fitckfYwymnxNV+YZ3v0uGwYOLq0nVcHPjx9TmfX77+en2ZR+dWjEaM8sPcdb4Ot7dhmwe0aoHKSbsKUYA+UoCeQulveXU/8Yj3d8pqOjK2GO/OHAhwZJqav1xYHXJOpamsoxqZh8luV9oAMDayGqMgw6JI7SKyItL5ltgW3grSx5rQZc012Qf1Ac8flloh4qWLEvQUveQjHTyEKgLKo8WA5c26VXrYMQwhawVW0N3hjh9x/zJWGnAUM265Buatt80hatXe0KqtkTcziJvoxLy3smHTakttOYGXM9fAw9M5q1fbMoxi9WW5E/q7A5rsD+lNCCsMo+fP119CJsRggySZCI89OkJvb9eeOMUq3Os8U3ICadgllCcwv7V+uevUSYwPIVDgzL5ZCmjeqIpKvcQk7Qep6UKiOiTWin10Xy6qWDFEbKUjO7XRLAU6UoFiCQQnvq9j3zZZPzZpWWXZQ1EwRejLOZ2UHIJEU1+ERTxX+UbGmhsHRasV0k18/ratKASPmjLExXErAxh/y+ii1/5NrKvmCoIN65/P02Y7RLL/fbticbuJNSH1Dix2Q1bHR7NMNlYB/8wgisqT7j4QZLeCssiChLwlNW3FAGozUHbB4UVy+fhYPn7++vuvoYcSZalQpNikArQi8OV2+11D5hWRcgPxAGjtZwhSalkansD8xlcbQy7+p0Y/tXT2EGipMapQp0quK5zcGXOOrU0FBfl3dNYyaqlv853zDvUs/t8oNZze18BN5HPUyCFn3jL9Zv0YT51hPy5LzfPQX603czoipCBO57u2e68Up1LQ5aSTwGHdxxJoGQJKDe6YJAOqsZdcwDpArQaDZbCCxpx7YyIgq83bQDI5AnlSfVmzVJAfQJ7TFrCUwAySyaxD+9jJadbxg8w2lBSh0Gg/prBdC5sx6GREpCdfFoZdv35yDrL8eLtptws4ecM0DEN94J23VzNZbK6ee8w1kcyOrjyB+Q2vkjVzz1xNni9eQDpaHFGUHo79mpX53fWGNaBanNZMgTOrOo2kkmuT80EDUkRsw00ZLuNzvLljiU6j2Ax4CtaLF6cWHPMQ64GAvDaAT8vJos6GhcdCDIF3HMDPUYpOsQr/r7FIQC3okA2PNTfE630F36ef0YRdyAnCboaN4xP5udYPas44bRzyI6vN4vcyf82mhjFGezBYhryixMx8yAYq2KAgwqGtB4xHBd/dp8MmAtX0JECveZlfv14/xsu6nH/8C7gcbrdaWA7TbUKTtiaw9d1US85pRpU5wuegH8d/dhfYE5j/yFUJL/xdDomkjIe/CSqMkOYP/ZO0zhZho2FWEMvK/bimUnleW9ljZJw25uRrsfjU2AjKcU8ShCVUu4AzZpTcUYK0tiainnQ4j+XmFXE0zapfEx3o7a0gNs4NGzJFU0zUqbxrj7ZTTVpZTDreOQaYswYi+AqHbUZYJcs9WvphKmp7rqdc5B9ZUUmvj+k2aeF6th18YQkaYGKRCKMjTwsHJkRW88cRkw6JrdMqomO7bjHKrFWaUmMby49N3/Xi1vH8+srNKONco+Lt9gZgnmu8HG41ZI4zJZqIlnI1qMAEPpc1PYH5ba5qb4Bplw7gtSKStG8hsxhgYzy0hvtDXhrjwcKLGuVt7lATexNsNFqQvmQ/5gUKvZyFcp2WqVN2uWtxDW0F0gmktyjnDhwMMApAyHSLQ4TJ8vBh6yhZqqyxZtA8FCR2cgswJamwAGQ0caQ/SbZldmgoyWN66WEEsOVN1WbWaROv1G/Yvk7beoTYuYi7Z7wfy2qZfmb0fSA8kWQTgZLrhlZOVBhso8SZtFo4OmzgzNo6h7Z0hQyKdZw/ahbO7UPjyO/PySWgWREpgoGYef11OgOc2Cs6hicwv8dViaIey8iDUMAGJTg1Ysc1P3I83naDdHtjkGr+4dMDMxbMFwukpSkwSwNgsy5Ql1bDEqOUGqU1NWWzlMxeNWgB/82f6GNVaDuwx7TXYwBhtF6DE1ZSAhujNaUYiI+ZLNk+FZiMrkDfOzapIypm0t22eZ7GzGDr0BhCartxKScY7XBUrjETEs7DbOdq2ytpLEkCQpOJaaTJrZcVlWsObAAJtGjNioVQ3xs/qKQGzKPWbAIxPqmVnRGNo8vH+4i8Fka014kdoInd2AFtIHDbwWmfz4MwCrOReuY4/wTmN7h6l/Q3C/TGkNGLeFH7JtnkXmxzMcs05riz87iZoJnmyDXVe1Rm9UTfArf3HAG1oa48aDb1YiTTyIweCT2RCzDMJNwobawFpXdizybR0v0yiirEDewh158LY8PYzGI5R4TPCEvmQucB4MzRAbNib6RubGrtn+E6wuarXiAslc0CmSOtAfoJ7ujbte1b52Af0PitVSvZGrXFiLMM1dFh7Vc4hpzIZL2REC5c1weSYGxNsXtxabLtaG1a+NIzDF8uI9+69dLPA9abDIOC5jRvjJloyJ7PoB8odP7DhgZPYP5Xru7J5uGSPcam1Gfks7Vy2+JCG2SmZgmivBR/25Ksw5LAUtu9MRBIBgLDzjo8AnMpD6VmugsTE+ePxZg6id+C4TrvNOU57avXKZE8q1e/MK/dK9LGEYWkKSyjb1wGCKzFMFJOix/UXZwM32vBB4IPklg0XBfPCKY55RVh9DpuSmUBS3DDR4g/sZuyZoWwTFhs//rUIqYREKZNva8jyQBIkdp64wXpoKipNJJZbKp1VFoSt2p5pya0wXtNT6xL26WkhNgxYl5qpgy1yQ05LFA5vLydazJ7fqkpLdqxbMmipdzP9acdw/4E5v/sVWuymmzZeHE1rdN+Dh/M/8rRx8MfQxHrQfD1Jrk+cCsBFqPt3ik7NfmicVX3ttN5V5Unx3SzbG02eYTriSOVwuYPoiSFGPW7iINAQoJxBiCS3PfMpe4p7CUvnJZwMnOy7UKJXdf6+sfIJTJ9FPM2wz0HuNk2EtY1WRx9xMcZPDw4AfRQlXBguS22Sx3Nn2nLi9HztnEaMEqpAXMyB0kWnL8Nn73LrazlLNW70HyBjLfHjhB1LsClltZ6cWmTmPEUWz+YXRrxHWHz8lGxuSBHdhfuuL1tV4HzfJ63GYT2ab5WkPZvNXpWYF7/zd61bbeJbEEBYpwFncVFwNAc2rKR8/+/OLuqdmNn3s7DJHkQmbFjyVYsiWLfalcBmJ/9nycw/yxeOjcKxbHhmz/ntg23jxFdNJ0AmVyt/B3arMjWjuP4+MAH+2QHP6IxqduxUp9WroTds/ocEP0401u1iLiGdRpckjGHfWZXfKYrFteGISxL2usiVXZ2qWZZIVDVNVlKe3/ZV/RtkuQNZrkfYIoyw4ruwvKM7RRLESCdh5gjuWjEyIWkdU5fA7VYMTBp1c2pCxDZsfEF4Voo7KA1ZF9XFitTzLquMCsgHkusdoBKTmTi9YqoOb1kBxBXXtDICsIsCZ1bNWxZdXrYFFAVNdmwXZLL560Pb2jxMZDLdhyYorsUmgaoVPOHkbttLFYCnvUEA9yyRV8L2L8/gfmHDUTA2pbsYl7WoOSV1WzEEfEIbLh3HVNJVGAouzag8I141Kc3Oz5+Ot7+Z7ew/7HMeZHCFy01S/F4+nDLV90ANTqmv5csl05XLlLg3ZzyPp80hbXjSB4IRbNkFmM1S9OxvdopfFNOlvsuMqG1rK9anDWUXPGS1kXJYeqfcUw1FjYsIgaNSgqDqKGWZs6qSAFM2q1bsGxbhspSPiIC9UYndrVqUcdSCohaQGjVzh2N+nhjojaJULmITDtj8Ll6Qb94tbFozPvJJ4JZWJe9ceViy86PFZdjKb28tiBtlgvT+FhhO/OUZ38C80+4VwFq9qLyJBDI/sOVsmbqXGlpkeeqR8ljguGxwPd2fjo+TmBux4nYN/tzKFCs2adn993lx36S1zUPePFAeD9df3LfByuPu6SXLX+d3SToYmiD3ofaOoiK8AMTOQFUPZFhUhiYEGJMiBXq3fvBOMvREkpVkpRX6qXknrLmDx8aHHamphh/ROpzYM+k4u04xe1lsWqNHiETcsQUqCcpy4JColgMmAQmCk7fF5u18BlQI6B6V3fW7VgWaZO4kJcYCbuYEbM47+suOgIlLhHjb68cky5zf/vxQ7AcAcQG00y2fooCEK0tneUONds/Q+bMPoH52+91SY3MA9BqoJNdKfGPcBkzvA4O5gDI4+NwrcSNyeqoVFb34RhH6YJv/NlD0CReKX4qDy4XzSNl/VTKY6brKAQEKVOigMkhgZJXMoxmQhrsOkvEqQcrgqpz0EkQWKTbRYlL7aXMGqbK1E9MCe1eWQ4guiAHlYyxoNwhYa2KAKWAQI/mCV0ecWQnqlqlynnshSW5WAgTocYebWTbJ8XJGePIIB2YOjYJljAC2gFpIUwhvROki6TWBqTkBYqDPcssw8Lv6PrbreqZ5OK1hGH866B0YRhe/7pGKyvZAGpBNAAZr2gYKGv4VLeI7CDQhmFY/iNgPrH2/75ieVkQpzDyzCypk8QltdTOLvBnjip0+mHnFq6zhWFv5Ka8XZOvGz6P5Qa9NkzJmsbSJ8L6+7gdXzLcY6sLl2iGR/QiNvyyq9vq1ui7r+1LRCv3fkRR4+CdfSRgTzrr9wcIM4vvi931nDiTBGjzsppaWPD1Q7wjKWjHDtYs2jpEAAZgUcuYFQc7kshLXPeSxlys1d2JhlmUn8xVORFhdzZS+rwlKa7GzzDXravYXsvNj3NdjI+OC8eeDGBd34fFt1CW3Kr1vhD/gsXtRTNRzSsHcO47KnVZOjv0AwT0VjEYqubHtQAwt7JsWwemvS1Naf8bVK/29dQCrGiHPRel/4B7H5/XXN/PX9aLJvmrLHdCe3ymokTkR46UWW0N5yz9imt7h2vCseWeEbVlWMNM2/H3G23i9Ahn5ZkxavktJ5N2Il0cjgiFFDw+nSylhE49V4nwsB1MF+n1IUUSzNuRJb9AMQTLUF1yLWjGzwWlJ5Qu7anesVVtQc/1gxIXVTpmrvKPhzStikzmrMmeqOiylYQsQ2wdbEAdCT9Cn4Un4LWo6RZCBYFaI32oaSbS288BChlCzhIic09dtcUptKewnivTkpFAWm3n62FZT4xPTzSMyzx0Q/M+zNzw7Ifq/R3ptSGybNDqucLYD4As0ZbF2wbaQQHnzC4sjycwf7MKwX3NbnEqLllF3i8XJrKWKqV4ZrAZQILVUUvdKU5yXK8kusYvwO3SyNrqFpyQCCiA5ki3m228lvU2qneb02Mik1xUy2/3n8jvIipkG1kpNb+IkSQiggVagBUsH7G9F6kjLOK/dR2Wna1wm2UzhOotyFS5UzrbSVygY2xMLv2RrRYCm7qJIsl22q4GQq152bN0GxBumdhTsxuSktk2G1Iii+AEH80eu4WeBcxAJp+hTNt5HPSeBeKzXhCIEKlzAl/nQl5d6Ht2gawgHNgN2lVva4PN1UkMj63lsgMWVgbZKdgbsvkmJujrhtAGyga4oJLibneRwtStjycwf+e9efLIRUoqCXDOfjFAgn+dBx1fQMnicGNZiZ5e0+L0xEI/odiyFVK8VhXH1bHiKUt6NL4BkfRqp0Ezkoiy8dHKccuFqU9XYhJIlsStinXADNJJP9kdC7QkwEr6PvLioo/XQ6p54gWlM2ll4jpIFpZZIdorKt3WfY4WabiVQg7PslrQYnnJpUsRZcnLa7mLGaOBBYORQBoQlSx1hUoGzKKQ0jmpech0ERkNCymOzjYop76N07jFEpeqM1h+OYrI1RMRcvGbgt1OAQWksWlBht2xFg1sZOGb3WhMK6YUtV2W6qaNsn7peqs4O1DxDIONlZUNrXABRfv7VSRau7e159zbYz+B+bvuPWMlczwWl5baiUwwRzVrPs6xJPLW8ftHzSsr9Zww8LIzxscHMI5q8YGTsOpWBXYi7KteMQfghekxIV2Rt0Y6GE8I+7iNX64B+BftN5gS7fh8NoepI3PZy4ubsEs+BNNMSKvfZ04pZf/60E/OnTZBZtck4aTwvvh0AXq0HQOj6L8zPW5x1Owai1gQWSwasBJ7sLj2aN5nf+kC1SD5HQDLnKycrIvkOQNTAETGAuOV7TvmlpawazH5GOuGETNinok84gBMj9w7w30paaaJMYmIDhxM+uAEGSope0HN26zzrr9cyCUCzW9e+n4gnR2eQ22B2p9NIHsDAFAQDrCa2TSW4CIBCDHABf4JzF+/MCLfuPWUTlYvthM+Y/EFIrKOgr7+ROJWkfUztE/hgaWCMr9gyewvOWKtQqPeI/6LVQMHx7EuboUf7GDWFIvatlx7Ht60tdT2lDK4333hCynrnnW0skYz9GClQDC7UBeNT8gDgijQcndSoV2MhpCGZZ+z2a2lubMvYeJXpmh7i5q572QVz6eITBjPnN1aaBMwjsWwcnRpEAy62NgD1IqU3p611IFVOOPmmKvuqLTVQGvPvbTYWTvNnUWn8pRy4iuQfD10lugIqQRdkOMCOz5dGILSWT4rNYk6TTNnANO+abjd+mXubu+NBf1rza4wgFnQKmEqET/LEkT2+spstmKV+QTmL71XfpBiu2SqpkQTk3ign8MOdV0NmEhKkeZVDsMinuqL3OadtV4UfP5uYOwyaHt+1s9hnv3tW43oiSMGx+fEbpFyuoxO/tsce+xwwLLy0f6li5x87nc5At1lk37qJK/nTmgWcr5L4tUrNguqHSL9DBIgfuPZUbmq6xUinwP5AYnB1AeYOwW4ooizRcag5a2VmrJ5bNKipKahVmTVideKFrK17LYIWbATmMJyaZOesqXItKjBWWUeW5FCbS8EDUg44UTHpx+4ZNJhddvwtgydAuaggLl4LLXakz2g1S5V/WA/tfQ3JLOv79+aEOqyaFsUl1AuaFr7bOVme702Bte2GL9/Lwv7rQerMp/A/KULI/Nwe0V/5eTAihZzkgW+IFK2xJTRz4DLHxN1ykVKUR+/48QvMOfq5G5T+bcPocrxtaCVMQ0zKs9wwf22o1ErF9muyljUuJNcthDk9mVOpzzQQ1rlWfw4Dz3d5JIsGFSbi6KrtmTyZiWUC8jfTWHRnheyVrZZAcuY7IKBqaT/8qDicQ3anhMqsILmXxXXSSo1u9wNFnFR4VLKV+i+Squ9qCNDaYgtwWgY3WiNh2ZtlOMPbhq9B3SQcOtvxBRD7kT5PliSNBFZtAMvgyKtg+HLd6cPzIERM4cefiZ9T8e+6ce7peN4tdH5aStms4ZRFp1lWzTFhJTGrk/9cn8C89fde9m1Rdm2QUqsq+8N/hQnN13Ci5ytBm44kGsqPCURw0ghU+z1riFrIW1B5GRWp4qvK3b6+Y77v6GvcAopz60IWWzu0nRjc8ty+edtRZHuZKt3w4DNkD0L1WYFnwf5BXBi5trIyv1tAlgseMTHFFrtTMJ5ztVb1fBdqaruJ7901ivlqomrXBW2tcAUDpJECYVSCKQOUdMRmE5qXgJ/MVew5AWNN7b8Pks0Crvy4GlBGH3StS8KopOIGMpyKZY1eckp33Zy91a6n2ANhYNWKBSgiieRdhiGCi9szwSFLSG7IA2GSWS0+NyHv340eKXxhwf7sk1JosG1Lq4Y7tgvaA8wfG6ZPIH5n97r0iCUnMHJyfnXHKd/562kmsUcI7Blr+JGGxbKQQctOTg/8x/2rm27bSQHmmxSkdmtsJu3ERVTOrKS+f9PXFQVKHufN35a50wcjeU4lshqFIBCgeZYNJCCr0UhwcW8UWD1h0AkubXTvXeYi+zmT7T3E0Ah5jwNjCqeecpCeYbvDhOu3WcSLPp8e7ihnldsX15c2nvezfn6RRwWgoBEnup7Nd1/uUARsPrPgJ+YMYpxMTDCUjPAVV/+Pdw6j3aySpVdAeTZ5cSWJdjAisw8AQdoE7J5BJtX1tCgW5VjNOht6wXad3vpLXezXwYW3vQe4JDyZKHovCNzRZEtMNXMWZU2+xhYWeUwOJ2+inhwKePh0AXEbfs1ksoaU+m6DnPSdhaA1E4tgZnL7RuYX//s7ppOlR2F6fPOXz8g2U64EeEBtRGOiwcVFEYAOwbBYnAqyv3eZMMxa7nrQucCNDqYfMITKo24H4Nz39IXzeMzqqIDkPQolaC7DVg1XOAcZ9L5fnFgviO0MGbwwNDi2DeNbKvA8/acIcMzsmnXbAwgNEuLjlDCqhXi4dmXwnL59Lq7q3vYlPX6rlC3WCdJQSWXkVUi9zWcVeJBQScSxgiNcXJHdijCMW5VY/zSMNr6LjwIDtjfHFCHabVS9tL6QvbLk9Iaq9xFj+pdaYH7urLIVhItUHj2IR7mjCuDsIgZzpBx/bjHyAewqUnoQ4M8ky4iVRAwwWrxjuNadZqk5vdcvoH55c8+JyVl7DrDRc6i3aK9Gym5AWNyvyifMeEEybLLwVwZRtUJXR0NmhtOYkwXhS4USsMIUqiw6TaFfl4bNnpK4cZQoKHV1NYrHeqVx7F7xnWTYH+j8bioneVoHnjCeXlqY+az72CQuPblIQb7kCz+dvvx4gufbyW54SRns7iki9gKeaa0iEauqwh6ijsmVQTCW9LKA8/nSjaVsFb6/yDd7JSFtyCrNCHZ1q6BBgoxNG23reKPHLFEM1lQlPtydeFcJIrRUAwx1eSKkQviJtgCYLnTmN/erlIPBQKExGMmU26nXpSCZcDFKJTm0fNADc6+aPYLD0quhp9drrDwa4wktIyVDXPOquo4nNaORtZLeXwD80uf9TFlju3N0m2jJW7R8h15DbJN1NR7o4psZ9u1TL4xDjYc2xjAiCzqhLHMm11lAnnV1lbIsdcpbNkepT6D8eomQOcbM7oG20o2jGyUMw2lt83Gmg7VNhlfvPmwYYGTBrqAnLm3oLEXua+w0AAAIABJREFURD4aOKsPaFjiiVcLR5B537gsb6EbNAiPhw9CcyU0d42wGSlKGrfbTeUeNnk4I0Lp0gS9KFgq1HNUCiTJYX2YC2OZnJW2796hlIVgSuHPZAnpeE4dyCq+WUxbBRvXeGkBTcQj+f8MrPYMl4Ylon2RbH3BUtkLlo3oNRs2/zkh5RwkwrhMT1K7omVSREAWUlUcfCWMcQQPsfDJDLSgSrTs89f4mjLeXwf7idGyigESkUihCPsnBKc9rAj25RuYX/bsD23l2M3tGDXVMqvYFTCOlcvCWSaNH9oF2Zgs4sNimRnWnK4o65HeGIiQde59zAL3qdg1+KLuHjY4zCzaw45CIGuGa3d4tegJtiUnVU5yAH/kywAknuUtpvRTwITiGryq3U05PGZcVBtC7sWFsbcz4zB9TB6PT5slb+eFBGAmOBnz2JzcS8R269EQBJUe97hDT0RaAYrS5eJcfXjGynfLaS7wHSt9DoS2Vp+X1TSkmJHyWguDbTeohdJq5TriZtu6cp2cnWufDZgB9P0dSnNgcfAXrA96B6SIfEfYxCsqUssyP0CqQEpbAMxcpKfVrlzh0i1nu+MIXRZ/jwBnRJJZMw0GLltwb2iLzt/A/KoRS3fgeZpOkqf5lBFrHAwpBsEMLUDoLOiNqD7iUm5zWavjoZ26Y6H7Ddjb9ZqXbVcWFNIogyTKB90hJmWN/MsJq1ST0aTDr39/jciJrqMdwoym2V0igUxIOZPGgAEfN1M1oHOoHveJfNyoQ6AvBmqYiB+/feJsRQKavJxDz1UtCrPw34vAg3YvOgEysNkLhl2b2HpcWW5OviQo8J2RIR4bRUwyE5sixK39U8F7Pau8tyKLPpWqOoyKVVtpHhPhcN0u9FnWAhGaYVUC4or/3zey26O6GdjM3DV6Bk2LmgN1Qk4b3BtCBV1dPRmQoFirsMlfRCayy96TEUIT6LULNlIOIn0So2YH2zy85VDq2UOGzL7/qjv2/7wM+/bJBZb09bLqnF3Rq8NkhJ3LlQXIMltkbLt0OKTzbGfoUuHUNWzVbfNqV+1+tXsRy4o3qKfR4Wb50gBlMTLkMXd/DqnqgNTR4kkum4XScbQvut8bw6X9d1zj3W4ICca2DGXqjL6ghiRQB9o4tqzsE41Psioc69CLdei4RalzK28jPCfHwPG23RKMWgOknJrKpO35pkljLAVimo0YuyauijQ8NZ2cfCgdQPSDSGkvgIakIpBuZFptGceQ0axhu11FRqeITgikr217rOvEHZTSS1F0Z2CrXxsiE+J/WXrUbEvhyIEXz4X1IKIROihEzEFCBH1yqOvqA5gu2kPYRkknl12mx2JPL2qL3wiUAqU7dJU8jl0VRhXYsR0BfRO9xTV0Bpzupv65f3t8D0r/7Wcfn0Ys33b+iryMblJVlWA3MZ3+qe2BZSJbdfhpxMzyrnK99ga6YrgaO4aGXCyKXu8W8WQ7fF6IklCydJsWTw26+LKURtAj+2NEthP6MafucPj569fPtjm2dd7kf07/9rmMXUw0VvaOyZrUNEcpyP5+JYG8Soao72tkpa1PsauH045NSeBbNCIXbh/Q2lpNeW6s27z5FlzXo3szxEe0NMwsZEYqBVaN8tNoA9yf6lgUg1bWjkJg0oYiWOTQ2zpMKMhO2j7ZtvtKE5gCCIFaHUKjSDzAP84YKWByIKx9tjENhtD4G8MddlQae8eQzueJAue3lB8gy3DRD5HpwMzl+dkPaMIzr7viZLVLhaskZNpbvAYOneAHxIlYuZb9G5h/71kZ1rltzwy3N+07xtxShGlUFXtwSbAZai7nHOPd7tqyYH3OEkBuc7/t227gTwpSBKfWl7clQ8JVpeztTEjDcQOUET01zP2BSDHPyRmb4e7D8XA4vh5eEXIRSTmDtVnyijkqQQWcamXJAn1TnuWjn+gdCxQ64Efkno2F0/rImPLfql4hB69XywzcIn2jTavRZpcMygpEPX++MerqJF8JJKEPnGEVMSVTQiraNdxXstKTDHy9oimBhTzoaRA624bL1FtX21nGGVnomSjRoxph4nwqG5qejq7aLItS7YX41LAmuplIN+th0Dro6ekhgSnW98vwW1p3hPHepUDL7MZdZLI9Y+YHNHtdy3gPe1MasXGURo9De9R4TCK5qdy+gfl3Ryw/m6UnLVd9GtfEerDoQ0d9zh6wE5IL+/D9ApeAsxRws4wnDYw4bWHPwZ1dt2VErSekjA6ZZo3oD65OtuWWsBVnfYdCTXAnbFS9//lJeI3xSjt+Fh26e0wposCPcJi3mdbh1BpwPAVQx9fHJ/Wit5tFoubYDDCxOQ3vpx2bculYE1lgK2dJ7HanHo+1EtVle0ZMOQpoCARwNIqb1PdYgzZGG31F0hnUK6EAggE19+oGb6rWaiTVHsWupdkVpQRIJ+GjF9GEaDnuhT2UOAvYLlQlFjEzUsxetwOt0mnNjGk4GGexLnSpmVqjn/IRM50wMG4ibJJ0oPjmjkBepy3Pw9UuluJnX7o/1ywJcwANCbgSTVdxwRDFy1AoVMFe5uMbmH/lWS/C7qvXXZjO2IA7v0cdcRqGzGZiH3gNaZdjkZJ2q7e3lxdseoU6/Paiz9DnlfkbRjdejNv1W+zWNPZzD38oTHdgyHFRtRUf4NJhX73NmOTowaEsE73ff/28wwEgYs1A92pBtOmOf+4xcnzJPl/OZ9ZpGaRG8jPP88ZrYK8zkUTj/oHIs2mGYajtWw3vn4ZhplV+kbKsg1WKEsZ1VUkoJHSBknSuFMwxjsXQb4JfqtgLckEDgvDqdVsSXjqAJN7ZkcUfT1btL0ZtVkdjE6snpzrY99vCO72v2gtorqpCstljLWutOm9wXiLNBIBHZqvTznbX1vLT+nQ5nk6sR3ttVsC0B/WUuFCBSxzIs7WimtMln6hsL6HBUt3v19yjJBd05FX2ZtprwXvL3mbII6sI5cc3MP93Q60HS53Aj4o9pHM+x8tUamLlgv6lFhGzh7s3d+y4yfHqRftBbho+5vK9B1rNeIZ2y+fdpA2D8/OLm05q5qgUH/DFfj26YdK0f89txuuYURNam+NwbI73P4emORzuMVuozBaeskvNDCLGajM12SDFRpJjIHohPArXBmGzitf69bUZ0Oy0wHk6/f7HZzn/w96VdiduZUG0EZCEtSKEWhIR4Pz/n5hbVffJnXMyczKdb3OMOw22bAe3ue9utTwzlaJYCQVHIAEH7N3h2lQRJ6+o2cTwEAfNwoixBz+8xWtYWciSSVNqQ4INJ+rgpBofC8ab8JImlB0z1qj3VGgfLInq4RS3oMIBzRKiTK2khWqiGe40Cf0Tpj+TGsw4jp/E/ziyoBXU4H3BuOvSOgdHKmfsNaWFW1X1IHDBEMY/+FWzjK2kDWR/ijSz47AGI6wo0FKSHKutZhKpl9gZ09+B+etXEURU6A626p4qBdy0qoiTlLraHWlcrQMTTMJmuAB8BflzGgK93CSEisx8rKvutzE7gHzevafcwpwXFaw6J4Y5VFc15rZJl58+Po6nIzRnTh8/zvfazm+Wr8K41+uaCAnUVAFXC1xLQ8xeWXbqOq30SuP8lMbp6WQdZ6uX8PvSyqMD6wRKlZQLhzv2s1uuhC3YKEQrwQR9zwIO9udQIl9cVYQIvEWEE6GZwpxWGIW7WJlAJtwV29I4Yg6OppT+zTlZJlbzCz2LZyR3LYZez0bTEmM7ZfsN01mgZuMWtesTD7DQZKOJPeZFYCCFa5BEe4uJ0/fAMEF/EossuuQSmFUhMN0PBfUsqtsk37YOzQaQIRmjEfcyy+TQrSDu7zsw/8XVly9G3KYAkYmWyk1UrWZDnVIP0iQVxV80RRqHIyRfDylISrnjICDqy6kZlENkYB6UUPmZNPManR45z8GnXZr9SKYPMXWRVUeZcgnUh5fKeTtaYG55UliE/vHjWBafnysnhBZy5VLjDggW7lEsUruubJa68gitOVIsnCOBIEWHlMdpzPiMC+D5MmxUZFXAJZHL5F2bmkWthjOig7g8UUajLnxPMC4LlqLIg3YkjI5ZH1wFCCtMaxo/ArGE8yIsWcSEttyrJpNaXAAoRMD5THGq6AQJGiVshOaRODxK8UB1BxazbDQtMLMWfaar6bUIUCqCIjinp4C078BefQfRAxwlVai7+c/dQSAoaHthtUk0e76lEbBXNeZroIDdZTTUE6KHiRAxuNXjOzB/9epujEeHSsHUhRKTr5r1eEC+MqoOYjLO4hojvg4Iy8dh93XD9YObSIngqHrURbBeLrysQtcl2eUBR66yuxtLDhziFtfwnYUph7pU0xTbycJyXctuO5/OHx+R9ZB12a2WQk9btCS010gWhwWxoiVqEFwxbVBx0Nvh3lk968tOC844560AIzuLXZ8Ic5dKbEwAhRfZc0kvgDkC0adhJKSp8OAuJE6WElsOsHeyQDgABOWEKRRD3uUeMyYLahswYvuQhbUGUWDqgyRBq17tY/fdKtyzYMqUMzF6Zc7sNfIhiCDzqMRft/dPRKAncHo37znfO9Sd2BEUHDDdlCA7iF+h/QAQCPiDDicawXuJKGA4nGI9L1AzE0KE6+b6HZi/dvUhFsW41474tydkBWSnYZDoKrtHF2eV1uGsZCkXGllrOW4diRORiBpXjunDjmn/Klv54BqoVa6KhS5UHo1SvhwXBuZVUelQegBp13zNO+txts9tO24nK6vshb2uW1Gkxy3fPixcj8e1rpyLgs5p0ANrVO011zTWaeb017I0ay8razt1y2KkT+zlpouaMAsMDFEBNnTorIVYmKSKA4rAhAZeLCyrgDhcUZDWUrZxsvB8E5iYlgYSG4l2TB5gfGovifbxnEz+c6bAnGItSRh9XONPfBiHQO2lqZS1HNai0eTTmCYlSaKAnqxm8YNdNJH9AkFNOxiKLQF7AJk+Eca+OJRd7MwuibZj11R1UkeC5RXumgmFIiAM7H1sxH77Dsz/+epBRokSRR7ZY5LKNJY0B3n99nD1DQxxNNSZr3Ki3KkZAVg6/9VwUTfZoJIool/yQP6Iu4HMsmJ+BH8pKfC8Hu62IEU3yjZj5XIVn1rfowHKuh6qbl3RT9q9BWHSHRFa2/Z5PJ7T8+fW8GWEeWPDVQ6j1EqzUkTEtbOoLFbyJLh6QT0LlfGcIKE+brWGJ3cjv0tYASsgNuCRVh2UZS4iCRCQl8Vs2cvqQ3FWWPKM79cAWkAgUg2F3Gfg3b2BhEUz7/NejEx+VONVlqMRKSTImTE1ZxmeMZ0LMmVpBTH0sjHuEXuzvUyhj2SIXt6hsbxclCYvzyD7gCAVOYwAiUQiI4Ik6jfCiRBAzcmK0Wxdf+FlaemQE5pHxERiTUPz+g7Mf3r1FaDps2jKdHW8Mi6DSfpDjOFgM+mu6x7HsDp/uFsHx6zuy+6e6rr4CsodL6IVGBSLD33czpaOQMyCDwlEu+jHw20MZJquuaxkTFyGhFbKABxBwMbJEZ3dCoFu8xxFbdFxG0qInlRvmDNRxXYAtCxNWeWWLTs73LuwFbV2CTfVtOg437ff3xKmXoLw3ZWByUJfDWaSZJrZaBzTs88i3LVQGuutaz2f7fPbrOS4pHfhAWtoBdzAzT5J21gMZIn/KYPW813o9Z7yDKxU7ZlmTJUC/aCjZGxGDGYi8iBtj1MC8nmMPftpvGSNSdRsxdgkC0U96PTF3Zw4ihflbSAJbwnH4gDWZsOTjUROKvoRXYUWAgBlQJagL2KZtxm/A/OfXaWWjcv67nbLwZ1L8cIEyRHNIXg0P5zaL3s9wUqhduP+5q5G9wgR70PbA2Xp8OYOmTJ9nUM2HTFLsvhjjUx7PLauM3tZlrNU6yH84OqeCxgMHYYxUDzDVOJ6tfo2L46YCUVWaa1bR48fhLa1lyPrsSvBRHVXCfzerEnZCXrQJRjVbhgEpYDwIX+e2rS9cNnn7R24V3e6WQalP5It8QdCcVEmNZyYslTIuXBCBxYnx4j1crs9WxiKuByQZRSLoMvtco6RN5F5Yf23gAAHXztg3i1rI7juqTaSBXQ7EM3K0P2k/Gypk5g9qKRjCJRaGCI0ObSNHTVrmbP9/cnJ7JtMauCBJtSzQCeKe9K32e4qQ7WvSBgmnX6+5rLzMSH1x8oUkHqAMSgwU+Y5xOkXvZBwqUzqfS77HZj/8SpRPQuXEfQs94Ccd/3JOcipE6o9j0tQ/vcGbxGG9Bp4XhhX3kF/sO/Ir+Ipu4xWt6nCfX35yyI6H2E8xJnuSEfmkZbvVINkJlbK3dWkeYaMQwCLSf3fRU7mAQarGC6Ri92s2nXWC+B96Du5ykwilaZlWedluSbLmpcdN3IgBNc8/mtsUZq6SOzLNutVuU/Jt1Oans7ny817MARlxbmYRADqO5XBpBsP8RtOZfsiOJ9HQQCX1BCEUk66iaskTb3EK4u8PQNuS6UtmSOoJs2cAM1l6XTp5R6LhjIq76BNc+JEMB7ntVOa3fvUgw4lbm5tq/YiHP7Ao4mNMwa0N/xIlxZ/PFdaxF+02dy55b2bdGI53PwVm8c+s+gaOGij5GC3jUQeyV6I1PGurKvxOzD/y1XmJM8ybNvGHXXnREsneAmHx/BzMVXGojtbuUwpEeOgHxIxCoLvQF/GhQo0y0IW1QhrdAbnIQgsqxyWb978k8QBRg0V6WMoVFkYS/BVz3e+7sKKMt+QJsIsaQ+6y/Esr/kpFakSVtuScVIlmktwLbImVn4tnd1Z19ksZB2iA+U6fO1qAv4oy6jUmeLWXi47KiiOHGigZSXIlSUF47U2yZE5oixsUIrMp5VuOxIRQ0oDpeAHhBwDVef2nNIZIROUwJtTShQUWZ/gSzJrPTkKsjjkoGWKCxS3VD7jFLdlXZtJ27KPOTaOtZxlLFIRuiURzAJSIyCyxDQagibJPrTdK1qcCdyaJVVgf3lgNjzFrlAn2WHJmXXTSPYuVVpXX6vMfx+Y/3e1K+Gv1m5R2p/L+59jMfytZKmCUZG5cMQzVs3d1+IuaTOOEvdPlnGBIjEuI+9FEL8BxJ0fwSpespDBMgRFLGvj3WcakxTrusQ9JiGDo/nRDS7HfVw0OHNw4AxoCHar0PLHGyRQPW6vBMwP2o3b0+gKJKooP3583IDLW9eusP/sxQRicEkcS0kkdkcYX9IFlal8zcgAjqf2RlAQMd932epFdAgS/PXOwOydANU7ZDSR4q2DFZD0CmnQ97Fr2WmRYQEGJTtY2anbzOjrFUnTkvoGxP9BDYjQWMyCCmEJ+l7by14ETTqIUFvEyl1cT2NWsoD7MOYs6xYZlphA/7jTobW52JyQsdly0TntgixPuTgBF3QvEspTcDYrFFC9rvnGX1ytsqHINfyS2LwI5XXzTZT+u9r1IZGPhetJ4Qi0phCG5YvbxUR5paaP0w4XVb0UpILI3bJ7I0M8mTo41tlF/QLNKdlhEcCnsUFJ3iL+J3NQWGYLKaUSx/iITnVdAjgnKMkuVMwbRvc6njnm4cJ7COAgvx/kJj/r/fkaPDvIj+iq0TpPbFCy08ePHz+sRE2A41sRdp9YdCI4LXcS7J40jnkHVmHlW7qh10zjyy1AS7U/ycgIEbfL5Zp/ypKIKpBFkp4zEQAREK2QCImo6RxSJveL09OinlTo85mIHfV1kATqURFyI4jMeL/3vhaJOem1iEYwEu/zJ3tXotQ2tgXR1fJkLUiWtVlj2ZEx8/+f+E53n2vmH0iqwiRAgGJona0X39/inkntJbgFG4A5AKaE2ILxEkfbIP20iuLwtH8sINojAq2slVDaHsjzgcB8PfnRrzJc6qIGrIPO5H5paHwA3lVe1Vww098P1ijw94reP3+BqbcClDTicE87Wmlhoxk3suIU/AeZzJh0y619lvubzDW0t6E4US0tmKIMwwDLfU+hp8DFfCJdiHMmsDpRvQk3IHpD/u+H+INCqWhjvoXdaeculQ00Gfbx5AUt81cPR4bAzJ/ZbGA1h3qONZNlV99qqdTesdSvs/K7KKxgfn4Wn/+WVjr/OeqqOAyYiu4gs+xywcwJUyqIz7DjBbhwLz3KoipLhDO0Uf4Po2b0oW6GR7piLJK17Ch533SDAQbNJjpt1LnqG/wUCB6dD7Gqwf0yLJ/LsEWvvVGJfbjG8FCieqq8dcirg4xFbMQk02CL6hImPw84r9gXvSzE4YJJeUB+gU2hgw6by4A6yXMK/hByLWm3wXPD/IrCqRTzberGunNUaXb9gdWsNR49m/RExtvyGKnRT1gvu/4F5n9Ydl4plfvDyVBekjcxbbTzEWH9HaMn1BGZNKdsnMLtuAbfU8GrykJwnL5NRiCHYnwjPN1gfyPattij9O3AHcRvKJAjQk6CHauICMQWaXQ9bTh23ULwVav1hn94L1qeriirdKN8ysTBc1YRFTKh6cQRpTyKbxAPitN3WRkyv6vju6rJLKcFxjzLYqij5qNP7xBuirZ3udiweRxZxSjITNUnGWkFOSpuhREj6GZH3wOlY8xuQHXEjreWhHJk/jLGTeAT42Hg5aLFBjVg5YobyvJP25ZZFcpSEperX1Ss66WIBLtTEAB5LNkITAUrhS3/qZ9WToeczrLLc4G2bUEvDm9mBhSBOkuOu7pWINL++SBKkHsfPN/nTTkisICrr5Fznv3G88ygabM8oqBoaJAwqI1JbjTnnv8CU8bMvs2kHJ8t7Puk8RBP7gtlyFrM2MKu8b08kRi184YwLDW00DcTmKk7YmjCHLEAshY33TsXNO0rK2ajnFe5v4nX7XGqTsa7OWce3uurswpuykDRtAvGHPTQ6khRSmUNzQ7qzGJ7U+7xzZOdZ/2g+K5oikkchsv+XtQpiAiX++WwNhVL18KAiTa0gzC0bsTmoWy/ga9qf9EBJakqewminxVO8A8OVs5Tm+T6qY7ZP264Itct9bGjlj6izNZR2Qz6K2aw1Dk85NSBZD7gD8XII8c4PvlyQxs6kAWEH3fmChGZKF9CYi6XoC2INMvcE5mSQCydW5MMOfSrbV0Sjs0rFGGBq1hrUEUuGEiexcfQYog3zW1rI3nPGlp7gAxXbXUU1YZbFFjt9n2+9MzOviRp85NbgV4eaZl9d/4LzIf4MpPPhwxadd9w/nrEuRPXRCxYcJpY6WXjzsy0uUGRvJHpw3kzBnrxo6KMpgYd+x80366pvXfCYROi32ZmjVwfAByIt4Jx06xX+VXOzv3zIB+gan0TZ1EBv7TGxSPhSr8LsTXtR+FMmx9F4xnkJmlgdOq58bwmjnv3rv/idfZNeuSoh+hWQfvp7Q+hOg7Ir/omqbI6lZU0l4g4cGqVcRFZDwcUqprqqgzFqW1P9gOcFZzJtkRi6trzO+mSUNcycK7f0btJjnYXe5sKd76KvkM2UFK7jAJKbkCWYXEi4BjG4J2jkKQBq2AYBsVI93EgCBnky751E7kgHwLjRWsbf8NpONns+PrzgsBL5s+vP9jPLm27VFZ6w6bxcyGvfeN5NCcIn9GPhGRaVM7XAJVn8EeMtQhNetZ3iurpa9/Lxqnv5LBHPwZ7mFxS5M37kPlrgfmlo3sct+ZoCQ6UgQ1uVXBX8zo5T+dLmglMlqtWPo1yyXeltd4Y58G8xA6vQ34yfW+mnRY2Bkb5w9nbsa05w7EL8Yj4GLOS3xWbyvWQz5+7kmINgB8OSReifH0pdvxDic9r97MMQglNu5VvePxMqqyojZPF3usgbY2mOQak0PGNRDJZZsxzb/UTH92aW6uEUDbvFDRBxrlr8Q8+EHe3d+xw4aFw3NP6OEAuKk40rH3JDDNJLw0c1K1u5ozjNaDSD8Sjsd9WPU5KH0Cyo6AZmGIZzFkAy4hLAK89BTe220I2oHm9ypwrG5zOvuXpqBVtANCDjYqMx+OYxz50Ca3G4irHRtYeKm3Ug2vtxPE2cmdRLAPC21mB6XbAEws2xvyvjaBXGoMq39MjKWihhu8wtlVYUWPZZY+nlHcn/G+bp98MzK/1HbjOppSeyDp7IOVJTWlHDuxjlchqZRA0yxq4BvvPMrajUlkEgRuos0iClPyeUTmdhshmTXXhekcmNDQ7biCmYP1SwMAEMxHYPLv8Gk0v+uqvmIcniiz7bB45BUC0tBj96OyKnVAX88HWVdzAm3NxdepZnV40R3eM2eGpJJ0uhs3plAIbRutN88wKYvF9T5mXcr7jK+3tWR9tgpLoSWKvuYtSWxUZzhDPuKO9iotOHp37c5FvkGfJNWXkSInCWDPPYLQf/Cj4DNzQDBlZ6Ch7KIBoX7FpGq94uUF7BqCUn4G0WeYNjnKzTKQikRaFqyN9YEQ7D4bJRZZjzzYLy2LAfI0K337+WQaovwauanlOkQRMGyibTvFQGPxogr+zcNvXCKp9rRTwGNXSU33Ok9fFb5kBnTcmdFiroe35tcBE88ehcnK/RSGymzovgI4I/QQr95l9pC4kXcPi1igfHP90nTtxYcmnPWMjm2qyRDXEaNlwhQsvNJ47GJywwlxWu9F5ZaNqPSLG0C/7nPte531DF0z0tSkruRNqY16Bx/mQFAjS3vRDuZsZgkA/Apq0E2a36eYR0ODffnxMZPzGrsF/zx6UPIuVxyMosGk10GqftaXZUXzSz8+ePvd70nTn1EZSepDQBs4aMl5TrGYCsAbnzJCZoRNsZSANUySAhUS5aHxc56eKrFFseqpQ+bx5CiKyjhoEQ8hCwgMkuejg6Nnsx9FS6CCzboQfdHaS7UmwwgWyLnB9CswwkQoscfeCEdtYABLHEoPUEjbou4AyA6iVTHtp4+cQtp8M6hcOQgPtHKLz5VNvxq6XIzXC3DnDMqws/mqQeYJ1NnwJpQCjbIfGSr8bmNYCKtM4olLsAJ4qmO/N6RDjHwLjdiqidSXxgKA9HklmN5H10+Da0YjqMTMaeY/AtOoF8s/UXaFdSvkmJPKxh52wKXogXHrikknj7oxPDE9Hbo3oVOLTUUDhAAAgAElEQVR0hckdMqOg9ubJ7ODegmRLnKIeYiFPRaXPg04Fmvh+X+T1fjwikU93Wk6ecuETVFkznYndNclRl59F8VkeRVnXx/dptPcw9HVzg2VRdVQ0aAQoe7CCsDeqsaUFNLGktU5R+ozRKXQUN8PJQFJpa0551Kuv9LPlwDmeRqiYrTnV9pRt7RbEhR3kozDktCLCUQR/x2mFicDD0g6ya7fprQ7jNfc0vng8dBnnWKOgG8Yz1t8nExKeXNDaX0HLfw4GRHugBGUn5MCpmtmBNFsAs40xYfiCWxw0rZW1ekh+MPY7jQcIOy4Zm1BLgE5NAM5HtL3ofiMwybSbdX+cYy9K8+OfQ8UaU6hcDyjuj1pZoXjSSLo+/Py/Cy1IDpgmhAhMjm1sXg2VBObcqA+mgxNaYbhLoh6D0QqFFDdLnXU/9K3Txpb6fwqkkma+5lJX4DNHITXin8nGfURltROG5oZ5mLJw7yl43uXxAwje4gbpFrnt0fKA3CDwaSd39Ju1w+2ai5XMovgu6sLa2eP733/u+9Qf9zM1YRXGyVo/eDTTPPfQmKFoArMVTii4bS4vD+sZr8xEoUcSOtuatBysS9L6zT4Yk1IqkYBrCM1hrcTKzA6znTw1rWk8lVkYq7w0DLODpREl5lH4oND0Kq8bstQ37WOtOjW4oYCuF4KStW1obE+UkGAviy8VlfD1tLIMYKLf5axMygFfaLIcuKYFH4j8dlxdBk7CKNxaPqeJgIl+tlftVI101lMqYCaomP3vAybipmYxet4TYue3Ru1xGqnv00YLHQfrm4g37XH5Q3Tq8CBWENK4ZhJS1zfpx1NbwfhBYX7EB4HV1g4tbnPGwvdGtFMgBZ/ZGnsf8soSj6uT+/g+uRHAlfmVt7dQ7IshfpK5eKtKvlIvClya7nK/05Im0cEbZXIWmehjnuNulmoInTbX6QeaM4Vo53t6r2qIrY97k1af/35XoOg13Prc73i1IZM8d7D3mvMFlbQGp88qLBTaWVa2XLBsOtBLv5VH32eabIkF491twsMGvwEhG5sE+Q2hgnFPyRi9INIOT5PlQKfZjUUQlF1JRpwdZJ/gEpS9l9NoBGCFUZ19W3D3eL3ap8FuADAX+yJDflpeXhO18RkK1EkMvNmAhjULrexH+HDQiydtv1hGszCIlAu8EZgK4GWO6QV5mRc9gvilpF45MYtePn4VMN8UWOcE7BGQ0SdRTsX+Wu5cfb/zf/KuRD1tMwha+iUbXZGE0FkE5sr7P2J3ZvbHeYYk+domxGC3Zb3HXJ69ajvewsV08evs0i5v55+z51cuQA/32IAXvUyPp9sDZyRfCsAc6U5uD3f9SJR06gKpledlpwWwIvLkUkV/OSgQafDOOU2E2xHmQM42iK4KMtYDlDIp84tqENLANDclzskERrP8WJP4BDtJhoKfka0XVSpWtcMFI6r9GFBrL8Sy1phZ8V7Dnmm/b6k/UZpHp54p8aeV5icpe0VDCg35ayKrV0wBSlwYJpUJaUHrgTefzN7fhyxvA5M8U9x/slx2lDkLBWfabAs04SKvIEulmmSt2KQ6N3k9wjLypOwyfKdD1Dq2hBuOsnLa4h3JBtfjsYTwGztmMze6xB4LzrZ5vuYYn5OUPKDmHoUoJD8wC4XJfinzOHFARvlJ8KZZtnbiU9JFLjuBzKRE04SZyz9VmF9OAMCaOHF4RV2wBhEtokxH9At683sLhT2EH4LwXHLd7D2PLZAk2bGfKHfGYmcFgqnXRuWrwy5Lx9vsmsAaFj0z7LKACxFhp+pi1G63AFC5fj3G2k29QrguLUjv26pgTYAopLbJaBm2wxM2xnN0AGJq81n8Hl6GZH4ANRfPPy2jbd3M1EZOXngk7H48FvbcSRjnqGZq5Qmh2OKr5ghvrba3b/eXy+vVj8Xnr9frdeusVQ7IvSrRStteyVd4AFeg4ZJAI0yie2bzblYctoaHTbyvc4oYTzS08/PIyq8Rxrw2535SyHWwwbLIT/0A+abVHTDEoshOfgTKuVk2R9tybZVFGMnpgFLjBioCH+h1vdVCluFoZM/NMtDhj429EuZfFaaVL/Ql9rQDcn8UB9Ec7ZVQooQ37StpEptZbbGFBMx+JaKgFePJRt75SS8ERv9uGVgNufzG5IyXqC47XoVCCw/DKv4vUWEOoQ3nf6gwCd87Y5uXnlDLuJ8xb7ighpbjqlD+XXSdXXnGa6y0eOzhmimogrVqEzKs8mCHZZ/iahXDi2uYcLAN9r62UdK2T/Zkq5z6uq/Vsle7Tk/OGLIlFJ+7h4mPVJRJLdMcKsTK9UTBPjNeK5LPGFoJ8fQXDS+/YAGko+0H7ICgsRbcIev+EYHIEDhTMVLRlY0nIWykk9LkI1dvUXlOcZx1MryHdVg7vNz6MUEXfJUXa5+fv8vd3lqfNzD2rGWC3z4gAYmYJhjuVrwQk1lpXmyitZGWb/Vtq0I/BCYabLS9W5PhxKAGMPeqDDYjNHM98o1NeiuIemla5rQFy3J4B+XWwpLiQLqBlW0D7aSNpVZsWRmqrADaaf/tugGwzLACK6lqAJvHX3Mla8pGIi6KTTCKlhd7Kbhv4URrnTNdUwCb2DPl3Ml8PpyzRP6BdvPZ2NdV0b3kyKDNY2PfUMmhSJIa2nFu4UF75oDxVoGZgX5KmGatZU7/StoXh7t9ireb2o3C11B7q/TIRyF7y+4ub05drX221Ukn2hY4UjHxKGqvb92px+dZSF/HnLnXiw/NnIptr7THsa1dgXIGvaCNrnB47HYtohBZXh8gGD1Iq+WH7KDb8Usl2X3do3ZYVsf1rjMOXQ1odOk2QvTF1JKocKpRMSVM9+L7Auehjh5c/fTGSYSYLNHn7QfmfOtUoJoehnayuqwwqVr53X7/tuZpG+gFFPeexHYoNjFE82gLfvulvCFE8HYoigK7ZuPAJrXUSApISJINUXqyJroIaZPLqxKarTxj1wMVHUbUhDtTsV9tjG1gc3va/gPhtaG4kv4hwD2rQIM/mgpZvWw2PnMHPaY077F/ogSB6mQFW2M2F1lhfyYPoPmYOZyS2qZMok/T0PRSxD2ecjkBVEBKcBsC7Gqtle4h6JBcJoOr5YIiwNAv3cUzkb2sFea/IJSmgHhyvDFW5Vq/x1MdaYB9nMmkQYvypAywzoFwaOYVG93GXeWbn2kVy5Cvs7BEm/jYUGGXx5PSMoZxwULZkjDbTrVLqFmz9pjto5JT8vsG4c0zqbkjv4jJm3e36JarGRdnkpOHbrr9TVBkiFyA4Mj+pwmfvMBGQZl7q82VisqQV/SFwjsCLuDT23Txh3TgTVNiFqdKTVK3AMUsL8Qt+z2Ut9ftd5ncXheIJ6xY4a/XoTKFpQ8wJamwhsLwIGPaAiY/DH3UUwa6x+UnMQ5gG5usZb6eQCWwerA3fwZFGTETJRmwHEHmyw8g/oHBh1XPts/mP06hCPacG6SE4FlACaGXVgE/wTIHoHK/H5zYk9756HErc62aRZowCp7fQRr0YCv8DWMzP5z+KCdSkMClf4KPx28QBG9sr015nUqPuP6WUfjdBY8XGhIfZJM/ClP/Kx5/f2E+rgpsjmXpAITLOGJZkm4zPsjMi6aoPM4su4+1IeKSOojKBhYb5SKZ8gM1uhBEbHeeWfvx0dYLsE0CozRpEkQaFgy2oBxYq20dNRSKIU4r8ExQD5RZi6+pVYoHw7QUmaU1U6YbIDHgsZ0cwuvbEky/eXyRYT8hFR7kVkEnrBNsNdVPulfn6VSg+kzjuzzVJK2mI6x5Xlxh3Q267PRokbDbg7MX6p6Xn66ve7p+DTwNDQNaZ3UBxf2GG9Aha+bv75lMPScAaVjV+SesHp1HIx4rnsxXSvDfWErUW5ZUbOIKVNKSAPBoQ2rOE/UXOy3OqPaqtommubJX7nN6f+IjrTw1fIqQzqWRVJ8CVWU9GAQDK0x4Gbxl0YxHSUjpzdgxOe9CmEIslZhqRSdpfOSa6zDMdtnF+49jJvYX/j2SJOKcf31h/gla6vDKeVD5xaSfC9Fg82yns4ufF6WkYr1c2np//5jo0cMjEI+hE9g6wCUo0HJ5mLwjrRit4sj2Wfbp2racfxndpoMvctHBSVDml712SxPWMTqaLAidBikert40PK7liaCwSZmbr9QvbtvunZOqT4zB7/h1TrQfnj3PbXMnGRaRmpEOMMiWElYiA2fbMP14FrtzLp437W/inlRiyFDohY50l8FeFolF4XKpK1nU1jRuZGEyRwX8WVs0yUYob9b+yvJgTROmW0DvGXCQ6FAr8O+gutzYhPAOp9EdfpnK2E5+sRWtY3NmYaNQ1oab4f2bnXaT9hJPtIYJVPIEKOU5W4MjS/2JkFq2SCjJgF42aIyszRl74z1HadqDSGthJB90J6DFY5CFo0LDCVjuetSB4es4bFyFrbuC+eR5CGqZ9VuQKvZ6hX8zgidi0/7dhfn4oak74M+6tB9nBpKzHGtZYgHceyu5Wq2XNAPZef1xnp6Qkxr5Nle3Yl6cS6tLi/tM0i8LBD8rv6ttlFdw4ltxAN39n8bd/FimK2oRJQ4jXbSOvqODO60Gax2L9Xfk93iyGH2qqEF2+sGHbOA/mMpwPn/Iq+/MAoeos+7dMZbJfSgtGBGAHHZBGlW9d300rGFxtnX0KeHCylOtrGy4nvYTqq+f+nC5DQRTXl1Mk9dxtuNUy1VzCJcE56ASy2ZZplg2USCA5WklooEPS2d1gJ5ERec+zdJYOkwiApAVJnTPG4h1LOQ0A5Hu+77ZlkkcciZvzuq4pF888Awy8PB5j1Zn91R0IbxoQwZEMxc5Y4VgkTI/rf7mZrbC/H5aRf+Hwpyp+jo6zHm/6yJkv8/Jsk8LG3SpIwVdHuZfDOxl4Q3vwoycvDwRFUlbaFd3f3Nh4g47RVwyHnBWza3LHtGKt4XASpe7KDCpdenRFhr4ZOD/ba0ROIDzQ70xsZIriW5n6CfdN4+UoYUWCOdFEis0zRbEIJyA+Mc470qb7ZpNJEMiJBMH1Teo+r4+8Yq8Etqc9LudkKTrUIg5bPQpqRdqpa9fPAMJTOF06361zk9vO2X49TJ0tnWw4mQKRKSffhZMd/qPq+cPqVaViW0TntK9yO4gFdxugz6R4gHij6HumN05wEWIBQwWbVEUnxgAxaIFoicD2vWUeSRXHgXNJ3gPpNKaZDr4oIuyraJjojCTvPmFBE/QzWfiiTYDO6c1hSf1tz3Ki+1xm7/nbbMae1qDtEZbeXbQnUDpEXdjiqbtkwIJ4ShrP7/lkKc6tJeHI3TDa5AttPb3orEPBxcwiPeL7p7Rbz09MaiUN9lE51g2TAZ8VhFUCXV3/YsL012SR7lZOL1N555WTvswPI0g2glk8jGohK34cMa1jyP7fHW9Sd16vpx9SDcKKpEvgNBDK9Dz1T9r698NRmGLZCO4FY/Vd7K3FJTIvITjMr8aSKGms/yfgbrSVU9fBICdxBtljScmFSh2QSsnYpG5cxLu3D1CduGZ9qoshQ/Xg6NX+tZIpaaV56445L6jUVunO+3oJx9YlizvA+0Ud06s4+1I81RSCpFoIF023EnKjvXaK3AMg3FPXiBQlKEk3wCrrS2aONBmsIouMDnmq9KulTlUuDMIBBwlTqtHCSmLcl1pcHdgK90Qd+k+BFl2OjHU8jnPaWoDp73+8S6b2eORZvE2hv6yXxWf1hStDVp1AgP5n7sr22ocS4JoM1rR4mtZVyC8YP7/FycjImWYep6HOdTpbgrKUHDa4dximfI6OzJ+xSbFpokR1pRAWzcVbZ0Xa9fRxwDyzDt4QZCIGfrSslhZY3kugdu1gfzbhtspbY51lsEOm8sg1P68EO1ucEbeE5gMqXfaLGJQ/iowvz6ESBK/tezhbEZXD6+QzIXbfSiSbL644eQiDtBCawF+KsTNeGehrBLAxSUjwYJVgVsnpxjgZoIp84v0BW1mrY/V+eOiMrwoi4O98bz1sNOnPwiNLdeYLa/LkMmDBOY/C9tqj/j79QY+kAAq2TItIwfs08GPRc5rcDa1q0TddlpSa6pFqa1RR4t4KloRtOLqyPpC/kH2AYWvzvOvBHPfCv2866nKvR44WDHEUJm1x+pwROA14YmmOWPb/CmPIBTNGoWzqpAVmU4laxCjD/CKFMrApyxEytjqKIuLUMxBP2jqAodRyLngamDlMDZ0BoLd6+NqGOnQcILUU+T2KlZzbgS27p1Mfqb7eaoqEGHxawq5VdsH9zf4O88YHCdD5JTeXQ72wOXkerWvXiXBGl1IVTjHgpvwQGIovtR0sJeFCjVyopwmFLkE3wlunOhyGgEz4UpZAN1DA5lu25/+JDDRT86KXHcTnuTnGb1t8qUjqU13wCgjD1U5LELj4ubM/NwMJFhnBsn3w8tq3LQF/XhGDLn/siSPvQAo8BossBzmlLd82ZPV2kdsmYZ+mUebSMUvCqQ7YNoc4Cnp5ALx8qQ9wNEdrzRK7NHPuAM2BBHesaeVkSLL5mIzpvey8FFhSLVU0bMbrA+0vqM2Wmy6bPxxnAWLxzvW3xbGe4ur2nn6UFFFee3RDUNY/fld3uBLO86+CepvR74QZNxMHnHSxG29PFS3vLQKptBN+DMDmElqrzVNcNcsrmdIXV/RaDKSB6kf8NWqlbNQkH2AWoU9jVXLMwXOWOqUeOpz49ql7HDTEkJp/iOvzetjgjnCqvuNzYSoiCiN+HpoYHEgxWqW5D3cbgyY3EhNHWNtceBkQN9jKg3IKamDyPe1/+Tg4ef0FkNNjI10XiqS/C9+hsQDJIZs/IvA/LJniG4KNNJlN5gQZwBi0rrpxA8woyAm8g3GwzaetoEySg+jWL54NcHDljZT8vHGYGP8oYRX7i0g3ioPJ7My6EA+gGsPuAczyQhwpaRSi4Q98BkW3UgTuF8UcbtkiC2hkNqnS5qmgtfnyx+Ck4ZWNCInPKPSmsOPWxtVjHGjFI02ta/yef+QVdfuCr0p9Hjf5BgapRvMuBxCYwtwgo43n35D88eaducdoLjS22Y+jltbH2zWBCXPPgJfhnH8HBDZjss6NkE4m2Dj9EmbA+tnOTdOWOMkbWx22zzZZlEqosP9RFfZJtnjqfHEVssLZAErCAbqVrqBEFdrTgzbu9Y4WwPbpfs6CNDhhsfAZp1zar0tPENSakw4RGLUJBEP1iMouB3b1go2IzqN3EGVOFu1dGCS8AOaoJVX7IfJmSUJgpo2QlJGR3wbao7ShYfzKb/27wHzi7INxkitdDNsffuKp7BQqNvCM5wmcr0JEnX8kXrpiCnMivUDpPR+z6QwhJ/PWstL/mUHplVMkPvAd1+EdWuTwUYwoM1uTPmqrGh56W0D10tb2zBHssEIiQmP6ZKZe6bysserK/fsUW/Zjyuax37iKF9keRULmCicsty7vIhnj6AFxZWhbG6k4jEYc3yua1jWUNQGtp6D66yfFdO72x9Cwun0ewiFQbx9gdv3W36z59/tGwrErGemqzW6Q6ZWFiQ9EPTIEaKimtjMWTTR/iVIClLqAdNmaf9KPCH7r84ZO5uq0jQc0oJukR3wa71klQqY6G7zWg5B9vGABjUVZOFbcMcF5Pp4vHdkn085AOpKT/qw65eNtB0YsgZUasIolpY7EJdGj442XlgHVzrr3Pkoe0CCvx7s+uKJRxkkZTIDo2y7UdAQzylwY/9bwHw5qVdNuGffuzyS+7no0RJ2tzlUKSLEaIXI2tPKeFmFSUcWbnxG62j7/XAiEnrY1cu86yuib56Xi+SNjEFoMZJtswKWeYlpqRFjA8wILmf4yAQZ31c2SBG9nAaKnGODKok2Nnh1hDErviv9PjrdYI27L7Lj0q1O15BhHL58uMb6GXYLlhPBtOlQKfj1WOOMXACNvWQp6Gx3Xq1jcPQ+9vRfqHRbPrz1rSsk1XlmIGTQ+WgfN3Qa6kcbEm9QV3+KTyuvA5odUHk10WpSQmaGsa8ipBJSPODnbCOxZEnchj2GXDrnQx6SvEwPOaGcQgeKiwqAFarOPpNhexCKdMhzQPt6Nmy+vyE3CK8KmHclTIG2hK8IOYjxVSdqA5lAExMzuZmVSTQ3vlgAOV8B4X406KORbcHdLEbNxq3HGq5mtXFmYC/hSU7eXwMm6mWUKn4fHxNtXfH7NvgKNu6x7D6nZV47yaaJpKcuUlPyZhh1MAEDRw494p1bffNMDrCFGDDNW+bypWCD3bmd5xAUcgUnkIUOrfTpwsbbHkZDyHZvSTVG4tblZrVRJC5+83qIlj+SEUUlWeGYyTwN+xH2ell4WxskrmaHzch495d9RquiXAKeT2di/oYw1aGTWXJ81PzPImi/dz7hOQ6919Hh8wZJdV024OvRikRbXppRDRnIQPbv4Ksg0ByU6ldZK8ltz6pSWbhJwLrut0zeSSYHMINOoF5JK5JTV2w/88q+Qi7RmGGwAjAxXXaHnDZeNhdOh5K3TMSTTVd7+37t5Pc+ieVqrwMT6iPBaF8nTG8deuS1c8L7A9tk2ufBHt6wbV0vnfZI5LunaoGTlQfWFN9OU3tlbJ5Tpl5+lLGtawmpP38JmKQN7NxuBpsqg8BbVoVCRT3/mbmoeGLcxaRA5qPauCzwHN+0A8LClGrKbew3DxDapEGJWtVsi4cHMTUTJh++EZLX1cB17Nxvu9bLh9feZtfL12xl0RPR3Q+Vf47/QTbp8tiTtDtvSa1r2Dc+6quzOGQNDTNWkmRoPcOfp9jNLujjSDbhovjcD7eY5RoI2Zc6Zv7gkg3trJCvgX55UHKN2tf+swH6ta3FB4ZhVoIKfIIMe7fvujp8l81n1sKVlqRAtLVkHchaDzGAN6he6B1U10WZJsUkpjigGVYNfNj7TKlmQ29r7c9LQyqU2DWBgEYTGk2YBeUMUgdlDuUVtB77VRX2EX56l0KA8rherxPXRev1/SwLH/SiNjmW8DboCDz9dVjqToV9GfwDa3ZDfHqYVp5hrB22v9RqL78Eyztm3SJOFZXcax0KBqkxeVBdbSETA9ZNLoBswrT/G69/C5hzn7F2KI+NcRmUE7F6FKFh2rGcmVQhUXJ4uIfjKd7H1jaEHt6xrdy0gM81bke2sL1sZHWEIZF2Ji1HwhPJUpblBVzSDccOhs1SNcbiN/R44UjiwgPOvHy8XiCMhnq6RxCOAS4tUOMDyQTJafPsICIz0x0zasbE5sf6a3vJyLavUwu/cL66UK/IMFbarHp3q2jVCAIuLycn3xtjTUz7b1oD9Tpt4vRhYJF1JSupb4ZaFc8fjju63X0b6xS+09xmQOjL/CIZyim7VW9v72X9/V29vb/XvgEGkWEYfZo9ygCBqguwg5qyTmoIlentESq3ukpp4OyDJN4n9wZ8VANm3kTg4E64lDAYWKGqbABXlUG+Slmji+WOnygLhAZeH0DZmbxZiNHu5OitjCnBbmeVEsYgSVFZV9GmC0btMCMJkKqcydN7PMpixVyJ74DGYHBqMPB3HsmQgBFLno8zfhrn/wCUcAakiH3M/jfA/H+JOVhmFcXEA8Bj6FsK/lePR5PRaHAKOMJtlIrnDS77WJp6OFdv5FYUci248wwkpDN4oFUQWCtb5/myjALybhs0fyj5WdMnDvB07sJ9E5tYhx6Xu/L4IIdga3haDUUEASTozgoa/BylLaE8c0h8YZU5t88+z2p3UYYprL/z6mLbICYgyLKf6FTh3Da3sdz2/Q0w6aMkASgbZiFH3We/L4d4+QQbYW9p9/72WT9P/9TTRWz3IzxJDogo+q6+a6wesVrC7vdovRvZep8k1cIioYFq1AZOegLY01/brInRz6LnAWhn6a0w4BkE7SsmSYVyWeR5RVFlxdtLciQX1qptaaCxdrb0z8HLmD0SlQ57Glw/z9BhlpNhJ+ekDgcTVFzaOFN6Yu0yiH4hdYt2a5trUG9ttHycO+t3S7hc8kpCd64OLy9YKBc4swKHddI6Q7aAPtOKwq2Rjy5utsBlNvwhobThsk/2UshomoLApEO3AFkotW19zpgtrSigZpA1AJasbdzdXEXGAxsvRkOhHNRF27P5EL5ZCwwtYQwtvyB4rUISQld1Tp2aMekd1IMkP9MkGnMht0xUW2KBS9+fZc68n0V5hF2+va62ywdZheLdY2ncUryYcfC0F1j7XV0noSzCc6zEqziqb41mYZ8zfSEU5BhE48q97M1MD+sZscfWFSTzGtPf+GxuhcvdmWBfBD2VnnP/m8A39r/edQ9pGylvNYx/DJsIu/0c5HkywCjsP9xdiVbjSBDDR2d84iOOHTcJJIad///ELUllM7t/MPB4TBJMYCDqulQSMlp7e6LoPGcNP49iM9dGcpTVVuqSPGMIcTzCoHQ80pCheTJSFdbCZZEzlhpwqjrzFTEx1Q09JTLe18XiqyWiLRClsQe4BbnlG0s+JahI7YpTKldqrkGTy4e8FbS+kJYM2gZiUNiXB1LYEV3lNpIy27pbH039RhHbafC+wk0IiSxrSoRLwFWswxonVjb8HGDeLjDWAOygo8bpwSRgBgEz8e4OsUmT45WhCwJNzbpXYSsfzDgdZAopTaCV2s2uY4AUtuMQEmpcriCElJfiPbRR+KTn1kFUBe/uym0psvroQ0fxDLcgorodtq4vXPRaz80+uNGqqPQP8Yke5eiddoryTkcqjo7zCQYBMkeO6mau8BLHK5b5FN1w9H/E/BXHiZa30CjuJLoOrnpDdvu5ppJip8JzOLh5hC2UD0AaovWft4P2ccplR7EatvMfE86uPz/JW3+Ck/f+z/Pc9OosdaTQQtKRopdPytSCflBxeLJp/rPFHY1ECvJaDRpZ/4F0VyH9HAlMqc7SEAFQIDMBiSkENIs0T3mjxSZZxE7osq9a5pxrpEUBiduxBc0AyMdkZWx3ZS7LfEEpoko0VrdTJqyWzdoxkHMPM69Qm7ZEJyI+AntJ/hLkcqes1tSELQND3Y4AACAASURBVB+DpFN/HJi9YfOnANPCJaIfZ0IuiYiTzLut8Wj+sOGzoqDkCxuRMjBnlMuFT1QohLW64QDCJxQ56Ngzq3G58+2cIyAfd1Vv5KWyuLzJtP3l4/PXh6vs4XrESVoq85vBbebiltBkyF6ooc4fTix2IHLNVndmzhpXeCcuhXFQJiyT9fYVSLNc2ZfDcgh29k+sNwXMiZXntO4GLR4LOTJhetnQmJYDVBpIH23armFJiJkkRX2clqCY+A3MA6l7zXkg02WAoA/U9M9n0kikpNfjiJzv703z/EdWuerQQu1OWnSU7tHJA6DEWJ5aRU31USM7rchuKy5ZpVCxQxcX/Ra87qsyLRfy7WB9krr5HgYmY7szdLBhU/CSytLOUfyfTbtmANjWfrk9gkdrJtZQAJosTT6VhkigMa9TXDNBecS+KOz1Pzn5eWDLR6ks3WsxhlUuGxAxmxX2JT8BmBaN0NCJwlUdCEwIr7HiDHFyAas0qpqUQL/as7sdVJBWJGk97LcYHCwlQjst2l34A2fi/DSUuLzIkAcwmQfsOFN79oNAnClFK68RLrnQlOjS3bhYee8Q6jgGdT0+14iE0zN4CY1USO1P1PmWl/dfV3cE5zBlZcjNNKfV5iJmBziy5ZUFcyuUlFmFhF6SUWzQQgKDdL3b9Xo5RpPgGiC7RNQE8xyNGEuqvFerzZFMvpgqSCmH13fzf/q0R+VJyAq1f2qUXLy9a1VlUhPdw6DpSQ8dIQuj56dU9bBTbflscZL3lsR43LuWaQEkuhyUvqDZMmfEgCRXzOS4IlePJQkWKr0GxeyEDAQ+QC3ZdCzKEzTRsYiGrtApr2khZli0b6YcGj/Igv1M+k4jv8W6SyQFr1y2gtG2bZd0jSDNFgUZhBEXydmIdoBO8gERD6K2YarJpEBPFlY2iJg/ApjQKGgygRCQS9ykxltBa5y8+xN3iTmMBgmOjNeEqMtFBif7jeP+fMK2D5rpbfvAHxBFBDJG6ES55mWSh0av7uusKeHt5RcNujAvdItbLJ1cZIIHDREuPWf6CRiXKX1gwbebqYhOAvsdSiNUHqI5rYxBstUNau50yyKwM6TfYbWXxK4CBPKXNhXt1Qt2QnAy6UEH2hg619ntxHBeMGby/a49Sli4g1NNrJLrnnHlGevRvgR95kpn94cOCUFMUb1O2fH8v4EKlUkwFOWEpMfuWf+uhWpGU5+eEKRUpK2wFoa2aJy4iTzKWYuyzdF5c0G43DTWEDCnQDgAh0lFXfekQuEJqkEJVfhTmVbawB65QmaXg+hXFeOGKcpooGXbZ1P6nPohANLslKpuH2NJPXioKyDrph8uW0UTqHkWGixALCecBHqzp68niNpyTiK2QUq/690H1FPZlx8AzNvciFUgveDMuXZBjVbLWoPSVAVHxgztgSUEZuIdWbuupAC+AfHtgTEVBsaPN397PI7bj/2+lfuIPtOqLHWmmjQ8vz6kNfKhJcjbVSacVxHi0A6l0txewILH27n0yXVftKYSkLddu32IeW/2VRlBO3O/d9eedd/wCdUXgEmFA8rSwCgAB9C494HUUUkoeIBgLp559/02DNJVPEtaPcPUkeCRDZh6qtTy6bs9RvYaf6q6VBPoD0x+Z8Xy/7OnQZkJKa9OQiTYEmNjdgcmalES9SATLUYTJZVpkBnVlMF78DZtKtKeBpgpiOqck5EnXiFJFd+vSnM6Xo/ouOAUgzvDSFRW4N1tZJ9D2afEVLRllA0EJZvC5D606LzGIkHnW6cBOL3waEkj/UDHwBCRl9iR5om/anZZTauveFnMrHWEcoLCRwDM7CcA8wUBiDVblkWeRYqKUR8sYKRRbB9wxO3XaH9dB6Ylp2S0y54wYEj82FFnH3BHtx5C4wFO3uA7Zldvv9+S+zB/MOahX0uhkRcAk1ICdh8ar7fLB139bhQfoUKYgEZKOkFmwRFU1pmkoOswIIO191mJ9bpCEStbnQfoatXMv+s7kwXZ19l5LoXzib+WEN1RGdSD6LKL7rw1TVBu4HY3m0AMnJAQgXy8E1Nq6WiBKKi+7NB7pOzt+e1TUheBJMmg6LpXmhcHpgLn8VH/oiStj/YsJzA95yqGSUqRIJsFIwgtoBLEAAwiwUvdxMtDHCtpTBBdcCRWBSMgJpQIgIpeRR5WZY01bVBC+uRFBl97mAIn4AwVAGZudamdyJCxtRSppRJXDDkK06DuLKYj1cTQHJG/2pOSzR753coC33dKShgqFFVeZSQTsO0KSCYu7yxSATqy+Ksgulfkt9sP2uPFMNz+emByZZJkNrwyuZUIheRktHIS8+AVvcoGYkhT3DAwgSgboyfrS81Xtm2KAhpx9/v3G4H5pbj49rZ4qHwVXBFKD3RCBAZ3yvvlNr9gFxqEdrpRXqn+zlAK7dlPsoFI1rvQCPfadIcIPPtJq+v6eLJ69yGjjBIawbSht19GPUw3dkh6tnpZWdb3S1apvqagAdKjM3IlTTdlISd7ubj7LazeBUJFe++OXk83yNXxvSLyuBF2TDJVfQJI73AZoIBQ1sFbrBvue4k5c9+6O4SDLvP3s6tRC+fNuh6k3o70mDMgNmntuRkytXyCtc1yt2zWBo1YBuTQRq5uID5iGjKhZ4T5xLaMYPlMFTNFe/VLDjMX8c9wU2mGokyzGOGOm1ogfPWeLbXVWU8aZArU8NTDg8gXH0/HZfL9FQZu6szaMVgRe7RyZ5+JTHuKcCVSQ4GSX6oIudN+JvIL6npt+iHpP/5yYN4ULjN52bPRKQvERCUlY2WIoP+k3haLDKvfuS2Q+/WY4uPLo6OHSdxcUGCCmkyAvlqteaSzuKlPcjfhDenvxIJy9v1LGeaRL36j8ghlnHc1SRJspIog8S9AUWI3GZddVo4zxXuHhpeqWl980RQ2oznZ5V751n890VphVeIkBx6svt0n5hET6Xru4whSTSreXiLpPwgVcV4C3yGFTsSxRrIDhA2ps4OYO6AjIAGFVe2Z5nsZB5MN+kFk1jJdPUaZ+MrL/H+WrbeUuK9CF2tgMkG4xGpL5eYKldQOThjkU6mOGx0tx4oitwtZKTVDcmcgyBSeVLggZk0dIM3H5g8JUoaKFOoJlivriwC+pY3LzsFbIFlAdgBqwWKExon9/rhBZj/BGl5Tt3pvqW5J1a1QrxJfJzBFxJIMIVaEuEXK8U0ddosW3SP7IFgq2yXD3w3Mz3snxbE1c1caicQkpORtI+aWJHhrT+/bWkAjTcwVDJ5xMYTFyJJRlePiCevr8gV5xYUt9cfSlmP7XXJum6LqAz3Obc9tx/WuGgtGz27k7H7sUvngvNLfMNrflba0xkK6YAL6Lg4REGbvUpDf1X80p0HKDG4czLzskdx/A2uQdkVwjxLfvaWyXyI1OcSUkU7J2x+a0RHNQNoIUWcgk23fXax2ewjm7f15p/743rM6qk0jM0wsb8GoqnH6gUajg2sfcAdb81IXl56dz86h5z5nIRGBTSB9IMGdJtVc2CzZd2U6fvj4UHyHPRf0NPOCkpYjtbpYaafaUjF4yAhwaUs3oh4tstZJsCAZuQkKD0/7B5whBsxNm5iiL4AEnxdTOJ1Kqy1DKsX3NUlRKWAhBfLPY67kv1+Vp56xPcIVNfxFSAdp6BRhSe2+6sUJHxeoA85ieGU2XdL/zV3Zz7k7uwiOTw0gHEzxQ3DrDJgGOtJGg+iydleqa0kQLjHYtMgHgEW2t5EL2bn3KnwaMA2Ny+trurxaidOmOayFWxaWj70QJZrfvvivIJuT8XYRif3GTcxf7ANRtd2NZnmD+x13ixVZ40mtNAlIxI/yPm9kswKwcBFTuicUSgcNl4oKFY0FrMimY529EHE1iCUZM9q0sK9CxEyoyOok2pFzzjT4XPNf6q5EuVElCQbQzUIDQmqQMMiSZVkx//+JW5lZaOYDNmLDnon3fMcgqK4rD6Jz3WD6sneDewlaQNiyopGXtp69xx6h7th39icEJqdEk6xLGICEIVD5h5rs0yRNhF2ja6+L+8rHvaqO3/JdhBxYZHZ3ikRbYhPObdMeUZSrjVJdueHqoQHFKjFUQ1Z8xl1kLzgLLDT4i3iALUFTtwN0pAMM6S2f0mCX9GlKVw5isOQFQ6Tq+xui6rGpSzxRAwSfUUHHLABCKMic7d+el+7CK1o0XDpXfr2Com9ZMHdSOgUPqZjhqbNCqPrF65Kfr7HqJLHK/govWOn0kSIOJQJTyzu7VbMvTEqtRkSS4gLl6c0iq1XEKPtL5j+7rQOgV7kF9wcbsYP1LPOwLFdF5j4RsqYUkTkcBn1iGbrbrmMgPSDZ/sA/y8mQnzK5Y446wxrhJq8hav8wBpHUMTOmq6KzStymrhOKnXoKUunCdeO+cgxLvOWt7+yYuq2UNodeG+B5vPxNqqwAy3OhMu/oWk6CblzucP+h3CiqZnW/d8Vk8V0pHyr09lCCTi1V9o7jRN2D03vEs3+v5GXtDXB5EVYstzJA0UtaNkuFQ3NPsF9g3uT2BBi9Ce4o9k3fcvGTHVEWF4t0R4rlxTRL1rJUaStGmIKyTKV2vBacFih08gQfsipSOwyc2VgJjEkQkTskqQzUlbVidgkRuNywdt/g6HKQv7aHZWjaw+FgmVzn20A3BpyRMod2l2haSu+qBTJ9x/1I5JIIH+ugdvYf3VqdfnFg/ud8tOdVSwNaPoB2yb6ai7xIRE+UKRoVk0Tm02IEjahv2t9TV019GGyP69NCFFXMAHaPdSAb8dLgRgzLI+frdc+a9hN6z85X+7H33PaxrfKKlk/fp1uz/0h/RERlQNp22VtX4BspXcJrAhq2F5O7KxyAz5MF5Tdbw8aO4u8UkyYakS7KKhmA/S1YCXuniSXSrMyC5xkP6MyS17k3e3AKdkBt28+zI9exVsM/DrqzqM4QmX3lmXP8KxTEVcpIKby/uHZlQJnyUVtarmAoVXtysYmcH619rGHpNx01x/0reIlN5puwCZBe07ottYDBXJu0BASrcCWJg0sRu0gs8+ddCFp4nwa5krNmuxK7Jusdm4zOM9hLCdJ1EiXsienPRqheuTTZaqelWbsE+o9WxKHl3thydBmXurEm1RH2sUiSWZe7V8FtpQJT2+ge/JKZ1ExUsFzXRMVllO1QP/5WSN7PxS5U23XZPRJvR50xgDXadc3DvJYyR8Wp9K+hgOrElaPJx74c8Xnri5LaFmXLi8Bkax6HpR1wX2A3jC9ZYDKjQoWNP4Iidlle9hlBmfVLl9g7dcTFuj7UaAp/R9C6A0kRnuwzK2kKrX2hnrlwo5JiX8qqS+ZSks62FPpR5ctv6TjWEjccV1jM/h2WkinOih2BerCZisMzMyzyDiko6rvX3Tnp7DA9d4uv7gGZhm0fUHk7ktbe28WBiNo7XfbJjxIiYUIsZgtA7SrFKCrWcfTa2FqvtiaGlqwyjJUQyu88q8CkNZE7hZERRlAdJM8xCcLqeZAV1+aiXvNs8eI41BQShATAn2R2pcIrUlhq4YoSgqVkLkNQL5OCOWRrQIHpsZ9CU1OuSTogamgLmJZg24Gzv2ysV4U9dSePFKbLytXwkiTX71Kn7NdOqmK0s6dWu2Rl2W+W1n8c/0eB+X/A4J2tUOvHCw8iGXaxZovcgWxPWGzzaUMAxtjz4CTwJ8pt0h7djNhSRA7XA9fI9fVxYFdpHeULLabVphabaDURe7mFoBqU016MZohz53bh+NZyKgtcezag95YZmzNh3lSolKjHz9cOa+cEaHQ4AZlklVzHaHwlOjSI3r6aZqUOySm2zKVGXGuapZHctZy4hjJQlWq9R9VxiT1QKlZA4LpZkGCQjTeApblgEdloT5ld1Aq40yhIEHWrZCcAOG/95MPFKd0nROS0Cxow+cmrFpGGae548mbRpUmYOLHmR6tKs7n3lwGSH/vO0iayIwe5o1Is2WKQBGJGhnUg15pt9nIWzA/7EzCnoR3Ji2hzMU6wP4x1DUPnyKluWl2XAHVwEzww+1TDPyxgcJNb61RT1rS3bNsCcAOrdMmDHkL6vhVWBncWWGwZOQfmGRDsxa3rDVUsARnsL7vK7gcmY6tbw/SwzrZWJVGfKxUspyHx575C1QzwETLNL5UW+bFmaCSzGFqAK+zbCgrpz3T93p5hhTD9sJ0rEmtLMqG0JOHaclOy9BnP9QBjG3vniZKF1S1oe/jECx3jNryGui6RCgfBnQ81pnMPLTEfr8GyKoApM37acm6d7ZPMwa8KPuojcw88Tz7RHAN6AB4YrOGB5BsvAvFU8AZbJUzQF9pLep6knUeRIv0yZiB+UcxqksMei2Y6dvDgxKZEf0meTSzF8af8//sDtkQ6vKPLnKsG/LffnMV8u/gYtv+LC7IeUKCjXaXrsg9Yq/uE0SvmQT13m6SOEDp0uowyIAJ+CJLHQN1OR418IAd2mb6/+SBPUMA8chdjpe+3yxz04oTdgTj4hlozdyF2U0NTdhEZNOeUaSKUG4osbzlApy7HZI1kzBIPiHTmS6gdkmVwJjbGCGA/yJmoKAIBA5gAIw83sWvqIbcx/gmsYQFvFU4HgPkY2YjOK+at6i819oHWMzuRrkqVGJhYZlqHmdghe2a1m7zZF2maYBdymIv7cTz/SgWDz1MhPZ5C5jPgF+PZmmnZhkUT8iLmGj2HcsW6RYwzmXF2mONLuJ4X4XdXJsnlmRiOFmkoWO1jNppguGerbw5wf+JbywF65nIFv2fxIdCDta3VwaTBMxtbQd2fP1XSfpwlpod8iR3IBxyoP9yo/axNCMbLUNisyOgSfZYlJ271LJGxXb1pZgjuY2e4veE6OQBBVtU0kvQkyTlSAgCEpdKJgR3kkhGYrqzDNtSbzbfgLlcn+s/J/4cY5fhGK82drHm53OQfRMrzpJpVuQ4mf+ORlkW7aAFZJafTcUe7n/upqmlNDdwBB7YwwNUUSDTq++6uEOpD3VK4LsnBBCznjI0k5V9LzKLtYhNVKCP00CN08tDSUWMEinmh6zlprjorjq0qJf5HtpiN/RYg2TO4KBlkEHw05z8Juw/7GKa5FC0pad6JOAOhZWU12nEXLWNsbytJmy0q95PuAkrtMMsSAXU2BfPwL5nzFT6ev1Pw+WucHCNKTUe7tJ49Fc7PWVwRPnobiSH2rPb9HCGg1bs3Fv2ahNu5LoMFH6PwsVwfbY0IBUVhIXX2EOaSQAJ73dulRcnDsfumoaDVsupQ/dd5eC6YGaH6fQWUy9tK70q6NhMu+wnpEfRxX7DPUlieBVsHy6vgYFYwetaakmeUMgPHPBzakNuH5c/83gdAl7GIbrozO4hdjSUli5/0D6C0YhTjAmTVkjmTE3vQUUS1RtEfRWF1i7GeCFkF565ooGXmeNknQWcGIXYbUqis3nZf3JAgMrkv4ZryyJKXHSg0+E59NSZkxeNp0hJFm04mVQDeAcuddusTeN9iGtqwLI0NpzRcdcDDAKLnrZWeDMyQ+uIdmAX4kIklcNFP9ApJTd1YUdqEsuCpC7qI1bRN6fpB3JagJLpeOfyH2ybR6imVb0UhvCWJhDDcOO9Nktuqit12T25fXeIETnhHzn/m2LkDoQXmbIH58QsD82vUJIJ5heV7f2Ofz/HHxrQpDLcmJvY63bdQAJQdVupsPB1HwIQHM4qDhaAlzOujrrnDPgTqedNROOTnAyXsnGl9gfFdmWRKg7SDrnNh5sU99GhXHoWu04JwfT3pJfZxdnLF5w9pmTcMOShk/q/TtQyjqezDpRfmAhaqch1mZAJuh5IpSuZY6VMerva0yVPS13fkGc0UTGbblSGYqk0CGUiY58rINToZxZUiNyZQzcnAxVkFOSCnhLMghQ2VD04n0atP/ZHeRLCBhztRN3Fz4mZfqIe5x9z5YlyiSGCai04NbCkrxBb16BNab14nB9DStIjgdus1Q6CySBmlbRADZrZ2ADWxwEhHXC1YvScMojv2mtKlQ1NAuNgd0PZA3FwZAeTjRKZsgJkbMsXY26a0g3bIf7IbzHZACCFpBgRm06KGhmFmqX0ldgRAXOw6eJrFur8XG1uiG4gSlBJ79KmsPWALLOtPn78vMH8uUA/uKRMLXAGVBqIIJBhqbbPIb9xs8QmzZ3zbMOfk3pLuht5bPlC/WhweLPENSJUtjsvcLolHYoMX0O4P8AYHzGobqLrYr+5KrjcDYGJIwAPC8DC09WvZY/41CMa3cL70Utpk0Qqi5s3N9Rio4EGC6aVFCalc7vOMwOTm8oYWhboLUfLykkCMHpjzvq/bOO6HgsqeRAVeJ/Uh5Nhm65XpjgXk2AwyBWp+hi9zsFtrbZJ0JUvOnuA+SmIamZJ7yJ5Wcv2RH3CCQ9ego+PcLz1rz674L3Vng5g2sgThlTRSJA0IEMIKsMYxtnP/I77+qkbedwVnN7EJmNiImv6rqlY7Fk+fgCgQa9wkKiH2dDwU4eZJia7oB+b7FOAW2pDga/MRp8p2uxy7NOKEFYdmLXPKudI+ksgM2oDbMHueSaSk0Amw1mbMZXVcjCH29hZVVmKIOcLJ7wFwW4toQG7MXr/b/PdWaRUSlSq9tjERftk7VrXbTnlZqZcIaTZBZdIB8+hc4JndnBvNwquasyXSVdPisdcHMH/eUqEP2D78kOTyr5K1XavR4ZKcQG+zpa7L/hkdY9+dEm0ZLmTYKAynP9M6BZ72QySeUUL2M7unlJRAzIqLFJiLF71Pt6crNKYpMHLYckMsHtHZQtzar9NeIqFpUg+Xbm7Avgb0n593VbJ9bnba6/7yYt0z+6Zxw3z5DWPGvB8bhlTyuuXsWbL4P005qk2ulEXeaEC1m9ZyUfUZkK5bDVhoBvE3SmnRJ+rAGurS1OWQRqCrhxT/4VyQWZeOk+CKqY3y3Ph3FSI13ThrySMOI3busV8QPTnEXpeDZSHxMAk7j82Dls7LNzDV7vWmIStLRGinQYs3UFMoRWVOeqARZODGs3oMuo01NXVsJf6Ii6CLHDkMwa/f406pldNKXyuSVmoR3dLSFM0M+TiQyEboo840LT9ejNRHfqQmLtrn5229L7bSqrKIQ6LfjTrDvaVkponjUYk4iu7EOtcRMIsoUf4Sc18ns9gxes7ZyWy7/LnX1/zzFtd+vKiBcKAvEsBUOLm6rMKcMU4ubeBubf2jaYK6QWJu/X8SS3xb16mbInsd+hUMDcj6KFHwh4gU9damuMg1JgZ0TW523SZjjKM3Up02EbJY5MYqDBCNJ3DXdYVLFOVlIpb+WTcxyudisvi/xZn29e3yov4PFnuiwHoxYCU3n6rQ0uPnGYuCO+ljVhIG5My4dF8VtBFuX5dZ771q87rJKDR7pRF0MhbL+0tbrNp2DDCNqf6Lvh7LmJLgwROUjOI4Iino0SoxuXgBMWW68O09gzzBoR3f1UrFZf3h2tKcvGK79029s6sBei91ebJJfd/3n17KzeZo+qyy2YbnZ+pIAZ0A5ue0upi+GStPWAaYnycP82n5fBMMMhYf2AGOqe6Tf0WVmlmqoh15/XAD94LQMO+He1qYY9IaDxgFhFtGnyK/D5Df0XfmbfOTDCBKfPSMaFcIB432w4uMVMRfcubyUtuqneblJwLzgnlynLokprk5mbaP8pDWSHO+cnbybtMb1Zs7WgtM4tfnhsv7ug4d5WO8XdO+6yYHvXUWhqnLJfep2+d+vuYuTuIBw6VbmVOjq5NAQQeAGgYE53gCGu5jolo1OCdRFp7rup0H+3yA+MNuI/yf39D6i0sqz+gXL+O7Sr4Gb8d8ApowOmx99bRYMguYXntxqwtAF6RG13Zuk29XJkNVlRuHz/1gPW88fpGc4V3+DeN3JPbcxOMXx05h8lnqzpsSta3aLCHt9N9GsJ0qxlfqRKm2jg1zx4g/7JI/n07nAkx50wJN3WZhEaTaSH9LMfkozIOjKLSNlwNah3IWdiVnoTv7yNmdrVoKrTUS2ZWlPwi2InKqVoxjKSGBTrmOFCdFtFsUETMkCxA6ahMKWS6Hcry8S5M9LiXnvPWDFgTV07XVy576tnVGO/L10uyoGXSjPCx4jBNKTV/AeM3O8rJblXHxnMouiqS0nwqZNo6DeuV6/DBgfvzS8SyHRzh4bdtI+pzlWkmCz35TlBnx7gRY9U3TxauU0rMkIKbgdZFhRvHQpT4Nkcyu49IjKPr0AsVbhMQEv3aBVrlbPv8AV156FDpJgGACQQNYa8NpZdY18Htyyca+m4ps7FPdn8hz9yWGIupoLkjPdrbW210u5KY2FPmdr69H9pTsXkXEK4tN+bP4PGsJ1mgZvahc+s3Zi38Bw0tW8JHJqrUwegsW4l1kFGpZxI0I+dr85idxW9dJs25l6DHaUY4DZAQNEQ9ai+gsSSdvOXpDIAUnXeQIlXigNMfN5lJ1JRCNyGa9tWYnp8tL8575/FJ2MEheAjJNFSJfDSg+zuSvLKRvlL0qFKvIfHgvdSOQotW05Q91oLdbytouctPP5y3Z+lyvU60DNb3nI3IsKT4gGgJM1eFxb6/uEIDW/XphKT+H+r7Y7MBncg2amrbvCcgmzY/56nGIXpujls5QV0apddidZUNFnQnl6Ex9VO1O/639skosPiTMuS4/DJiXw8FTEpVfVcsEU4lYWU7SaPlTGtYRJWuUgddaTjg69c0hiFovstVIXwObNNxT6qzi0/KYQVypYaIqc+e9g45n5Vc/dJEERq46yBJTi23UDuSojIPB6xRp0ozxUENz/Yzzm7YSz3IvbSF0HZXdtXZvvw8vVJuNwtCr3E5URQqJS2n+qIdQxHtQ9GrbMabF0AwAo5hRszGRwkmY2RZF0VL4Az0/XC09hP9HB1iPbtxmFi9kVepl952szB1gbyVhvvnJIB05pT2V+cnZ3z4NIHZVbTOUU9mKchIvQNFSJJ6Xx/tDRecWcq03CWCKPvtw8xZ0ms0uYJYUWMHTU5OjW0B4XJKgYsm0buQfUbSfdgAAIABJREFUrx7CN1Jtz3HziYQNldqIXrWBCXOVJk6i2y6zT3RaFCbKbbWbCJuueuhaa1JGIqYpCZqe8TSzsOqaleJSAbJpa6XKgHNng0qvq22qYyMa/XnrHFDbivEd3ymP+/dHAfPjQpt+Zxoi5Vf2GkXoBWVvEClFCijJX9TrtV1ratPaEybAOkdx2aV6mDp2jCuHGaKU7KeIa26jt/GGT1Sg94imTMq4xlGN3v/eofxoiWPEW6q1wqahclNBW8aH5EGToKmNbQPz6U0uBl2I3XiRC16Odo27vF1OWD9fpJV5dT0Jjd1OMfC8ro1F1D5dtzEJMxMPOr/tD+EHP7Nlt+oZ1gWYcooiuBJOAbLdv0Vx1747h5WykandGrtOanPrVXgmIdzcEt81R1N3ivrrcJTxJfHze5RiYlDhrQeyHoCPjV+Ps3XWagVpkmmH97jxiDtPJwETEbV6wAHMk8i1XkPmBpDQnu09EqUm5GVHzFS8f+a5L4th9cvjicgUmqbQxnXOg9ckTxDsnudhX9aiDCmucZ98BGopUW8hyFWhtGXTH83Z1l3aVkB0ax0iXqTQVWNXwzPzLjbsVpILnSPAECLPWQduWWCLYbW4XXn8+OcHAVO4dMBkyIuYbZHskDJJ6gK/++yZtH8WNZ5YsosoBQSuANb0NXlR6hC33jOZ53OltKhv8VbtBuZJ/RQQXPdT16oHWqPv6b7QhP2dIimU4CtCLRlmG5kshR2Zr2aBM+Msnp420P1Ovz1i8zzI1umPbYLYv4UI+oCj3NvvV3gGRE5vC1KyzniicgtI+xFoI1yr/G11CDuPlo3QpCZra2ZTJNhKZJc4fZ3EFou20kn0+0ix0XLFRauYN4eLSsQC8oxlE/AKqYRM+7pqtdyyOWmW5qnNok826FIdKhWpxp1Hi1Bg5RHnZBikHfDA61QUmvJrV5QlGsYX0H9tBOfGK+KdCruVa8qQmrOVqofecjCsGeCu1uqS1gRMD/FVFNpZBx3mpo9k3Dgy5iw+dnMqiC40eIVGGuCJUtUu0qN3dCn5rZT0UjZw7uXS8KE3pv4kQXm3s5pf4VBiaZpdeuBZnSJPbQRMXYBc/fpBwPz4bQeaLZ8TrVt6r0qWneqJYtsiRo5Mgm8J8o/uEjAngmTXfU2dGu1IjSZqijEFAnnhSE3o0naDct0u0pu+++rev3jo19f9KyJmPIlC4bRGfaHeXjffMHSXbIGWk9aTUp6m9xTQjPry2fdzv+/2WEp9ljHqp7iozY7V7/HeRZm5212yRJd28IN0SKCstBxTvhQZIJZVp6NS1azul3fSxBePinuz3RBzezXRQBmXq1FLLUYPWtw7Gou78aIQmxelxrI/bf0+3oKxTXXk6K5loiQsmAR5sybHpnaRKJsjtyGfOx2+cXRw3Xky6QBmus0K1HQ9+U8cMQ+gTRFTYbE0hKhOs3u0Jzv1mdsnsgGLONk1AjgBZiuT9IHmnjplLBCjBOQHIvg3hc36QL2dkc4ZlrSxcbmrkzPZeqRLO0aJ/aUZRxvhFLN2zUmMViC9lGnUnFV9N2dZtFi7h8g2vmGzGlmIiXGLkgiXAE1TgKk5S7zG1+r8+s/PAeYvOZRXZRSkUXucWUfxBuwrWtunjDRz0sxOm6BsozpLtxXRMsJY/57k7fROVpp05QJdY7xqY4AygdzAnwD8NVGKBiQDnd3X379/4zPu7iJk3ocIovx1RNa1E1de2xbE4PKMkVK+65AjdfzbQ5zqxOz4/oTMSGhbyKjNkRkKq4h+v8nnln1f2bIvzU0AsGNnW+xC3BJamGXmpSxUzrRvDDzVVVC+WGOzxUvdVTOFqzZSwiK7EaXe7tvbTI8zW7MFdXv5bKwLM8gr1+XDS9aevZ1qhy8R8U2pqYYpCpvxn/tAGqC4IxT4O74cJYD+Bub/qLvW7raNJVaSuyq1S4niw1LI1EwoS/7/P/EOgFklvf3a03OsJm1sy6lMETsvDEDeD8MqyT9OAkJ8BDDBgif1XSR4tH/8b4SOCZtAsF0wZJ5qGpDQW4sBr6VgCAYTEN/KaWaNmepGyDRgIpYl9X4sm1VzFms6LQkHQZOOZo7PJaeWLA3XCgLrD41ACmsRmBT70fWgDDaDpMQ/tU8OtUPExUEtr542awza1CADRElImn78S8D8T/a8+pcFHZeVKsaMHmcMTZfoUiFVT7XXkMGOD89uwPABMNpAVGJfPkN8jSckDsCwpx1gRKbL6GiPfQcWP18fA5f67yefarj9/rTwa2nuzxt4ugt3qpDpBbwoZogsR8fb+XY8HdvATPrgpCAL4pYS2kFDW7HcvVupWclbRCzZii4qKC+1d0pJ4Oikn+z1ZWTjpyIoo6gnIu1BCrHKtdt2SIJtRoOiMHyimGkgEEmrn9ssLFdf/uORz38RGUYn86FshxZOMQGW+GavbhCCQSMfEhIPBqa7jJiIiuT6AHqbKHbaolZZ2aM11BOTTHiZvorl1wiXVINuBvegpx2Rr2oaNI8kGECx0s1tHUnYxAR/LlBeOdVRMWpipxg1JlvVPKSTbiAmtklTFZxOYe8w75S8+2m0wIuhWZ14CVtGhVGTKWcWdFgwr1z519J6Nq3erxT8HK7FXmLoFTSVcFwuaMdVl+HfwtF/AMw/1ImfZSbI7hoytWtXkV4MVjGRGUFIjna67TjfOQJB2wd8R6xJHoJQeQxI/a34hndiyN2+R4hEnIW8J5BoCayjcd+ff3uc+TlEVCoeGDTPD4uxbb3IMBauinbfrvb2c7x5gpkpKHzHdh0Nxbf743hjPnvHQAYylQ1dit77tw6s8ZqHD+JvZn7AWqiiQZ92TQrlQNcCblFuGB7hVWTRAc+wPyYdDTMZCIizJAHVxWEHYp5RO2UinpApj+dYHmIXeBX7J8/zi2FEXm1VQVSOant8RdCvbYqTHwLBpRMnLU8cSMLrhCHVJS2HTZ0b1/ZhDGzYfx02gyUipkTeCTp8PEBRCNpWufEI80sYCM3Z575p8hjiKqsgGblLZWRdW0x2RxWKsRBUWeIZMHOQtkHNyRE40GxUjOTDWqw9Hk/hmS2wIiomyP88WtxiFWpTmlOTuzfG1AaUlGj0qshspNV0KVG0vw5YPOmvXV84iQOAWbGd1XF8slT929cB5huMVixyWJmRNRC3vDF0XZSJ6emOaaXdCLxMVhnKxokajSzozscW/m92qKbgBUfFeArI5ryPpzYAjZ9Pj45E447HE6aOB3xJwdL+YFH0bEnuoT0/+fEzndmC/Ym27AFOxBA3WR84FVawpIOdCvbLakyre9Byut9ckY8m7N3bdVre3/7640/Y2tbYLyXblZKT2AIaWAAu6i+yCxTzr74spt4YYVYqg/CdYrLzN29E39fkU5PdRi6hN8dSrudcuoOMu2L+BK9kC1VPGyiuem6XXkLnkN9hc1Gq1ZSWZf4mmgH7qIiknLCzYQtB52F/WlSkbQkKxeGKrZRGTVuA+fI2aOlrx65X7yikOolGJTTxmzqG02nzRbOU5PVur7wFiSepp5NWroI1yPzJY9cUo8ELmii/k/B5KwEy+hTHIGAn8I6x13m7n+2OG+dAckGw9zCyMYsD0rLeKp+8bFrU5/WK0ZkGdi3A6rJDCr6OuAJvZExZKYpLwwxjkKF3gy1p6P18EWB+sA1vd0hPBV1sLNltE5aGwwrKisqnSZ73IdztuKNyyEMLkm1AUYnSMu96H+z3UZ7goGsxgTWkCZO/guOO0Fg++BQy7YHyFOWlVaHoCH0+rZQkNkeOTUELDLxnH4+RPCswwdp2DO0Rj7HV1ie9wR/3enn/hnTv248PwIc+gBTOl9hPrLq3SvNMwgcjE/gMsoxkCH21cV58H6FOrpCra6qqO7Swnei0dQPqLDfjJHcPjkqyo7j2OWb5S7FRxq/IjgB/+8kXr6kspPLKZ5uXy+t2oxoQRS7h0orklgsoG0m22JbmiHMakNsSg8AZgDkImNsugZFuuoDZxH/ECEIePE0Uo91oqpCK0jON9FAdB22DnVp05BJ/0uy8OCAVAbgRkQAHj327CnLa/NWZsRM/7WGpArv8GpCd6jmA+241EEYpWY5G7VqhJGWLspEROKn+0NtFXwycRGBV6zjoEfW0M+y0BAC02lvaDH9+FWB+XDsRCzL+VZYRa7vJVrd+Ur8altq6ZQyYlk0SllZdHq18IC45j85WXZLkmLigSkuBgM1bT193QhAF5adHzs/XoyS3eCYMWA+GS3ziAIBaimvY5lwEvSA7Z2GEg5cdQOcNBkscxyBMg/93E4kW/VmXjK0wJJydLWtpZIbAwMxdcCFT/B8umogMq4jmMOS2gpgCtePVNajA/xEwmdKWCh0xWfzuyLjrjAb1a2s3GMD0sna1LyfScqHTUjfoY9B/YfH/j/j2l05UAxSX1MvrpCDCPajGbcKELW2LkH5gobIExwmm75Sb7QnSnb0iAFOoVHTUcibnLT5K2fYd6Ql1YDkoETAxArFyIqJapBUlOt0NB8KbFpezZLGyL5a7w61F2pGysuN4P4BUzNQWP//pyBoTeQkZLJHgPYEFVDUi4jFwcm4EnW4mqrwSwKrWy+2oanpJgeosQ74PJav+qwDzx7XXnKRZJi+q4GcVlgULp6DEjRxO+fwJA+b7iMDFHSwLhbvBMpEcjVuAqaymW2Fnm/V0CkxkvZp0/DFv3Z+/45JfYTKrJ3t7SAnw+fkdgRfc+NPNcp3xfFoJTMokssFOVWE9qPV2orTQAzJCJBPdZVlQ0bPTPvH+XqFDW6ZuTgDyg6nUjFxoVtkUfUeBo86ZXdraJ5zq9azodBHQLNIhRFJ53GQTWV+Jc5op91j7MG/11ZVfK2RRNnZZgETCKBVCCvI1YrdjD2yS2iXiKHqrWtGkNW6DGhMYY5WIPwzb1kuJfW93EoS0BFYi5mV6laOCNTpCIuW6CB/y3gxNA3ZwqibLqa+myRDbsWxy2VuyVWWxw8ADWl72a8JvGHkmifZP+efxUGVsl+NnNWgeRy7kxDB6OwjsAxA4kss8NwWYpCiC3u0S2mphuz3wpYiZ8Vppayd3/fWrAJMLmFxv4y2amFLNqcXRdVJH1mcCJBLTTdFiVrTb/uf5dmgtgdUZC9XibsMxmRO8jZWzov4z0LyKS/7+JC4/n/vfYPlb2CwdIT7xQJwenhh6Yg463s6HecY+YE1hicWnr+g7MYtG9DxicqJsGzmtYZgGXO6mAq07g6e3eFzGoPE1EHZgnLLHoWTyfQkyZrPaNZkUu5pKwsJmTrJmTB47o8PdC9Y6le6rh9tZ3ckoz03fPVeNaZc8HC2HS2qc4ESE7TO3Yu3Qd/ERtmaY3aqxCoXYhsQA3LUb7RUob0Ajoc63MbeEk3TrtRm2aVRpz2SwhAGIPBtcbG9yU5WOukAsNP1FR3GC2DDFDUOv6MJ9EzCbpZpUEuLNUUUa6LZZ1z79RSi8rwF2Q3UmIy8SkNxKqdVgCq+N2PgisTcuyMLWz9Co+UPOhYSTLIo6Lv0Q69Qh6/tvXwSY1wFSGzR4ZocSZx5G4kEtt1C/emp1bFupAIMv2bJqBBJKawBv+ZYqS2XTQTMQRb5D6fLYr23/v+z1n6gkFj10/vbYd38GZBAOhxRbKI9ShsBVDHP26la8I5jkIJ8VNO+yNlrXRV6By4I2V+0uJJpWdtSYVWTURqVaM0jKGwclP1A6Wr0iJpkDaBTV6uToCQnEXnZ3dCcn35aeo09LRECLYJMRmLm0c30yGsDmp+gyhatutGSHlLR6HrjXDEaWqjXcAoMP7oX6lhdRbWnux6Cp1PYq6sFOYA7cuimUWEIOsL5Is4TO8G6qgjkoW0qudokfcXaxAk/JA4BpL1gDW5ZESpqmCt1TfJZvi4yoEfxEGGB38X4n7X8EMJltpVFchDmq6pyr4qWn7RL3bpNDIjSy+TFTWdTY5EgV7ZS+CEO8+FN/fQ1gvg2di+WKIctczc5rq5tILNCUjiIugXWcBcz28QD9fN+BS4Buc49iqww2KK8hsgFc3xUiDYyHp7C5q/H66r/+41FiKL6p9IQE0IO+8B0bmcifjyEd2j3zNCkM9Cx0kkOGxBa1JoQXwTdYT5pA1CDYgERRSX1d3z9LSEUTTHL+6GeeteCcmxJZX8DkVzgUEV2UjKFEuUQHYeRgz6VNtUSvRZO4cBrl005CmeddLKoI3j8KGJqANoyxPrReqfdKRU3dnwgBuBUbtnyahmRnAVLZ7YBlL6aziIZULBhQYkIcj1NP1xHZWYh4oCyh8hcwKWFLtSDluMnlXa2sxQ8XMPrgC3YJsq4r/gWKcNkVPugqgtVn9HhgISR9zPHo2QY4eADmiu2SOthtCJ5eXrCWiWlBHQtbVo9pKhusdITqScUgdbEAk3NeREx3J7XD6ONLAPPDXrDdOgs3asCPhWBBwt1rZ9mKXRuU+JUyinZR06J+gFOQwNRCxrrnwnm2728NUBPwI3gx9u3P3ecjm3DnleXzf9Rd7XLbSA684deKM5Q10shSqMTcomP6/R/x0N0YSeer2l93VU42sWPJ3pREYgA0Gt3/lDrX2ojWLnPwL0j6szNhG9bR4j1xPVYWnCo5uWPLBe24I8V9YC37/uHykfN83lsP8zZr+xtIkNjsrTZJxHBXn8nbCW0iUeumr2UpgRgy8vgDEhTmf5BuBIsPb1VUAZI4UnfKOntJln1VvxyIB73VgyLSM4r9gRIyDOkoWy4ux4eUGTnJm7QNhMkA3E0mblaKeSBLTGyYLHZYIjBbiT1fDgWAgPWVh+OPg3ehSWLPrRey7kJfAzNrVN9mKZDYA9FlrrJMQqQyQOFJ4rI9DnspJwWKMVQqeYxc7migugaBTBKAUBRYvkVgjp2cZ2/Ez04nPIrZpXeo6BFaN5/jJ8nF8GAiKNtC0+ggLRXHZjUxmY61rr1c/voTAvP3xf10iJ2dpZPREFrjyKrHDizp/7hnxiLxlfcr6Dor0R7iPctCFN7eVK9YN2U+B3qU+iyvelPJCFsVfP9Q1H7pO2stC7h2Z7nSItX+AHCXvZiVPlw7UOaM4OO+YKyJNENJ9/eP8zsTTvtOzx87fixxOuzDWyferUsUkrF1ia6k7ZDIMKVPMieRwHuAU6TKELrPP89esNbGcdfsxuAWcT2VU3oalDPhztLK6R9dpoQAepcslzgO3OxCfNnrNWDduyUN6OBAh4TZgUGi89RxhdnBke4kHHhAleSSU1dErUUpK62fhUmzUKnEXeGRc5NcrvUgfgYQLb4oOoTCnbze8JUhtQH9ypBDTy3R3FBYasLXHlQDiKwjmDkxgQAflESmBZkU0DXlkmil0KbmpNVMrfdA1Iyr1L6UqYKWCDSk9Rl9lQlEK9KWhocs6asZDOjtv/6IwPx1dJHKwF1vVVzkfYYe+1g6zjthhs1o7x1w2SvG/9E19RcrjT43VDoQyrH4iQykx1TE/s7C1I5p7x1r/7hWTsF/BeXXwMT3D44ZWcu6Q5tUK1x6UgK/CxQrQuBgOG1HdwdO/Z4OKT7XREV7azqraOFUdnPd5dnFRubImjY9COy0xqi0H+tIg89PzhBhO/P0J0HPYdnYP9S7Yp98+knqwtnyCXFcrl5yI79XHu0BdAoYcgE+4WxNs8PNSzN0LElBshzaLECZ8XrD7DcneTuy6aNDPC03iYfyfqWaT4vZpct0tTFLjJ2cdoXlEpdSqkGfbObtY3Dp2qzARK9J7NaybgLjzpFqzmnVLSe25Nk5AJNzACZfjeSZQ9V2UtkbSSHG7o3P4cLVTTjk5ObkX7B7b5xE295/8f9Oyhp2EXAySf2BFEVGrXLl8Z4xJ6sZ/oTA/P3rkqE11uLQh1ylEAw1WQmwwxlvVoJpBPVT1fMMg7eVRBZYna4A7BJSmMUpspoF4fbpECyqWGtqllXPKIF+quncnsDXJ6LB9jVjqv3kkDOiZSVbCDmT4h3vHyf0XbkwUfQxOcuh2Q1XS5xQF7awFAwEbrvd2WdS6W6UtKtOioR+CMtKpctZOo3viDRdcEy1Avu+8ZwcL0qVilB18vrgrdZMPZbO69ZEURGtg/Wu28VnOuefNp43XUWOkiXcbaMC6wf810+SO+C6RfYIEF8dZexUV54cBGpb1axStlwoQ8u/V6PMZU2tK0jn2kraFWXCPFZHBlEXQAbCdZ6oCJDI9ZFSJM1C8DYUKgmQ0AtiDsiZEnhlfxmpHHvDrhItNnfNpG05Rm6nA01oGSBxLEBTOZtqM3zFbW0yLRlq0lfAJji8kU98zBqNSPjTAVkHaC+Xv/+EwDwelSxJRaNwHLd4Zo7qqFvMwESlz1wKPhawWLm3HTmYZh5r26UNDLbETMbA9LklI9PyJcvbDYG5rEJnl239j+j0mPTfX1Oo6uBKra05dbOk2H1cTw6IKC77ROHVBQNNlLQ7elhhJwxTzRtLQdoe3UQUT94QVfaPqDaSj220Ci0ITMoDeERaQaIiMHcylvlA491jbPpKxCM/qd8D3GbT7lsZQSti3JRxPOg+a6Ec0IkGr9fdCMEqUMfBssG6sktiYzsMaWMigRbJznlBrVTQgy+hKG6h5ZOVJ1GXZp9OTtR7BusAMStDW1f/QcM2ie4uqoGva5YVmdMlfSg4yfZeSj0pabAMKhJPhVAxWlQxDcDqXkUBA7MbBZ9F7gGwJIm9GAxidUB1AFRIvaGPuJywffCGJZNWhevxjTX9m4g/EGGZfJF1cgeKy6PF/MaB+ftXhrdyo0iM5GjvonxbOES6saECMZklxa15t7jcrTFReNQ6DlxDRFvkovrw6fE1IENuBP9qQuQXwnNQ066rauAaoj5N2WqLeo+9Gn41ZW7PrWn9BArfYM2NKxAEO4CtMkNPEyFDMo7Y+0RNCy4Qft08KOkj1QiddfxIMuxnKBMo+XX3KZoz0yGTQQg/zL2z7AJ70HAnA1Wgp3OcmydGTyNmMg7cz06KGXAQ4KyUTCNuN1lsEq1sLD8C+OmgJ2ShfIXHy+lKQSxr9feYbAKGypMERMBMQznbwr6ExWxJdbMY1tQhLS6Qx+gqPsbkZVy2LR1wSRbIS+JYk2oX2ApFNpsk2RYusSBvlkVjqnBHXOsMhXIfLVg6iBASQDAu6SmThQ2cJBm7jp3mzonKsZfbF4kIJ6jIRC77wPSkkYAzxwei8AP3KT41mbQ5TqIFeQYHlbKCZQ8P8Oepkv3Gbl/WYE4zsUOrScBKBqk/UIAd0wI7jx0GUfNDUYhhlXMNmFyr9RqMy8GueHrqG5UguSvEmGMp61H6uVKseMUNQZi2ftvmwYn49by4Pg0yH0jtI53Wj1xGgSclJNvo/AxfksKCtqfWAbzlQNQjVY/ke6j1caZJhh4lLaVxSI6BM9TPVZznrsjuZNY7cZa3o+rY4JEMHwRvNaOcGZ0t1HSUoOJUgSM61iHwX0ZARq1Xc3cxii9Lhw/UsvCgg4DV/nQd2GbSj5lKH+C43+hGTQYQCe3Zt6mL1xDi6mnwVzSVRIpdwKPlUhfSZ17W9pKZOHE92HMuqo19lkm081juUApRJXaTqFTlHhtdzCC4kh1zG4DzhCuwQmwNpmkk2+LdIJ+sEq8oThh7ytxxrsvWCoGJuoVeB6nq5HlAtrlOSyCGrcJdk0zhQQdtZT4C8/f/Lo7+b4F5aGeCXaytMPZrdnCAhEs98Ahrz9PDxB4cseH6Amx1WTytYVbNYtXqxuA0AIQfB9YCbLXKt9aqdnXwL/Oy3wNzWT154gMDeL3/zB3WreOVOmq5g7dYUNmGsYOADESiLRSxihHENrDI7F64LDpCH2x/lePmBw1EWAxCgp2SI6nyWf0VdzLO5HjunL6y2PtUp5CNN5ipimqdm+ZJwZ0wJIPa7kWuJhLX5Z7xo6EEm7DXNjYHEIhLnI7j9WWETjaiGooeVtCCJbz/sEbzgwMUz5saa5JwkD0uVUYG+Uii2BUkohSCStUDU858pX09LNG6kQVTZzhtFim9F26BsUWlgOYrWLYXq5hgFYblvqJ6fQrqMqMfBO2RJTWfS5DjUoShy5QhNbBEiFJym17ggEbB2vvFuztTPos4eNAp57Ws8mSFgTgTObh+PeIQ+y0SNsjO16NTy+u/vn9g/rASPXTj7SzyU9N32BkHb8MyYYKEB3VO5fTVNHQytMAsQGGH5z2RFROwdRNxbmFs5ZIfLhjsRLXmxUcgnIhjeHHjt1IDGAgRP3kZ7NHpFNu6frI9ZqFOVfgEoeHn9rJFK1q3n0MH8kMKDTwWxDYYB4qBj7HTquYHW03QDc60xFYpG1WTaWMXCZNcFTWSfEKa6/ck6hL855vKCjF3sMvdgNTtfifJFRmhFSJDDgQmkCmmBfnnaHe4B6Uwah7YjafTuyX7060buxMALDt5BovWF/gvXdl7nq57IlrvlB/zrIhytnVlIAsMZiMxbPk8u9CDlq2TKD9toevQIZfX12Xt7PKJz+VPWPQexP45Hi652LehFCY/gYokrJRRxZY8KzCD/Dmngn+/nSEewlFJzwPKpQNpbpvgZVOJBakTI1RMKYGwCEztAjWcVZ1ZC2Bz5BmalfspzyOFJqS9g2fPrKyK1vNy/PH9A/Pv0s4gmySQExuC+531iisUqVrN2IPWcVlvnaAHsRWvThlKqGMZQnYFY1SriIM21yVdrs8LS8jqXkp2DeJ8rP7iS6nn9j3Fkpui9MlmFMXtujxoCcsjWd7zJ6MYUNC2/fwEqbZLc0deqAXCGrsBBSHSJkTALGOCbyCvSsgBqwfs59C7BrSHJs9pCoFwRztw2kYBEUK/SSWFtLoaN3OxO6i0Lr0VaeB3gsM2RnBTiVG1iGzR+8ovYDyi6m6Cpf0zFYtHK77HYQ/YB2vg0E657k/jy76xZ+ylwPLD4pN4FmtzxKbHXKYaLW02Q3HGgeSCXJyDxS8LVRWpkD44lssFLppAZNchRtJsge+UqTrmcnKf5YhPGd5+AAAgAElEQVRiP7VIopbshXKXb21zxYgnbkNSPZJuBzE8LbJKlRgWNuwtyWUBvWdqIwsJKRzgXIUBWGXfSvxmmqtmPRYsL5YbX6ei+jmLr+70dfaaOHXe4ORyeKpkv21gXnKbTjzFCEZ0KLLWN3t9hRviyAQzX/uMsUO3exm6dcWARLHHOkhwK3LfKtId4yq7orCU1lymwt2k1LAc8/HJZdxn3PjJ7DaN/2buXJfT1pYgHAmJEhIESdwM21YiYvz+j7hXfz1LsCvn/LcrvsSmbGNp1sz09HSTN/3GBa7oBUZ+voIEn2lDsaeSHtA8/nmwK5aislmvW3OnWyQtBP6wEgY+a/v4zxEc6Ch6yvb6cbVAen2MXSPhgESowArNb5vRot7kPcKp61ziQgSynNaYhTU647IZe6xtUV4IjFLRWmcWd21haJPckaASUbkamzFmJMiMpZ+ujC8rgZFX/TqqYT41CEo1rUoAZX6GJyrnTK0jnR1YBzOVrYjRvMJ1sGyl5EhOrJqke7efJ+VcEZxB+HplQlzhQ/Mr7KttAOhV7T1WKyb7HGy4RcE5oH7SY0cSw05R3cvSIs/e/coySVSu3h/hdiyX5txh7U3PwltlmetHd7nFAEPPzax20ZQYXu4XEAjU+rzfv33/wDz3204a4KAXVFRHeXekAzc9te7KdOi4RdYxBSoydvNjykuzgvQIzKDJBuTzQNB0GCwwswhFDYcgk2SbKc+2l5cpz816E1BQknoWuEuTOh8eX6/6QE9un+gH+h29xykCgg4K8oIU+1J1KhUhFbTQfddyy73crr/JM1eDP946IZKynoDltDxfw+JRt0UbHnzWPI1udPGyBbf1mhNi7WVsIJpxoJqPrbSqDuUbsB7z9TRJgPID8wdlnUa9ZUqbSLdsAJgFB2y0A7nRfqwYe58pOO+f0r6+x/gEOT0g2l6wbGeunTeMSZUktX5A7RHawZma1dcVcaDZ0LnKUC5N+Pr1i0Cmat9Qu5T/n0b6xSo3lAfypsrqFJ1daM/WPijL1gW7Dkm5IdDXe61LheyK27FU+RIUW68SoFdbRPfQTST+iE7Te7Ye2w7eJt9HaGL38qG7OQXm+deP7x6Yvw4H3WHYXuic3zSoJTWTenZZ7+mExWCnWz+mFkKdJfatXEGF6vxIFg2hEDLiPgXi2dctYnDS+vyQT92QdeOxOW+Gu020pU6tGT9yNUtgTl+ZnrCsWj++FmpCcBbWMw3v11ebglPFp26EVBCuGwJz1Ghzp0EEq97czNLOy+bPNvypQzW3XHQoZW4Dgaysx8p7S40X8m2wUtpkWtwCpi62eFT03UKAN+zI043ZNG4q+R5VGd+ntHwqgant4yalyvQikTExfjlYdD6kWFeMjuNtI3L75+73b0AgBpw6XXpiE/SVCrMI8S5PUKhtdQMP+rxToCVyRN/DcHrvQVgKzXbuuEzUuz2j674PB7GnMdHAkIZUeSCWVo7MVFR/7FdFNpB1nKE0okayGoE0Vpbc2rhtSIEpYpSYBG3mQIa3Ffup9eLEt30BZ7cxtbU2V+/ZieeXIrYzs9rv3/98+8AcJgswpmfUbnaWIBMuLZy5PaKfIoEcdJjJikOoBg9Rx5gi0iOSGNdwIlH6srHGwMXTZ7Sh60DVTXC2YD/Zs395GbJyVJ9VZnLCnNxupsB3/LuffGUKmSe/nk3bY8XalS6KCioDUwSkeJilQdLERtjvoBuUNi4L7VzSZBXkxDxVxHgQB3MLY5RZtXJk4HgXce52W7YGDZjJD7JCfCNLVXat6zVZRTq4McJqbKVdLkTZBsnyjSSMUjyWu91av7YybTpgdIgqe0INSk9EBhEpY4pDq2ZTGkE4dQjoWYG8HMRBMFTrKpbBO6KOYrKdT7npgBnrgnVItYbagbnllBzMkuU6qZYN280z15EZTAr94tCtwr/HjmXpZ6Vj2vwn82i9ZeftOLvVSIbLXr8lQ1FM0I5dtl6IpfuYtDPuLUIH+BDRuTjX2lcCfZUt1evWRH8gpZQt/vz47oF5ksD2tVaF3lWXi0wj0jmWntjb6WPVrt7Tu22t7ap1g3Qn3sM6IvXeG+30Jr6WhwwI9aE8/Lx4oSwjK7i4mrKIiwp3yIbIBuOzdFTs3BthcuPaR2m14gfx8WPOwPDXouv1yJvXTz7fQxiNbur0ihfVTFUoz5TLBeps+rfDgf04+p37SgvcWUS9DkPQG+Ez3prS9J5byDp8XlIhiehKUcdjaVM779/v6ugcJcjoFRRyqcg8DKIQXjAdKP1PttsjMPjGoE9JiKZgreiSmxSlGwVpFS3zfQSdvdyP487jEzDgq2/WienF1kCtej75wQ/bvI+yxzbhYCRoDyneVxB1PGEvVgTKIu16xGmf+bOsa8ttIX2MJUFWQEcbPYWM6qcoZdt28rNXCqhMF5bFiLTfoFeVDETa+habBa2ZyeZx19mYG7n1l5fCvrVbT2rzrqY0y3LKLESVF0D047sH5ls/wZJSx9xWOwELNaectsA/DqvTql3//OfnetYoi2A8M+nyR1I/1NU8u1ANQGieOFZJrH0cqEOEX/qaAHkAd7vh5K9EWDqBLtL8nMITNIZAa9l/cGA+JypL8Ro59IkIvS54dpIOtlxX21azIpNqFpYeutCS1cFJVqUsrj81vLBlVwTpBqgqtituKEBJWGj9W16RBlOrzXfitmRdDvAn28VXVW34AmUzsexC2tEdZ5i0NhVxqQmJEmPqL/XRzvr1KWqRBNSvMNIxAwaJdHAZW8mlfxqizTZ0K8aKfe4r6TVhCqW/MWcup6S2vKwYHYFJL6G+oGkLQIA+aiGMcYfnCZy3UYaIRGvyqLsEAZIDQ1ccuueLgDP9BRtGdC1yB235MvQNfZLCJGbERFTWLl8PcImgE1Bp9qzc0ZgI0Wgan8XNMGWaSgOG/3aY3zMwh4MIaC1/r6aRKn01S2rw2KZMupoG9os36et9xOL5/E7KJEL3yyfPLmU8O8mVKoEZkReY7GPmkKXAPZ8zJJQDNC5ufvyQc+xCGJumbHL8xIOCZxuB+fCm5+Prr8B8PNpjiAwz4m5JmU0KUJLNDmB2y+hD8E8KPpZG6uIIoGNsP6w2Kuoqvlxy2o+jY/Oemr7KtjZtikvUa+ghW+tOSWDT+BAWr0tgUpfSi3bglfbeYSzCCLMZ5cKtAY+itNlcyg0O3c24xkktpWAF5mUz3lNgruu5Ge+ZdKCTovPEq4ilYo1RtHuyygYlYbaAkfyKnnQPDS93+V03N+ufreVHzF/PDtRnn7y95d9Jn/SYBwW/UWB+riQ0PVTquvCIDiF9/WGObfFx9SJdXVWdBceU7VUTh1mw/mCSc49V7OBE8wafhGJZsjlvXzpPswoIzOp4LVYf+/9Wst8xMN/ljlQX5iCnpme6lVI5W2lTdvvxJvrHWo3lQKI8n07vBOTJ/+U1onJwLUP8uCiKiMS78dyHb8bcs6Lrgjg/KPTc+vxBRDIrDJ6CZhAoZKKMz04LJjQHl8/D1Pl/bnXK1VXFnEKqMvBQzZVSUa0cWq0vo+7i9JqK1ju8YDk9l8erZJ0lKSK454YMZ41Mmd4rlQtKvI0XYFF8a1PiuhOjsQKN+rjxWIE5yrGbSI9Sft6sS+JwLbVk+7rWmllWtRXvdRDsSJVK7xbmlKa2UqVkt8UGaiwosfbWKWaGOxWzF41PYATdNPPaA9NuVwPajvY+WBY0EE2SsAxbYSpUfGFNjh2Gaa7Wc6HK6XmJTvj19bn2cQNC97KKHWuzaN33Db3xIC9LUNTKkm8nx4XQVjoG4ZG9c2fEAhK8jWeL0B2UBPS1axfOz9aeUHaoY+oVIiMeCTA7SQlT6nrps+8/vntg6u8Hcib9egkcXQtRwD/2QqjTkTdtNTrqqTtPp9PbybF4Or++PM2OjQQNcYrmxAfKo7fpEk77lxTLGxe0Swn7nKz0UQK/QEJZSnFaSAh95vpllu1TG+GvhDlr/2hZn8+6I5IrqtrUvf2EEp7u4eJajzvRnQjNwBoCrNCycml0VhaepcjhHVWkjT8VEdot3I0ZPzKoq47zxlxFfICyNsyY6jcpJm9QVFIk0m9W7jBzB5y+X+oyaTI3ZkY0EZogQFXD5Kfhd9ixhLKD9K74vNxjwQ0ubU1PZlsFxLoYJPQGag9PAo01crDDfV5fuWq260erRZPzgrIb0ut91Z4Q+z5MtgZaWiaaqpxTBj0A10ZgKr6oJASxUdjnRdYy+BzxsgJQzqtz7BfoGrTRYlqDTaa+kUKvZk5sz1v3ltYYUWBCnP3z3QPzl47LKywRoOrUAmgSnf6CV2PZ3XaecGpJwfj2/n6ijj2dXiMzjs7zPpImxYxtT6NTzC2o+xaH5DM+9063gc56VW7BhJYyODeci064OX65+Vx4tmysPP6vFMLsuOTJIUutnAOMol1q3depnr1uZYp9u6G0U9vP9mhiOoRF3RFtZds9LMQJtpsXmVM4lIQlGtcvkxb+04YkAZ4viOi5sxyZUVV+ODz7KjDjDYZqMAmoXOkpU1COClz8k9brqrbkGDvUPF5SyeiP3Vk9vV9MPbzdLFpGPUtFq00T4jLnNnwmcRUjEeLZZ7jAOrTt1PXLRaEbUbsx5Et2ztKzW7uqBF33mZKZu7lCA2s1CguBQ/wCIGsNdNvi6nYBZPdqoT1T45fl1dJGRCusoIz8FI7MOH9MWnctm57UKiDq07cPzFMfhtliFKIVvjUrpK9Dy2Wg9qRsfTu9n36copCNavSMnxJg0D4uExeMMzVXs2RM16aHoHMNkTBN7Qqf49xtnnHeWIyrnsG59JwLVyhrLgY54SVhfj3+Evli4lkE6j4ZHcRihfjkhm8EnaTqMnRnu1CzKDD/KdvgvJpE5ACV8kVriD+wH9HLNhaKrYM8oMVnMCIyYQqqBiuOJna9mlHOghUx+y9zV7bdtpEFDbCBAA2AjYWLgBFpkabm/z9xuqpuN6mcefQDlURyHMeLxMLdauEvAmYP2tOmUeED4FknoS4hMOOsea4RBNHQCV0hpHLQhb9BIzO9ASYTD3IOHop9GjY4wJMvu8jIBx9BOB3TYpMEmaNiNk961j7P0HAJyvFE9jierJfFN5i9SSJmbw9RhpPRnQeZKDndlnfJyqdYPo/OIsnM4/cBh+bhxcT7Vd+SJ2hHMhUty5QzvO6yBlePncKMukK/S2x20JKK2M1fwvT7b+Pob+sx/4zdSJFcL4rzSt7dymhlcan6I5c+qJGfwOTnMdVKXq4mQxYXrARTyAU06J0BVDue0Vyg5FJ2CsL09FIg04M3PBe2rzUzXUctVm5JMXIaQhcjBr3YXb7Kq4nMG+1G9IZ8HIftrGPt9K6uZeDBIyCGHnlSspc42D71kIhzZGI7Bh5D5JuWsrxtosJtSSuCEFcvMQUNp1T8WNZoeNwqxg5VkgQDwLed2ckSll/n2FhzM8vdLI6YdV2fEbo9k9Xn8efg1ta8RxpyZxECFR80IAKZc6dNm+DrUYchR2cSACRCWQiFWGWsf8UHNqb2hBx9Mh7RGdMGDz1Agzb0ivob6X1lCyH8Gp2cFAqBUtwCPLAgH6EegMpxZtvC+QAPPF5KduRYmZzVPM1oq0rasRrZnQHTPgCsqtnCpVhAIVkDHf/8dV3zX/4JP67dhJtrgXSvld4U5t8o6zVWr3QjISIFTINgCGlCDKp03MOq++G/BEMkvRJ1+CKkiT6AOegmym/K0swa2ZONMS8r3en1tJLgqTQOO3kaI/BfmWFPFq3e1WAARUwiufx69RGVYCM4Fc8bCs/Z6kuE1rAJgyW5YvAN0Canoom/18YfYt4ckYwiNW8KSt5om6HU805ZkFrmIJUVLiFbW9pBvTRdSUuaQVkNdEEZzvWZIQ8D42F5MGGb2zoceoazQn9vYBoSxvghIM86+pCw1BLYw0PCcITNKjrskK2sxM2Lf8XZTxMgEgX0JZqMnqcpMr5Bnbkz7ofdrzl+phmTz10ZkuCLOqrHFaMBs2VyFqXTnTfHS7CzTcma3bS7ZHpZZG8EhJCCorwKmFwBWEaCEodFnOW3+nDSyWTqEyp7/DamyxQnzDcH5j9hOQCY5Cgy7xwNm3r6ndl69xDoPWfKPFsKXUFdai53PJ8QVYKdcsUJVEJzEV71tywEVTbzT2rF9wXvtu6bnnr7541TcpXRGlyi02TY8rB99SrJZANgCSfN+AKM6LR5swYVCA0hrdtnOzMw1r7yh4OUqmLuyNA/1jafQ6PFJEh0clTMLWeYlzxY+g6IbECPJYDLkrQdRxhhcDRLcnFgnaMyOg6YTTsTn7P1sQMbbhALsOZtWWLBZGLOGUfQVhwEs1Ch/9hDZirShUWM3mWrG1va1TamPGc8wwzwTNZ8ojumWEB4FMKi9Kosv3R21vM0bxl4OKN08xRGXFym02Uy60pFZUo4R5YsZkyczgvzuyYX1lvQBEDMla4CXyREJw++2DF0On5pkk+e9bE728wWu3AEMHeTXJ6lPJXa5Pj2wPw1FgcMGLoX2bacGi+RGyd6IB4jvFAnQzqZEEN5D6cySeOY0UIZNSKG525HpxEA88SSqgIrI151sqdnKyya3qTKG6w9SsC3ejxqkIWScxnH16UQCQ7ftbH1rjSYftp8kQ70H6RrLBgyUTTxBkkYEWmpCm6mMyS00yDXiaRYSclVys1/owtSV5eyI5iVDokbyZZBeVcEAF9srsPpBcZf6nk9VdwOugrERHL/BKyhN4ULIarquZ33kKSfZ5LXkdlT7rnxaff4P1wL4XREKppxZSiRW4stkI2cseJqO4uOFszDM8h6sWziaLuVRoyDlHgxu05e9PlADtaX8hNrx7DxxdVbUj5raOW7F+ywPTGSYVJwPACKLNzsyc5mlvIZ24m5alUsOOL5OqWhVXLM7dDEedmK+K6ymorkaY77TCSkmxF+cs2a8uSKvxtGJtARZYIgg8qT+Hv8/PXmwPxNw0oc0tS2M7CkV4++BnJ/mQtxNMUBQPHzcHniUt3c1IzMo73QMVXKdBghz3nMSx9WxUAmrUE7H05S5urLsDnlAfTHxyRSEflWr5LFuLQ6boJ98M0KWj8t+OIbfC18txTXrrgx+chhR0ss64YCJi1OJ3cMMgcZwG5mGwXKmAOLpsJ+1VWIhrsPDFg21EVY4JxJzmwpaS/kJ67sFle5GreRwrsN4bpI2UVjW7JHLUmyR3fXtjrkRGjVe2bYD7F/LRvoMYf9vq2amsW1ZcHkCpdEPVdTD9YqwC9W7z27WeAyvrvDsOGByNDHsNEYuKK/HgCnSyHtL+PrPD0ET2JeKdAWlDsuyhq/o/UdH4r8smnSONmTOq/OIxzdfl/frhL3WZ3EJMHVeOfxSa19bx2sBktvBAxIpuELAtspht2vkGtSV3JAZnCR6qVdM3X31LPGrpu9uQPSiwsvrMsIcsFbA/PPCYSOoktG49TQIFtn3SVTTmyzdv1Rc6VuHcHKYLDlTkikOzG0hM0QUlcTnjfLoIlDW1wtgDi6hNTrplqo+1gIqU7aMTPdOKefpxQ1U2Ni9S2MeXwS+Mzji+7tz11QvUNPBOE+Xjs8nKBuxjeMm+6GV3p8gWPOjBUQr5OGnrXmn16ul0uhFW2nGMezNa744bYFolfq5nnIdF5EWPp/Mhm5w3UGdB87csgrr2x86an4goMI9j1axrZDIhcgMg2nTaYMspPVPplNMCBTtxCdGAsh9rEGTEDzi5YN2gNtjzi2xo/IThfbTQEGiwUOqE8NMCqIczwI7qRbjVfZ6FlIzZhFtWPib42KmdekwSfjf79vWh1BrcSGhHJMSb9Q4tsIv6LICugqtrY+BfkmzrrOmkp44vwA/vua+T3PYbnI8sz03coy0cEk/vPx682B+XtEPKksFBnRIVtU7rg0LI/6k/UXQPN4pHw2qK0NlsxiQ2DId8uTJWvbhmcKCckaPbTuCQmKJuKzW4tWsVoT2WIo/AuYYbT5Mx9YxielTzVTBxTLNoofby9OQ8/TSXyF3Hb97XsxzwTPgumv8OLREghHjIEGV3NVbS0aVS1qNtfC4MBUIE5o5NxJbG5sYqk6gaC6O5RsMQ8FSWTOtrNdRd46+Drk8sH3+CBjW7S4kEUDtgMNN4nF+A5H16HOgkwj5A+1gMmjpiM6nZOFLuSmBswvIHNg4SRMv+ZDdcYgjZ59O/QyCCwsL89cIbEZIA+ylz7h6pfxhQ252PHKpk37erCv4sOTpKzYsoynD3ztLhf471iQAm0JkETiXLfuvMVtYx2ETTeZ/XimeQWvVQ38zHCxYtgV6mVEajL6EWcBL9uLzpprb+dNmeaRkMcwk54F862BiYLZo6fAq0FbjKqyBR3bWMsC5deH5II4bC7jlG9Xr62l6AFW9GidaIYOY/rPL8BMm16pbceMZmuP8+nF9kFGPrBfb7EeK9MQxpcjSxJdX43DtyR03rLmJGGzc6bkjJjF4g/pZDcVzRv/YoIfjpIIBNss68ToPKVDl2k+6fi+JNKaqe+S7FJ89LUjhxUnSxipegMmzaig6CrJo595zYw/soG6iZUwVj4Ko1EHyf8h66dG66v1q0Lt8WPq9gnMitIxqmiETQJTpoB4f79HiJ4jHL9ixTw/NhHd71sBq2B6OBCdMhyxlI/FblHgM6LF2MXOtLN8YqVpSl+SiZQmp70izyY+zO1RPonPik+28RLpRlA3wKQWad5Z9qU3f/qGBXAtHM2V4jzRkCRLqdjqC9F+0f726TLy4003+j4byk69hJjvDMzjRH8kxE3AZR3aQ2TsspQdYf/HP7QpZ8Lp4/Mjfn7HPkU+TT94rdnM0LrYHA8qarNmzTSVEpyjErdD8g0+JWcW+0k0157SiBnSEXOx/9GOpSeV3JBrZjCxmJ05F7N/o8L6x2XzVXXCWhAf01d/dZRyEp9saBFzDEQetvmOmmkZDI3i8jb+O4sjBCeOynqOUQBZSfmSY2DhQFO8BhXBsSoi7ghDYnyJDq2pyCI2nXIDWRQbgpDCy4bOBS7Op/DMU9lku+ooNgFpVtQD/LoAJksqiyZIE7H3pcmlmtpzLOjoac8wPBiMH7zdk10QN4E6mOWTND+ffGxFRPo4FFYyNUPV49Mv1UvwUuNsAGEA7Ja6kInUTDlaeP2In4QWJmVsaWu/rpZXIi6iDFxk5FD1svh1BzIy5s3EqkU1V4fay1wLFATzsh7NKW/hH2DNB0xsZC9ItZVA+o2B+Ym5gLfbKgEztgbWhMQvBKbnLnPzQWj/pJpkN6btqTY36fIRJpN6BYGvTyZIPUFGLUmqluHHxXNKVNt0nw7phCI5vU0t6QfarDmmOp3uZ7YbPplpiVl8IS8uOSDcLGH+/8hOvuUqxGqpFZC+AdqqgkA3pMlzgkSbCnsDc0BnaJ73s+PpzSa1KzNF0bOBuwdGwSADErSwjrdPBpE1Em5FDLeUeXmETUI5bXRY0ApqNaboZJEmyDlTfSynylYnlEbSrxvF0+D+ah0UAc37pvIVdDzhtvbrTIsg0YMfX4/ZlCiPZH1woDVJn7auINNe+RmJiPTXpd7vz2f0Dc1NPnrqaTGExkESeRR48z01ggo74cXftv9dSaovnihlscZJmXi16aCkISFNdVdtcs2sfcbzcWamRPzsN3XXBzloF2Lkibb0qpnWy1eZhBe8nP78enNgSoPH2ZKYZOBHnA5E2Oj/R92VbqdxLsHM6lkZGNAgkBgFYr//K6arqvsbyN845yg359rHtoQTiZreanE+haMSv7y9veOLXPg36kmtNXjJVAk9pKGSaB3ibLK86fcOvu3zw0popf0WFofMxfPT3F7YS62v//bB7Tu8LGz1mNiaqqOb88mdb00ClH+mF+G3QDZg9nW/dgmZjf1ElRYTCh6kHDBVwSF5FZ+Ax7XcDfYacfhos4iWrQQwFdTl+hL6EPrqo6QBHgdN3SPLqLflzMIJ3p1Bs+UdkzbyXAjNpMzivV367/OESX5hQ8oegAobrzYVztkz733mFH+WMCUw8R8I/sHP5LTnxdMpYHwTrGuNJ5YNnbUhc1e3d0YWawZYu1VZjPF8Wz2Hc/J3kRzARP+scpCXdlbtDZ+7ui5kVXnlBJrLERRhFR64JrOIx3gls2mmpv2jvNwGb73dYyirXltZ5pU4OicDZugwvy8w/8CJQVRikLGRCgn96HLwDnagYyW14DAawzdn+QKBXZqgKbWzfBIeXI3gLYtoA4vXw7iu6OoyxV4ncdidkjlNiQXGlw2Pb95ptgsJNUcGyvUYHbBs++PT4WLiNl++lSA5ZWVbuw2aT1WTv4GAjhWy+pWp5feSQybfcOhB5/ZKpiloMwiMxdtD1udQXGrXj/1DVz7sj9irNrD7sXJSEZjX8UrpM9mhiHbEdrHD3hVkeJtCTyXyzxmQziGzkWtlex6xaIVrGOoqKbTQlGj/A8mXAaOxLhofAmD2pbQm0epCCA48asM7n1uVTba2CD3DMwMnFDw6khLllb7H/E/lFE1TAdcIEAjWZlfn/fph8LQK3u/gQ4QayRPy6jowdGAYLQcRAItjPzDqZ6UtPv5qWBbW9TziSgIFWEaJ5jwz9mQoVtLxLpccEQr21Ufj8iDF8PH4OFlvevFyCS0G/EYlNEET6+ZcYTNym0jG++7AxJuVN58TNz548xtG7Ot3Eo/9hogWLn4uF+lp+uzt6wtiaAD4zQUhe9pSAAqDe74woM1GyMUjlXQ9cisStbfDhs20SAq+7F66TTWpfgtNtfiwORtMR++k7ffhmBCkwG0FMU0vFCHP0103H5IXYCIDCdazvcZRe+bj6b/q0c8tJ0oKuDMjhCB5JbtFnkHi2NBj2WiNVjMbpiqR1g0M9tZtG5th6QmLdQ/SUKrzeVfbVIvEBnut3bnxvMionIAd+XVUlrQwdpat30wd2CitF8tmTaYPh9MScjZo3eGhi1fgy5Uz4lqsu+qy5WsAACAASURBVORqF1S+eqeG9nxu2ONSrmb/Fuf54ZkuAU2AU/7u6m0LeesxHhM8666Tu17NGvmr2+uyHRs5NlkIw6Nkicx5eOid5lJx0j5EYwOb9XkZmYSsjzROsr4auvWcQ4Q9MmaG3MMJuC6Ruje4XO1qT7v9ZvlzSRJpec3f6GP59tsjDH47MD+xI8NDCaEAQxol8WyESppBg4y9iqYAm6G3z8/Y0Ti3lZp38iRJdJbtxDFkW7qZBFcrcOmWFXExmQ7O4Du8EGwHL4Lb8oAfETU28RAWKO2PsQFaQgtx2O4nT3rrVDQ91CgFilEv1jFfGdm76MoUkq09Lczs8O5VgyfP2FzMg7yS4Ru2Grim4LKP6Y6qEXvTWcNnnVqJTSROHiS3ogukhwvqagnwtNA7Y/HDeVPvT5j4AYMNd7CjXPIaUfXmVs642MKycx11Oin1L9t1JAbJdb6xz9jVnC3beCnUR4CeYhh2tjjF2kdoBfSEy/hhJHUYGWa+HBKPR0YDmUgpeP8gKWGPtDu65SEdl63kQXaSWpIWfdXQ1ZrpJRosO3r4JFm5n3VzEBDo/qz7MDyNrGfhfRk3K/LvqC/JT5o2EzTl9VOE2w8dLL++PzDf6Ytm/8OZ9nJRg87EuawvGKKNMBNygvAlL2hYdnn/+ozVN+slq5/gR0OJvusRLyWOHOU+KKhOfnVMH4Z90GQn9/4R2nzv42V28J/TBTSR9J7otVPKa9wvscfl9Jlo8H4AT2rOoyuq7y8kWq+ZvzAirULmqvj6ftW8idvJOHM/ywFopoW6bGOdlk1v5hmG0uNITy1E5UI4eR0bGabyzNnUfMsx5wBKafLyaETASwfekW1sbtB/ztJEA0/WteZa2BJdEqIQgK0DtVQLjo5WrWxJp0vUWXEVRn8ZPkPaYLqfH/bzBxRm+CXnzD+jYLpc7KGlLesnH0+cQGMQRSNKm5QuHfe9ti7TwQdUhjYUDHjG+VIOlPQe65SgxAC/PA9r7cp9Q0nCO+FQ7PaFOF6dxtlwSacRcWNzsg0yd2f3crnHlOmOz9PtsHk8/3cB0P/uFayVRTIpKB5KdGcIGjT2V3u3MFTZvtwMdaczF9i0iOK7LG+ff0Bo4myCgeEVTIyCTwxoVkdpcA86tZAcEnGEy5TOjkLq4kHAS9J3xj1l2jsxNqCYzqYu5fSyvU/Xm0QwcmAumjmlgdhvJnxuHn1/IbdLD6aFRffiYOuVEz0t3Scf4qUzA5kiLhr/KEATfz4OPUWVLJh1jVq0O3/UJV35gINSVayhnTogySMLdrcEZhcSaRwlya1j29o2DsUOjbThi6ZcM2kzbVxWyOnjkbDRYhe/bjSilk24HgSNyD/J97VzPu7kwSAGQpTMVDoDp7G8DXiS54+q6QyBrF/9ssicvILzkSyxCE2msNOLEnuwsnIjiY5mhFWHDKa+cjMDuPvm1eXC+wouUjNHY/T25XjCAhsYvDBGuuPpVX+pICmL5yHumPY2+vpPoth/q1D6r0OslE/OWBmdd03f64xfZIVU8R6EvZj19nk2vH++GzBv1qvgy+1mL4YjzPYIoQR9S56l8hI9+knxsDHvJpf38eesODKU/C1YQl5Vh8NhW+lM0l0nMtG2it0nvvvitdeLaNTnKVh7XjHDP/qVcUBgIiqj20xLntIZVEHtfdSOoKLrH+0OQRijm3POKIOZcaIGFyITVwkAs8QNjpvTmXS7eXNTBxYhU8kJ3SavRePRUZIuJayR6ovnvJMdHi4N/ge+5PGzS0nKGwHOYVWD6FxzsPRiC3xyY6MZdpz1A10XAEr2toTi4xWhGy4TMB88XqS4bP7ffQr4xblMHozHACBYL+J9x3rIoIQ+yaY9sdfzDLHz6Vz1SuKPdlctOlqlL53oX3AJY5H+IueCtELeu3cBu9jbNCyH9x/fH5jvMlmwdlX7Z9rEcDFn/9UgPTEsAKwnvzafbC6wJuZ0Gm7v1szebgaAYfDjs2IYbWbFV3rtWTMzz2WEHRN99R1STibZS5Zglda1gEuaKSe+HHdKOq1IQPbkpSfqzybT3G4mIT1KH6jd0cZScu5BsgnyLVBknsAf+h+xY+hpV/W3HftOdlSimHr4XqdUdhjZtR0bU6+I8/jnx44DZQ1X2CZ60wbGzSDM0bSS5FEBsw1TkZq4RVMsiDZkLDQ8W1LeVfOzrS+mIXujV61bpyR1HTMgmpBW101Uy9bhSflmPdZ0SEABRdtNPxKY0z7cwejhAH0EQ+in/1oxTIrh5pgJKTiASZmSzJqJqSE1lcHABgUjV2R2F0Yv1LVWihClJKwvPGnNQyhyRlac2D174miTh1uXpwsGLYIMg2CVDp7uZU/qH98fmH8NVWltWpHlreZ/+z7bNG0NLbjXSru6UJtZSTYN6cnlyljx041j5sIxMHRBxR67OUQPF563B0JIgWjwYR98aNe6q11NuNMpdNAuxwl/Q0FgRoGk1NYhGOVSn6iMBjH1Dvsg0G4a6ynVzY2yR//izdf9WXTC4ilUBjK7kKncSUDQqPmYRzdLd++ojgYF2LZUbgl75iFkPO92VjRz+sACciMb03n0yHnAqIJFXiu5WaM7R4nRECOqvYjmzZYu7bThUpAQ74csv4xVaGIZdIecjIMnjhcyha6tQKpA17XjXA70o7SeWOrmdePOuPMYFinI3oTE+qdVqa2RDbdaAeQkXGZ0xoJfs/QQniHKOWgPbz7ChWTyIqOnA8w7WWC9dCrZXc7sHUCeVGGYK7n8yRE4CknBNfcdtoi0vZaUWZFWP6rSadsEqdT0/j8A5lt3rfp719OyKa9gm2jPy9oeS2N1ypmC02VldrGnYQSYd/hofmcyIPO2gE67+DGDzhTIYBtg6kKBO1aclL67B7CbyPLMMalyhgolbJ2crjeRU1k4ag8vHPXEk072QsewsCWlcz9tjrabczQ3x8uzwtrjckWj9VEzsHk/PhvX3lOYEQ8oMOFhBmUVESOMpur6FjkFOWsiKbEjrhuttbIfH7vxajMR3EtUsQwHBhAqqnEvsEELSkvXaFMGbcDkacRAWCpor921eUdzIKZLw1OIB5YGLux1w1tomXeKWSCtoVHQIJhxbbuD0YHqp7pbDpraxpK1V+f2FzTuTZLn3kYFQOe5RJDYY8QP2gHN7jHvI2YFkn4Pw3md+vEm0hyEAMvbPs6KWAX1c8MtbCcXPF9r0z/pRE9C6sHkadD5vocC2KvGrisIH5yz/GqAm7Bz2bMIL9HKh0IMnjBv04/vD8wfYj2uWdZKH28Nkz0bsdNv4e8JH7IO3UNXHC721Yb7TYZN5Hi1knqyovkueh3J6e72Cp4FYXJcGVCjumnfFtAFilUm4HHMfOIHafYjtZaEQDTFYV2yhJ562ETZ+yAKhdOXsPjmV5Rw0lw2d8Xphe/uYF2dQrZGAn1yB/oV+X84rnhtBcWdg+adW6CG+1kYjVTw/JG7+9zu7AHH0pZr0YPGdXfefZzVZ7J+4Y1uuLgCEvRSt3qWV11zzzprK9vqb+qutbtNJAsu0BCgQYIWESPF0VqO4///E7er6t6WfOZrsifZs5OMPbGdY6u4r3ow8ohb11ljYM/l7qydURgFS8CZzW8iCsdazgeBPlUQpyTDZYZkHnTBnrNWujvQ2WDedRzdwVrAayD/UqfODqd8JJDf0NMHk8wlVUteEzHnsVZeZQB7Qd+6WVwhOywsw1Jt8vtJkyWtinH6xIhooaIVKesV9ZXRtF8AGIUlMhGUViAqZCLIqBDFdYRac72oSF5cZ2K7E6ycqCeuJrzipuP68ucD88d/b2beGHvGt+GJmfY9ILs4MPmYmXIw1GguVJ9AcLOhp0C+21vKk+YZgyYTiaVX5tKNFQtCW3SxCxhcN5NR4yV9Eil6nUzuvn6iGGjNCu07bXqnZS0MI1Y82xodHXBlzNSexx1Q9bAwVsPRTYeeVkZeRU9GO3hQ9TRpfvy0GOxHhq5XThDbsQPqvePDOqaNraoUzEZq4DIZ5WYGzeYg3visTpQ6Lt8uoriGpImvjlU4ZCwGo69zIpSLSP/gxQZsZXt+BdmJDB3nU6az8Q+Aio8A0NkMaEHDx5R72Nnosnh2tMRE8u0MYCY21QEVf6AEtBe5F/tnrKu0F8zdOwM4axmVpRBqD7HXKMjgQnHpmN9LOLk2cqLTO5tajZijLk0jebHRBk5bA1U+tuNN8+YtsQmt/EBl10LCT2N+IvQvsHc0SpAmMGXC+PLlzwfml/Vu4qZRK0JdnKGin986DAmcsXlPxpS5aZFNYCZsAV7fr9tX/O97c1knZZ82WoMdaSO6KH0pj5i3aGvQ/NVibFgcJ7turC7UJC9ALNpcMSv6DZM/rXWQZPLi7J3Xh9iTRfVxG1ENP3+SornVyXl97oydgfsw9Lo9rWjvknEW51o3k8aoOeY58y7GOLmycJmNVGvVAqYl5+VvKiSVKYMChHHSStVl2oFioLcWNVy5sOU2MsY7XEB4JuG0OgzW2gqU9g6JOYNxCSBX8SO9LXJpwIABtJerFz77K5GJtlb/oIvlaClyezdrAoWwqpet7cAlrSXK6jGEgZOH/dza0glJKNxgUmYKuFZlNFrC2bW1EAPs2P3q30j3bCjER0aJMGXGJTOg6CF77EZqc2cnO8gChbBm2kLFYOWLUdefsoVkvaEZM3ex69Ol5M8F5o+vkgWD1AJTthpFs+70YH8L4HbA8p8Ej02N/AXBSpcMzCuBifn/Wp1f/vNVOdv8Vqit5xGFkW8Rl8x1xTmkOclKAldOEqgQV2x09tWpAl4Seft8ANO3qoU7f3Q1tXzA5G0qwB6fjEjEK1jPRbVdjEseXnurM9yfEnGh0KSpzUJF8PJ006TZMegGeMXTqAuxlPnlnJu+lp6UIAkgRxbnDJr7zAdTWgmYkGXlwbOjex0P/p17iJDlytAgpfFZqTQCQdcla4VJqSX5Dg4oyDjxyso/3ZF0Dw9o2xmhPGZUwpsE11QcNcnHGyD/yKhElztLYE1IAuwiHmBP5eJvTqLc1eqWe61VwyQ63UreUl3EvYRWa5HrHmMg2JBMoGzommnRkX6gm9Y/vJ9s9tECooLTqMPURgjOvvnrh2L0ZyaVzZOpLIoEvjJWP+cfX/4GYJ7uEWxKugTP+jGwvcKi/H2sStZSo5YEzDwEYG15urzOYZaA7/1Kht4y+feFxA4crFATYYWYUcjKp3NmJfkB7OmgfF/l5+SqogxU61sX7n34qFsWt6ZVv2wtrFmDH4sC83ws55Sj82eLQvvorierO74fP3tIu3m0D5sfHzf24LfFLKcePu/azHLMvCNNltrjxM420P4qBJ0kZjrF9tqd4DDImqQKSJ8flClpRGqGWw4D/DP7uTDtXCNijj6D6b7QnI605hhxETlQb2J3ER4uaTfS1rI2kFE7/Di7jMNDl1ukPs+cHf9G9Cqx6h34kbUxjxhhzT4KxtE4z9apvyZdOmspUIPLxGv68WBbuFWKHGEk6BaNnOLWrl7RporpmCLr8zPI5ZlZQha1d6ms1VUYApn/4gBVo+K49f7xYhZ5k8tfJjMXkb+zaTHX32GL9+uB+eN8D22f8PSPod95wMo/uNY0tLKeammLhDsvFm0G1uGaa+YQrjscncDFmr7+8xV2EXZD5rFq8aaWccWaLWiGYM/IG80CTqyhN1mUlspmVRMj5sqJ1QdIO68ci8HB4pvY1dgHR/NNNGCez08G0mUoPT6RbY9FUSZo2rAp5qxxDFy4/1jP8nJCgZhev/Musx92pWC67eQBYHDDvpVyLhSb3gY+Zf7hWojfh6D7I9vV7h7cMUTvGnqLKeltizqoO3Vc8h7SW2T9YIcWHjFrcYlINWCy/c7/w6LTdrO5kg+M6xQyB5469eGg6CZVyDRooO1NlIrnDxQg6NlHj/K1qQ+C3tqWPyh50Rxr1Mo25fSPf+HlFniUT0EUG0/m2Rdznm0VB8/8EmAYYlWuJfVuWbLDP9Y65KdoJIV+feerZjovv8d969cD88vpXqd9vnNNMEBxgPNW4FWr1szAxrVy56PKvv0bBcK5hYMN4judVzM0p4xM06Lyu4PlTcM01HLq1TLodGM2DMxcHZERAI2nZnF19fG7/eOuW4W9R2HdWqh9j7uo9bdFan0uuu2Jex4nJYhLK1f4h6Rl8XhAS6wnwZ2zpjsHPZt6edXEbZOuzFfwvkWthgSEkmhWmgw82X5g8MyQBVIo98CeFIvSfVBE0Gxn/2Ci51AGSvmu6xopXMrNh3y7MThBthu490nBVV7G91HIHQoaz5dcEoWMfUo9sZeiFdiMQsxue9jhPMQl/UweIap+z3qdgpzl5XxrxkdRM2bl9vTSTIrUT6JAOWOa6atU5ChrF7oLOjUjGDBVRFuxE6KS+rAT0r+OFSslAcnlbYsXU3EPsYbZKO14AtgjfjoupK7/DRXzPrZ56KCRRjfIca3Os0h6mwd1F8g/npqxZqwiHlPbJQ+Z9YZEGhya31ExA9V7b9tq50cAhz6e/P6wGimqcEG9PNFYFI8+ZA3nL92QGpBrFdLHhbJzmQcFniNXST4dekyqabAXHSvP66d4Taf+wHJEcyY/0DKM5Ahfpky39SubWjLcf5pv14fM9j7vZXXMtJGUt/63GdrdOeXXNdic82Az2d7BtcduGhlvo21sEMze4aWfC+k+oIdN3CXxzpmHxgg6e34LHSeEKTWh2SeL3+NdMuhzko5OTyDPNFEaGMtkX40mmg4yQakJ1VFe0XicDGaRMNg6ateJlNPlnAjTNJO/oGBecoPHUW+BW0Svv+jRXIFKE8Un8TYpQZwD80Q2D+yXG9BaJKVhu1tzEWuwq+KNixzFaDJciEXzMvp4qfYYia5xapxGoCx3E3NL2c3REp4i0mD+DcC8jfu3fb7dYhvy6LO/7vjxh/dXXpvfAwYEDvYbiJ3tRqJ2e7nS523LaCU0aUgBqfv1bVO2Aih8DRlXPGNOmj4rxYqjW2xyzazGU2zQHUbMbpYLRSbttNxu63G501l/ldm0XSRlMC2dbpGciUR0ftxFH0eX46dYalv4mlrbbUgeZD4DppVMMIGIwG8fH7FBxvwTNOXqdcNNM+LPyONSopNrCpJL1uDykOQKbkACNNGcBJYuKP5BU+2SGADqVSXWMh9KDJ25TikPIdczlGCFX3KXO/IcCXwd5sO3nc55gGUwG8zA6w2d3SX90qFTISGhLoKVDH1weZmikPumNP4MNdl5pMoSnfmT1SzJ9NtMaH6ZdYY5Dywf3Bm3sehANpbAygoolzqND38odBvIBxcYTUHG6hEIqK34XPx8+ZUTlN+1VFK4jgr8AtuulE8WVfR0ufE1iw1xfYyCJ+8Ca2Ut2evPB+aPl1PMYBxuUO7i56Djcw9vpkP+WYy4lUBTSG9xDBRB8htcqbCVRVDdvoPebGEYqd50OrqUKX/ynVAV1dHmsglg8htLswB6ZC10CGHkDNdAeay8UWZdDEgK6d2os4Y8pYQJmE6ofaRqWmy8y05ckmKtb0l0+MSgfSxo7wrEBavd3ig8oFPz5FjLOdOuJoqlRNeXSN3J31guUWEYYtowmlFyY5p/o30W165dEjsWnCKdRGrzraSoGfsdo7fy1iFBClrT/vAt/+SGcuc0jRgjHCwwW0cUVtBRoOccimm4m2GDUCtGgdLMNje7wGTLJ80b+REDk+x7nmiZVMTbJV4QaJUjIWjAbK03NWd1MvIAoaVSMALKI60xYYchVo8uJqMsRMqdxIyTJpfTPcxlK6MIGQ+vUVymmZZYoodboExMd0d9Pr/8X4D5Cz7/eYmH153XaaDysLuogI/ka98qBzLVYiiTsI2xn+3s9Y3Q1Me8s6d9hwF5eymX5LKEowCMO9mTqU1yFztBF4bJcrFADPyG7FdNnfkHt3qApkmmsai1IFWPEvcN0GLK6kJut/Xt8oTM8/owkS6c2X/Fb65PayCF494sOsy1Jl4xjQnMaRP7UTLKySiFHmlgzmU/21IFcAKWRsZpandDFVanKRKuApodB11A0PsSvwIamDp2C+mdOpRh2zFPGnwEWdX13szC80uqEs5sWAPJXHk0cjw7V/z1zNoAGSn8i6f+0DOXoQ20vHzj7odHzSTzoMSEhlrCZnxaK5SxfQBzY7geamDctEC0x7MlrImSoxzgUWOleftUsfzSjtKNiZ4+agPU2H9lX1bZLwC830lYKnmvY2Z9M8EqIb9eXn4PEn+DUHpdx29zl5sxkEL22ZLB9/2VP6LaH3pJrOH2am/CfTek65zciAolU8CkXfn/qDvXJrXNJApHQtLqgkAXDAVTZoHM/v+/uO95Tr8C735NqmK7Mk4yzngCNN19+lyy3mbOoE+ceQHkdBdRhTqye+LKuaY1kxRFnPM17q38W1jpP865bUrP58TGUKdMpg1lbPVdYdMWnztt3gXn4zx/kmwjs+qYAaEAa9+fx1ZvxdbtmJ3EOWE6VV7xck7NfdIzexPG0yP1+kYoOIrAXnnAHRFxIP7wOdKzq2bZMbu+dgdrvyAG6H6l2HlxX8OLazTaw1QKHUS0ArHSv0RdsB8Qmmx+SV+8hJqndJYekEhoprz6Qk/dGYUNuk9b9pfOaNV4wDUBCXXrI0pnh3fHILVLmXM7SS3T9wvhNQ6Y+htdIk0q36XCFMVuB4nV2q4eLGjaZzUmaUyBFDmwBE58qmi/ehQOVlzrkJPlWJXNEC8+vP1jJ2y3ojFQqD/TU/yv36Yw16k9LI2uFTCuU3EeNMZevkQQaaorCib8xEcxqysPK+WJXORr/fI5K5XouCgC4/V4PG6378dyO21maiZirAgLfNvMYeKp9mijWjdVhnRVkQ9KEn6yHRY5KOYdnI+Z/nz88JCe5m25nI+/pIB9poHN2+/OY+46ffymjWyb51nX5TFKf071uTlFP99koHt8AB16DtY/lq8XwkYhJJo82A3Tq7k2j9ZmdkJgVUTumE68bONQ2dv//RkMgkwwYEzVivrMomKleB4u40GlyUSMFNM2ebgNUaKlsR8z2vOPlkE5DdJY7Ql67boL34Zq04wanUHTLtOZkcu5pNwqswatElbo1GdxV4fgGfR9ROfR4AYvhPawy+nRg/3dhhh6XdSku3ucdaQ2F/Q11J0RdPSh9gzRJRDQulFbvGtGTEkE1aZZdmMW/PML8491bQ5VE0mn7dK02jJTr9THsRuKMEQiTYkbks0Y0/Kkpb4cc2G6aSoM44Ex6ffrVkPuR0Oe0bgw9QTSdqT4zgXgB70vxD+1kXAxsLrpaOVsvTn7CmlGIXgirPSUDrhJUc6/orOWbWfLri2SOicBvpntb1+vbFQ82+2SJdRJypFTnW8l91/0Jqbq4bUqYx1EGOZpsLWNtmi2g6RRGISWraso4FSZkMTVg8KsXJj2uosMW5v4+BPlk8IUtqSyap/Rh4PEzsC8uBT7eEOIwvQQWot42VzG1ldrLIAaXBKAgZvmK1W75lG7bZbGjJbWEfPcM8VfgJDHiAygKr9c+ic1uIacK/KhP8tTr4mCe7axW04lPpNcr7UTmUrs4QoHY0pP4V3zFAYuxTUsZK9BxstakjmbO//ch/361i9/h8LUitlV3SDKJ4K/kptVlT4+0vNV+G2MY1V6TH/uFbmtwiQRrHQGcllFJuqohklt6pe0bQalGR6emRh4/+iNbeJm4uviXkLKAc9ymXfY92oAq30+Nc8WhYrC1NoJW3drxYQB0dNszXeM4+R8fKdYZ0fwKMppzuygc/Ys+f8FMxcmNCRLtn9YaLqiBCV1M0bZrAHLV00Mu579Yl2GeBrfaQWvYslsAUG1rhm4WZpob92G28A5GEXKo3pQY3P1tCUXYfCUmbtnX1fNxfCp0NGyCqVmZ5prGV8+emSUd9pc/YdWPp7iugfyyp+/+GijeTg9vc/mP4cD20vt/PkKikELZ6+sIv0Bz3T1Sd4NqkKDKQG9Q5FxG9hzAdcghQZxdSKpqbH95lmgfbFC6nqry0GZ7DaiqkN0Qm+lH7+zShwkZP/jbB6b7UR4H/73b1SYUyrM9AZ4T2/dy+FwSc+AWCDt84ASqNppl5QslQdiPc5puAyXCOW4aOW8XtMIM35btqegmvGjMm8YHV9jknX+hSwv7WUvI4O4Y+wJMh2qphYYRKMU1UCEAy77hNus7q+ECYUl+468v/lIT83ikYzOsjTasiR2Ukxn10iO10XmY4adM7t95sv7DzgHj8gZ5+BTfAnsuu5bFErGg57Bon3CjE0PIEYcssPTZNuVtYl72dijHduoot7nS3KFWnRWHDq7JzyAHscgdVMdR5o2bBHM+pGVpmG7qr+LfsdnmJily2x12RhtVA1llxGWkZn3gEYZ8wc8afWdYcYnb0wLrFqQUTVgKTibxl93qTtPsq2pe6WygEq8qW1tV3MmqYcdE6xaICISwHwH7jGHA+sMWzjtYNqsxtmdjNiZOm6nVJi012vxvqfcUGAPp1gshw/C+offukw1csDXfv83eon89YVJ9GhfLYfWZlFpv1zGB5K91DKL4qbgyEL2/ekFkCpMR5OT9tGSc91LEVYyLGsauWM8XkLwVJVpoBUY9K1kmiLexnICd5o5rse95dSAZppLU8/U7VKv9XkygVYTrxql0CDzD2Zg2P0x2xvs53Bb0/JKZU45oiHLSGyXENYlXE7WOWLLNZuez2/0x5lFvrsEVfcjyto47d3CTYXkYHv5zI5A6yagllXXvYJXsyzftua4vGKezSdBz5tpt1wq5wHhUsAOl0oYcnqvSGvxC7Q6Oowvg0Z2R+C6opE1LZkHZl/WNXJWWmbeZ7RJACSE1a3JCfF+sCygvJkH2+KrEDfP9x5aeozln3EqSW86A35hEfuQfvqMGfwdLZUOvOzDGd3R1MBAJH6aiqDMjevOuhIVWs9qyn+xG0o/UJplq+paZONG3y3dLLm9EMNXkoJeSotMegAAIABJREFUOKBE9E2bVE44Pe+Pa2qh57/zPvKXF+Yf02QzxvREKIcivXIOzeHr8vg6PB5fDcgYt9uTzRsKaQeJ3SjHy2u5POrl0qVRd2w7nU0e3xpuFYT6+HpA1buNo/IWT8BqGxq0Fno7g3YwwYKdsAXer3d6YnrRAwkh6+TAAmo7YbG3302RHITrCBZgtpCx7OudZZL3x/T3azYwyP6VijXWeJyR2vPs0LGNMbuxdQ0DHeO2GebF0n1PVqAQCvlhcOCQXAO0nQpTtalDL8jswTPtWLkwIy6oajNKm50ogwHLvbHJ1j+VbUI+aHqLC/yiSyhQZ1wDxZztLDwJZxGvtDbVE4uP0jYRnkNNXnLVNdP3iajz3ZnLWEzJyxaTvUd32sJkqshksbcfCq3w7sFShO5oHp1LlPePOlh0YTGJfYhT9+J3F7bTwMf+pC91DfCnGHZF/moBxUoNFrHuxjPCCi/z2FmjflV6/eML85xeXRUe/Pag0dMjBsjXV2qYh7a4I7a5npB4GQBYeA9VeMfttaCK0ICmW6ac6rV2YnkYbTP1zReJNHXxFuVYA6bFUGW2D7O6Se9rqW3O0+7ei2arg6YdvHRKGTJsy0x7tCTz5+zJGCRpv+XWHiNdbJ7OOcDWDtT89M7pjrkVZoCx67QJwCKV00qU3Tpt8WKZSTRFh1ynkGxmIKjP5rNygnixZo4+DGN4Lgoq/SoI4120QUjtIEBVT7xBXUVhtiH4ygqwrtkK0+LLpauiGnwhHEoq0y3zDcIiOMFzBA0KhgddpJjYY3bxt4iQO2tAo3tizRNm6SM5eC0QbeVzpv3DCvZQk3jMbR3y7BoFB4egBsUx+BMly+eyN686JtiPpPrERV8Bjfwq2v6T4hp3UX0po0D2+Ppw/NKHn/9Tl//8wpxXFWaafHriYLRISItUNg8dTCohZtewcwDnsX1EetBIi9AFU7ygctEIqwiJB0Suh9zUUs9MtamBdrylzy+303Zm4uEyT8C7p6zycerS638nHxhe/yrhwSf+ISwj5epVDPfB5D1W1NR4d4Xxn0yRpZMe3yrpabrL5Wf6CG48hi1Q6ErsOrsiQbObPF8+jifH85Am7Q9fPR9T5K/3jF1zciZuzLMgtKlvVZlxerHiy546psGNmZieDyH4UFrzPIwSXPTm5uizBoGq7frpM6QkLLFKKqsy/RUMn16SDSWuVAQ6xEKqp1bLZC3WQhXgUGe9ZVAcLn7rWJwcSNhC6NO8XToGVETDUGxWLkmyfywMjxBawpDsddcTgZyboX0Jetg7Cl/v4+axeztxyeeu57HDm1JvAhxKwHZzk+WvoKnbCp6f160yc+S76AV/M9Xnry7MP+fdXctMehOD2NU1hwOMko5LZnmVXk6eLKfeAaEabWvl33wrkfjlhSkV4wNOpThAt/Hy8A8K8/thKCiV6IJmtofwgRX3ztml9vykMBlWOXH6cK8KZcnU26LkKGT86Hk1JQegVtSr4S0vccvcreuHE9+UqbCZVBtCMfbNDywW65Ncv1NOoleRDuyWEU20BpvI0X5umiRXP38pTaGz2uMWZguIG37AugjD43bZOgiBR72lAep/UFQcpwmZ6hPchdZ4bJvH3s6nT5Vy4dmXqZPR0qG7fTTi1pIvt972WXlWdXU7KIGzVxshBW1cWkLCYokZpHvvpjrICKmKRAOvm95GK1emCtNOBF4cmW2H/INBV+HsYuSFHAzrWJ/KAGXzV9Zrrq3zjSXG12wItMW5m2xWXHf7/VuLGcEl08/frDB/zGt6s0uvomF40i5FudQBq3s8LoexPp32BUv+qZcodeBplqyufj2IhlIenUZZeFwkui0jZaj5TaUJKpl+uQDShqLdFkkYATn1SUQNzpHkSzDX7jIfjh1TJ+Y7tFpZYqZnDVaCOLZBrs0kHvsDpcL0EXLKFpnhynXOhRn6y2ljrTvTj7UzWHwrCWLkPViNOa2gSDHHUtVrxCzc3cE/D5ysmj12suj8zRBnh8vOXDmSi9sHZFqhMxAIqE9n6NEmn1UftKKM3/qwwuJX4vyoLa+jwRipUX3r6uLwP1d04xXVi6e6ZhO+tF1E8wlI6YMn2HQovqOrt6SrCPnx/5FgQHmNWf0V4SJdJFqanSBrsmiY/6Xuyrbcto5gsOoCIEDggjFNwmIIepL//8R0VXWDdPIY2TmaY2ud0cYp9FbL4JSdEDzz8fwopDQh3GAQnjIfKayKSkfQjai8pzIYBvKprT6pPkwfq246Y55uhwrbyufMZdD8+08GTBsx7SXCs7226R/VcuTN5IopyMrnvzZWSvwHy4xacxGWAfk5jsxsMyg21sqCG0SXoJGQ/EI9BSTJNdDxhKQDOJTcDmqxGLSyJ3Djz5k97oKDJ9tGLGdX7IWpAOJ9v9LsCbPanma1Qaw9qOpoZeZPTckvYUNy/vSxjNiwiLFeFnr8hXHeIyLiJZM+iELk8qF3daY7GHli1M6fqNQ5dk80hZAvq9QaoejABnR0U5BOe9FO1YxolIlPbIV6H1qdvFMqDzM7dgcp9HgOUflSwdxbhdQ7MJOEnoR3HUQEAjLzcdFeuWuAHy472e56mJRoGdw4ka9ldcUaSKovr5R1x+RAlEq5hHh3+macH/EuRYileX1kjiXMVGo1vIxEEDCRpJbvtI0VD+/grN+Uf1AVUS6V6lXF+US/+skK5t9/NmAimbA0YFrdpCpwbEHHe47TRk/g0aonhOjW4XtmAlIJX7iQ35HQxrUZgQnvxpQul1SOVjhf23NTudzU13o7y9xFPTMVJkZ+MWpkMZ9DB1IxpBrDJuqne+rxIYoDZ3Viv1msanRrzneGGvCE7NUYFn0U0XOSAd+HY7vsapH//ikDc1gelFqfIBkapkMlEaowzmAe7Csm1JVFF95i9l7/3Of58WEIrdzWVoOmlAEv+bZmWj4r2D2BKtSOWuWggGIshNqj95QulkdlwYZPbOpKBDBbi6J3wUTHBBRsZAg4DnmgjezUkrQu26yZu8c4PhlKZ+X2XZ1njxAUjJB3MejttWwlwjyIC24fL75EXfqkSpYJzC2DucN1EJk60bySECAngmGFkzNz3pVZSWBiETvuwiXKIjwKei43Rnx+NTefUJ0gW0SGrgJK9E1Petd3wK21Ked2Ov/pXiI/GJh/Wx61ztd72uE0aoCEWdMVuJrg0vR13fLlVtdNbf8oNdwqhcUBPCyUyAx1bEl5ERXCd/sX71sS2smbtSrxepHcvm0+a75K32sj/9dQeRvsGV0UjDac8bpWJxlDEz1V306JwASVYKYp1sMZH/NK0yAs8UhUG7AHqgizSvYGH9lDRKI4Q7xYxnpW15BDJObJfZ6HO1OPZpA7r6uA6cw9yEfPcihZ3ikLbIKDCLR/EA5sWkScJsZxBefJsSDJHJIQTaAHuWMHbCi56Kw738q4bguw3cmWZ+xlZJLUHY+D6c2DrRXypUBPIKUOnRdDjnA3Qehf6RHTipCHWVcqfcmTjtAhEpYyzyz2ARB82xNE61vJyso+Dp25p0GImHv0/+BtDc4GJc3W3c5y6P0KWShOFifr6tbgPCKdZeXLHtKJWDoZkebk9UNtIpNKBgNotry5Fa3LTobmdlvPf76XyA9O+/p17rm7a/1zB1YwHZpZyKVbAyYmza1pLlAngIDHo8iYyc6CBa21GaSGYKzADgEazra82Ji56Y55fcUqCPSXiU3t80ojw7CZYMyEVRyJdYZq8M2op3HNBkxEuhKIC231VhLbK22FnAmnA55ItR8CkTnMtrSSnbXKFTNIDPUwb1/eibmz3yy5zMX7oRau67K8d7p8bAD5UWxnp7QHn/azoVXpQyfL1SwoQO5Cy/tx5I9QoQlKEHGSSKWpI08ooCbVSeOJWH0fdpW1b31cfFkyN8w+wsX/RcTbuVIsufllHUmb9PRzM9rUuaCalrh4Ykj+6UHyDHvIEvt13sLGrji5dqthNy0pC71iS4/tepPbP7Y3J2VMFw0FpIOz7nhp0UqJxHiATUYGsfz5nDILAfOtN1ElvRUr04P+MiT+CKH0t2XFPt3aWORA4mACesE4PQ2QNm/WLYI28hYzpgHz+oTh7iXjudoxTsGAyTTEEjGQVAhP1/zcOFGiRALjamSbou+uzxdr5td9kJfhSSag2GnqbALvAsYL4QzFOKGHPTcQnovFzGkeKOB8qJelpBqvC1ZCD06hsw+ayx/UW0whY3uqwinH2geXOev6IdF0el9EILsFtOTRy/m93V2IPg/zY1iKY3L1OLMPnwOl3cKJ6yWvjkybvDxqEatPe/dtjlUr7WTxUYPOHykst+Ktlm2Qj4rqdw3JA6NS5GDyYdRVJ6Xc9Qqn1vkD8MMAwyET95KalVpgpLjrcPTimaUVX9CzxLTByr6sjdE3N55Ay4vJgEVSTZMDOYcoKsip6H7zQJ+kswbys7PusSIdiF7be45Q7x+jmvuGZsyq7ImFyqo43mWYf/32swHz95nMsb5va1LHUSO3CcE3EBGlGhXzmXN7KRUqWnIFOwyXsmMqAKJ07H/cUXqlSMBSfOqy+HgcLUGFx2nla6rtsW0/ZJUU4FQylP4daZU/S9sqguOJrnigIMxkOaNYciuEDBSbUPBiipNAbsIJs95KIedJhXZe3uZ3x7LHV6640+Dng+K3Hqx30GjF7pnDB8htZDlOnt+T6SK2zxr4fIf6rX7pcRnKg9lDJALJxXx0Tp5OJcnJBUm2PQJqZuyzsPh4EJqdvtMrPjKBRYmB0bnpXjM5V5auBQv+XjAL+j7Amo70MGV0Kkqo05q3dI89HUneB9fsRTaptbavaNml84paWbaz+AOK0S6jWKhMcM1EjQw39eJNNmBbepKTIsZKK+aMSZbYpI8kBMqb6kGxYY0Yso47qEsGpYhVb10mSEeIv7o8zr99++mA+evKvR0JkOta2LdaegGjZMLxaeJYmCfwrG4NiQR3ZnPksqHNlD1mv65f1tNIUYsVLQI7rLDabGofa31sBu3liaNnZwPR9jTcg63n6YrAJieCm9sOnmaVQJ4y8WoF1Wdmut+KHYiVL/KB4mgBgFRABniYPK/MXgXfLWlcJmkDD2x6Dvyy/CEzDCg9O72Wux3ugPgGTtD66XDwroqrBDJLpG2GM+0HsR2FE0QZwoBuPJ7oTHMPIYtd46SjSe0BB/aXHfrDqMegeVROt3nW3OncG0NCCgqO11CULiFXrW9YRod/dDwoWnayGjCT0BeZnbTlE6dWbED8+YBadOZ+yKxVYuloxPNlqdmi5xO9h08UEXY/rpiH2PkwSwewUPRBOlDIEFrfiyv1L03qb1KlXOSb58WR256bYOma6XenXP32Vw+VPwCY1slCutAiKtXq5pDaI/MYdtzg5SGc6tpORU0Npp6DRVEicJjb/zySQGD1r6Wr6jhCdoCxcqTb7Pa8sDzQ4BI2jV+A7bY578DQSV/tGlkd7jmKXbciNdGVcu4kIUjcoF1lCJw+QezEAreePHZkoBMm3dtp7uVMADHgF6+wTssLfyBPw/VzyeIqkkVf+TYWu+E58ojCF9phKQDH4Bn8A/20FNS9om5rJdtRc+z+ra2SM0MLkrO2LV0AE6yKPnpFbALSnhyLtZ9BHIVueXDA1mO+SqmkPag6Uv2k28LvkWndBWd3CGxTZHkmCq0jOIUUIPedJjBruv7A+Of4jVS1s/MK8DwYwpcAjfQguDYuJglKnZsQFKEOgUIevWmkGl76aGYvl7pnIq14RMXB9gn36OI/32y0eWft/UzA/P2x8tTF7Z41Me3UTS36WMASZomGS6tuVgSbuoBROx5VkKjfSTODBxcikg1k19wkWZGPJc8uZP08t+t2bVgjDOAivnwRy5tz9bikvV9KHN4ZC6X6qHRwvuGwSSpcUXHn6WmWtPDS8md2Nq34BvzctJ+u+mHf50/2XeTtOTTn+dCPfI6j5LLPPFESjK6Ojm5YziNzbKYe3rHOETD48IrML9aICYvbJnPBSkChaxVVkju/U8pmPXfdYaPuoi6UF4m7+vQuWxFF4usglkV672F/3XCjR2Wmv5c7V/Zx8PC+OXditMu1pBUqvVZG+iYuK5kYpWcBP0BBt6QZjMm9giSghocJBsragYki/d7PArPVR4SXj4ngWA7az95oj2cta1+6ON9TgFE6y56BQYNbyb7pne5SeVHCfHHosKuPKISfCZj/2FeG4uywWxvbPAGYWKdeCc9JtLrteqUTS3XDShr7ve7+miZud3DwnNCotnXprNCM8nicLbfcQXD9Nd6tP4YwcfKbybPFsUXkAzrtPUfk/dG4ncRZSl3pp61tTVHsD7eFRYifvY6PVZ2umt+Cx4ph94oBT+D9IOUxcsHXsivRc17nZTn/8l8KaXe1XKAmgZXI7PVz/gjhJOo88BbBmqIhzF45j3aWRXN9+JzJGwpqJhtGBJb4hOmJBxmHY1jttLpp1B76fixwmp7p0K7iwnugdu5eNPV37lO7M6qWC1ycPNoU6x8/n8QIyQHSo4nYR4uK6yNk53YKKO9h6571uKCQNDM8gTU/JafjiYLgpl+9OA5aTjSlJ0EfoyXdtHxzKq91Fs2igmUlsEWXEhsra29kYT1eltJKYztb2efjKRxExNhslJgb26CiKb7/P+4j/zswv/GRzsXELoP9qUvtZl9M04gYRxsxEebYDt9Pp++Gysvl/nrle9lNBr62rFFaX9i6QuaFjPg6GQSx7rH6eLVm9p6m/o68mgniafinXnEwsV923JDhRs8v4PVuvyhFZfEItE9qb25ELHj44CkHHmxLmR4PMxh7RxYlq5CVdkBYl/Rpxx6X+77vLs4kmoJgqwo4u/7yvPybuqvdbhNZggEBhkFgxCjmWuwSoZX3/R/xTlV1Dzr3983ucTZxTmzHzlpudXd1fbxYBKE0NZNue2fOP9PFA3dNX+K9m3QHsGz3zYh80dVhfPccg4IKhcSSppbzwnmD+wAO9RhhLaYSruwAR+WtLFu71A/T/x4HVRlRdu1O459gh/+q1shr3nmsSrFbbcEsRfxRFInIfOQadWIMDLODsZ0Nr6XcTXZ1c8rUTMXJDVVMvQ5ufuyKxrAVIuxezLVmahLWQ9aNyFJErpQozPhKEhAem3qfqOtMypHSM32Mtjx7q/3E6ZJoUkChwsRWQQrXT1Z42mmnX2/fuTBJ2sKhGrNrU3XrwMdhWdEL03/3dQQ+Q8sf8VcGrP3PcSjLjr5ddw68fHJN5TiPA6ozle7z/ljGUnKFZXiQSHuX++zjAVzo/pgHDb3PmcaYSJU/m20L6XpF+pnmW6rBXHE5gW93mbK1K6dY7pWbr5CbmubJUBtBsIb9WJpeNDTIPYGmTA5SlKY2021vLAbbzGajNUzjCel2OSlMQeCt30v8CvsSQ7RLbyLV61O0WTMcoRk67bDwtWISkK4QpQ+suzZI8mYrcvBUsEb0IRZrbrNAXMMr1eBFyqn3l86r8ZwS6TpnJWZaYUohLarRrHiHztfPqnX6e9opNbZWLqQmBiUtNEZX3C8NBVIwbQZljZQX2SFPBuVk1KaWUYluKwz/Sm9oq8+zw64I6+izCwkLkygs6EFpIP7c3n+9fdPC/IscT6rdAZ+PfESbFRnvC2McF8I/61iUw+OJsDU8fCJuIbB8vpasq3XF0jh2istBYY5L2hypln4+0AQeD9phzoMJqKHWfGjjXHzTrG4gFdWaavAkGrMHaTyZ1R48lpjlpwPjZAx3OdZCnHLiPfR0wukQ+hMy3k0abdmXwlL9Ajm5a970knmr/prWyfiFaosxZmnK9G7N8kOZ9Zxmjy3ype4tGCy+8A1End1lo56+AvMiTuMs58rBjUNnunZVFHiQQ1DtMifDsKpTJO0tq1ynGneZa0InNYVqln4u8XtMq3zNKntCt+p7FHfJYMvMFEyGVlWWkdsNnjnWWg6YrIvSTGstO7wIM7Hlwq0IxxEumLlTvnjkuces4T+9ro+hNhVJaU23l6CJe2VoEYMQLcadvPj6OG1iwWR94p3D707A/I2F+WvS9RtWbKksR6m+7gPrMhUXB9l1/WqL+vEAKR3OhopsW57pDcwIF8cn/RjbOjDsdsBayRNJehODrBbSROFTy9cJF6In8t0LE8SgZ/okM2OHbd+QpBrxJpGd82Sc98lvk2dSDuhvUFCcQtc9phP1fC05766ffEnx2qLOG0bbmd7d+IBhKEr2+/j4mQoz0DQkTjlDQVPuxdVfqszjpKkriTVNWzf5p8N1ZMcs+xgU4qzUkMEU1HKqY/aJLokqTHTaXlQY13O1IMGSCIuq1fYIzd7KTNpxbIzt3npGivkjNCzPyqh2dpEE64j8nlY+es4jmNuD8eDtsPRDjHHrj0Mqhli46AmVZWivcCmecUx+6YYG5id8OuV61a3Dep88LANfOs+A+hnZbMmZvWfoHMv4yqNlwYEWrkLxf2Ve36kwf8IVgInIsITRCKQgGjRMbJhYNJv0NawRTvK435Etk7bPcha8MwqAxUklFVvZB4y5ytJBX0zVvLa9afb1nqbRhNYztYsFWrC7uuidVAZG4A6366fnU4jTwfMJNdNAbHGz9EASQ2WL2J9ZlXjBgkQn3STn7FEX53z298ujdUGMrQbLUhR2OSJzf05WmDGT8OCIkE0QVPLEfgS/enfMx8zJC9OOnoi6JTcAFnqIBTbyeANHLNWlTIFQCGC+7nUwUbG8fI5ziL+oDk1X0zDEHdkWMIoxR9rSLDCVBjbYtUR2BciOJuOoqox8BNmKxNpqqMrDJNhTyWzEGuf84oxZcqaWTJqOssF8NpljWeeoA3gHw7/AIFhZ8Jt7D/EcQqtwHCmi7A9q31ZZm/i2EN5jfbI3272rsiJlR3ut++mPtx/ftzA/zHkxPfmiLJUfVXVpJuXzLheecfz6PO3lI22Bklqm75707DremTmUCjPtl4O8CiDOS2UJJG8mQTaV6xpOJIXOuTBZl8/0DXkbVJkzPUhS81xXMwu6p8pUeptfn082y9Ipr6eM8+Jq2EKjTUFTL8hPoh5xRqOkQfaM1xzbn0DZy6EueX/PzCDZWU7yQmD33OC4Hs1L77LFbM/u2Qtx+pj8Y9t6KbX1vjmZQZ8xmjqMtF7sDiKBS6LZeKbWMMuvHaAMNsveHHzwCyqR3QDYrWcskUuhTRGGSXZgx+zQaW27PIxFvEvKUYQetxQ9tw66drqXEvshB2H2n4cFgpssuBCsleeIFWdgvGWQiJLXntL1mL5ZBuf8iFdgHpSx0MN7uprq0tAjm2jl747n6T8tw8/e52rxm1e9I5pm2N7/gTyv31iYuNb3VCqgMEeGlQKXrUJaVBrJMsf7WPRVmldHfgdxl0RWBk2BKN28rwtd8dZUZ6S2N1wn+fZUX60BRgPZQMvQ3cmfTQU5iAJ0Q/sFSklaLS+cMDu44YoFwrPJ088afI6AcA61iFhweA9PwmY+ixeYfsk22FQQQQSdi4m3zNUgS7yi68POFj7/IpDmQdRCyNz2x8z0YnxX9FAeYykCi9sejfGuo0l8SalW04RyCmOrpTkPS+OJl4Q9Z26NHF5lh2lRJn4ZCXbc3A9SwS5zLRps6bXuu26Qj24gRoQlTQAMI/uEVrKVHTBLe3f3JPJ/mG+rokO0r4RAYciyIJB4uhKvoDatl55mpJnuZVOg4AP8Ijpb+B1SDFCj+elD4OiSHnF6BNVYJhEXxrCiwrJSRDsI8T9vP751YUYW5g6NOwgGqSqbr7XBN016yk17JlLdUtusihqNEtx0jFkNLRWXFS0SDjaYYjHKAgRq+9DA4RhzL/CNGRQFNs/7o0Rhpk0UHZG4ErAfWzaXJX3E4X78SBNtV944nAhJz3lhqsoIe0PZIdZC36OPR1ETLVtmmntp4iWhFOw/KJdObQwobU4buhjaKn9biz8lBzB+QQK9bWbcRQ8D+XVZfZLBl7swsZ9oJFprmKxbsiFAXtqIgfNsgi9Q2trNPG8wxLMTWwd+I2Hv9azZcEljO6JkpID/kUO1FqXAvdNshNLfB9bOIbeuyozFWrh1tiVh5wSbUmqTwYq2M347M1jIlm0zu6cyY9q2MUnJXB0EXEGyJnmhqzSt9MifD1oWQcXz0D4LOCgMSRD7h7hf6oXIwi1vNEmgOqW+zrdbfdbzsOZdWz6v+K2cGXOCcOrTr3+k9H5f2tdfOI1vkPfF7asaGrpWjmMaiHa0zHHotLKsS30FEEd4iBGJI1GcMf3NbgUKtKow7ytH1BuFCGW9jKpZAT5PHYqx3HA/TTXfjM8n8Z+ORfvUqukeQWlFhc8Xt388jDKmNXZIelCUs4lk0z54coOxLkmWTZ1SsUVWLrLZ4jkE5xTaR/MOGS+X1xgTkOXxYU9si5us7y6ZLRQvTpg1RBdBnQqBlx9Xvpi4wHrKopN8OWEXbBsUZDPPR2R7m9vbXmUgU95jcosVzLPpnsklsy+NWlCCsdfu5iRizHLMr4FKEkNx5MieAdbSsgDtz/4vSd2nLYU+0XCky023NdnJbOMwzzTmLC2LeJWkiD7sdTh09nbFdL88Lo9u9GOpmMrYS8VFZde1RNQo2BilAk2IHnGVJBLLwfVW0iThOndg7DFo4fbj36nE/6dQGoSyPXT7fgpfAA6QOQ4uXnr4OxgIA3vHpgn8FQ9aTelD6DHJjstzbULfgbQ3oH2iAtdlLhFKU3bp+Q7rk7xl1ztDweTeO3SYacGl7Tr0UzptwO/y7i3UfLxWiqyHmxKJRRYhDMSo0v5klhI5zhQRGahJZBNJQp0rJEZzB3ETdzwhRZM1m2+Cp35RaCZIHq9kSTOQBIUIOoH/hRfBKHvwFp3wrk/IS+sm3HbK500LBkMJ7aTkuROAU15VouyA5kUpVh5JE+pGveFAqkwWJMKHdgK1we6czUGoDe4TxKZs3s1hPjp0tna2MVcnEeyb6e0LzalfVlUHQ4MyAAAgAElEQVQlLgzirJveS5KzUp9PRVm7IZdsZEOo/WqCY4atne5EacEmhQO0NeW9EEnMTIG/FoR1DAXqrwVHWKYpf6JdVppp6xDPb9++MH+qMNNj2e8NirIT1j6OVdWkYsQE1TRAXP/+e5zLa1otAazvlPW0VVowq7pZU1EOi3XMZW2uBdfJEozZB9mwaQvFADyyr8J5r1vEw4O684kdCxgIdlhaHRDgNWOSu7DdG2XVJ9Zbvxck1Cr0IiIkHi1zZ+XGIhJEIES0OVl9OgSSdvs/my4EU++f7zbOWvQm/goVLqLG0oaamyGi6DdTc2au7MUEJS9t0hjsFm9LayArYD+hkGggeh4OJaSbGrD64j0QtozAQmi6H2hs3+c3mdO666c3WyxBDbLbpqu9grEC2mMbVHx1mV/ZDbbmSn0mpl47UBady7c0k5Gumi2XqAr+W5AQVEQIkPIUq6fEadgXBIW+17IBqgn56DlXHbOo5QSNDVN8bCgJ2RZTMX5eASpxo+R6edWxhFEAddmXt1u5f7x9+8J8o9Q3PcnCcKZt4SdL7s8oTl7aBpsQxtEm1XEpcevs9ALPmQtkvqnkWG2cWZ/D2vSn/3J3tW2RWlkwTQPCRWgaSFibXQa09f//xNxTVefC5PPsM7tOMurY6phoed7q5RGh1g1xRo0FFPS7TUsiUPEG2wttNk8usdt9xDG2AhseUhUpqp/ufiBF59OgOV0KxisWF3KCmPF9vYKNhzoyIrmvUVFdtQzVoNcft0biBqQhC6Lded1AweyPS8p1ZGIJOtVYM+8Ivb77RVP3kl4T5UodpkZL5tw6iV1EoaQI09lkXRFAbRow+84+OzN7udRix3eyTDGxR9LKx8x8ch0jRoZOBs15uctKfDXra1Vpmgdmdrn6MmfX2nI9W9cIvI0fDAcVHVUZ3KABMn2uma9/UDNXfIJePBmph3tkUei/iGtaEmfJNyguDAHDCyiPhbHM3mGz8sDu56KDiDWyfDIxTx4TEhJyijr8+fL/D8wPsDit+8lh9Gz72M4y3ku6/pQWpdG1XbstgOdXWdjoSIZKbHQtN3lGp2tbIpQ4a8l2NLbznBlcUUkjPq3hteK5DUNnKQHm8v6cjSVvbnwtvEZsxOTbc5m06bgZX3x/zuYtbYXz+prnV15J2MvGJyt8baxyru5Z2lzeRmx02HGiP1XfKeT1DEUhWc73pgCsLAk4c97Ypu6fBkwBMhGGUp9M5dlJuW0fxl5L4dfYJxjzPWTXBbFJK1gEFUytWx2Q6TluJ8crGwbF5vEHJUrUjsrqJRO+svw4lUrqUfRcPqnmltsgq7DG7BLfYKgyMtIR51cd55GD6ZdlftqsEvMvfkrYrKJicucjcAbG5SLSU4valJ+J/Sp3OZcGWJsMmO+IdhxQLy9vuJlYNwuETorHRZF9oIZm+/ivl28AzD96MvJsoozT5GfH83SJc5gJv3JbB9k5ZDHarDkaZFOsqhDhx/YT+dMzbKFB0TME2a5+YbjChKPkIgMuW75uGDoXW8raDdxCA+z6ORO0bbKIVo7fInRCuwnDvVg47QtRBtoSYro0i67Gvs0RchsITnjq9a+8R772mBuRjJKcBdCKWs18ff2PxRmhbLppDwlBr0DmX9jBgqEegcloFHHVUytL/ZeIBPcxmRdw5ly1dfKKifMmrErMD7qS19bZYIDVcU+dLOG4e87AmuJJckaAOddgdyEmftvSRf+YiV4TXIlC+pyWPc6LFQ9v4Mw5yHTW8EiVpby2nCab9lRZgWUsu1nYsV/IOs+RL63B2LBJ6mxolDmPokmPkUIXFHsdue5mYkNbMiMlgqROp9rpImuDRheS+BBwbH/77XeuYX8dMP9N5/D45US4jFlvAZqfdqYmBwiVsuPTWC+X8i2rSzHsWhwzrStlCI2Jv4zwbvz3d5s2Wxqzw37Lpsii7YTTFvdQ9aot21U8kuh587acfvlqF6l+05v5i1rjugYyvIwMRMsfG8RYNeM3BmntI+VZJ3rcXaeUHpF89Azh4kYknWufoOeEg3F0ofXo5ITRjdjlCjQmhs+xgTV1Cpn2uHj2BzBT2G0Iw0DKDf1A8txVmLlulbmKJgJDaUQveMKwMsm60uEEwqv8kHplEniILCRI+ZK2rnANQck8b23ztna6PO0OMEGe5NeVskzUwha6shZqVwMaWQaXsEIGBQ9lNKQG4Y5EWM6d7GlDwcfZxYKfaZvb7FGJladqSR2ZgjKL+F08/nj5HsDE7gfxN4g9VMHs5k/cqflnVD+thMqi+0J+BRi15VAjSDOWvsF4e1lsS40BtMy5Fc/4Klw+WxkI2WrJrjFPTZrt8lR5nDe/tWxoeL3/TU/5sCduzu9FNiWX4PjzMjRwvYz17Yqelukm8fsaxHZTZMpTUhZ5nPbi2463e2o7nVmnpQ3shFaoq404e0OOAlKIDG63JLpkN7tSh9I7tnuuYiEGW/fzVbN39wRfPlk3a47mUGKc+s/9VC+1ooVahj+O2LjS/blqleJ+vPmZiMA6nIWTk5cPmZCU8Dn9pJERJMu7+DosY5FezWT3/GDFGlVvYA5CLrNL5n3hrwXVJ+TsY7mVNXAqg6RRvkkQIC98MfnehckefjxoYpwVsFG/FsMDwkx6ImQg/MAUk6NLVhVvLx/fA5gfNyQ85hXUDrCvZCtbAae1HUkMknP5+Qm/2aXOls4uJnYWM6qBSRLg8VO3HYuimettZcf58KvLqi4CsIOdAUk9dhPBvRNUoeXsBM1NrOC4OSZnbILoHL0s74/n9qyGx8PycHmZVrCfeTwbAKyw7EzNGK/UjDQ7h8rXkYJqM+IihgwmFllE6ABTt7uOjay2ysH1WE4zmfWlqyZVsYdGxBt52US2gqgG3PZ4xeZaqPc+10QwUI4EnhZ2X/dEcK0ebUBQ0uC68RkTXS1d1sMxc+rAkmOyJPUmpN1soKvXyaMrT+knVrPNqsC+8KUMDBQ9HSFZlvFTO2RdJ+I6ue0ZmAzGXLd/+RkWMvYZs/TZkV6ALRA89AK2VkVzMrPEjInA9zAg6eZ6LWKvmgenzBLSDQZL2Htl0zSU4a+X380o+HXAvHNxbxyRsoTsoS5NLgRs1jWoBXG4nGE+Yzhts2UpEDfDr2V8Ye5MNl12cBhh/7l1aj+7rh7mYXuWMzh4HSrkwpFRs+SWetXN6UPOIdKL81FQ9S7Prn1HT2uxw0wxxaR5hZkBlN8rPcgb6qHJZ1cH6bIPW/3c+eDBABBYr6kZvcpHpJczl69hR90rD8HKeE8HEe+Y+XY+ufZJpHnyO6AXCvFk3LrmxE//x4sryPgNocs2Vi0udY7n99hl3ZWdP0ZxFEzqv1LOJm8jcBaRxBJ8O0+qxaaoQe4YuuwiybwyWdqy2gf2qiBGFB6XyTWxnhW+awb1AG/BcPKGhu0MOCHfy0iyE+6cIAlJX1KAQx0fmKzpDXYqKaq8uf34/Ry8XwbMF13UzEq0AzB3zJhsYst5gVteh1eY0OQrInNZXCRXDEMZ/9+aJqVAQHhEXidQAUoQWA/lMM8mnkY5FbSWY8ljfHYeLL1QornVXfQE2fMOCMA2kxJ9BadGsvc3Gh/w+73xUIWL4jTF0QNjj3qx6ylOb0xHxp9BmnScWO+gYR3vohF5yRTgE53A2+JEb+jHM8tdmrB7UmzCENdKzU+4PIMNfxibk9cW8hLycGxtf3rzPLWulo4GEyAa8ISULy3RVp1yw+zsAn+uDO62WZYKqs2/zUXHSvB5UCSD31DM/QNMwYJ+Io3vd9TDNuSHiGoQFDTdkAGLraqbyHI1S5IdDprG9uKuZ2qK49ckGpHx8Kr19qFv7W8DTMsXiD9ey/KTwIw9LQ4mIuLNmg47wvIrdqdfthzCwFiDAGlBQ11VZLVb+XgvOmNLayKxBfLoCF3eQbY5DZTpMoJfz6qF+nPDCJvOJttRWrfjsomn7w+7PT+cAZLh6/j66gWwkF7+ipAw9+uCPQnCiq7HfREvacK8j+5y1zN3/u6Sy95BRWB61yqHy0NiklJ4+UOi/wcwe/rMe/2kWVcTLsDTnuQirPuY23axDdikn/ixwuWub/VESThDer00p1b5BEwnpDt1FtEI8CpA9qWz3mtuowo5FNDhS6SCyoWYjNsrAiPGyPJRMF8umixnTTtpBmrYYFAAsp7ChhhrIlxO7jQSXN0Flz2UTLk/G5W2Wq8fvy4r9n+jlWV83I5bSQkFQwlgUvCFKglQwmnW4dN2zsiCMKis4yzQGooHLVK1UN301m0b62aLoghkLng+b0Knaqc1wG0cjTCedrIB87XPonrqaZvbnBBqRNv3zMmZExvbO8nuZrxmM6fta7G5xcbHrhTQbHJlS5k0YHRT+UonEJoHHVeUtU/eBCsBx4Z0HU8+z25e0ied9HpqfJNPF0fWXim4o8z99vy08ql8j4r8vaZhiSQQDzwmEDZO1Esfgihdd9wufKajnjI/yURyqr9q3knof4c4W+ftToWOnvQNy6j+hJeIazTRlyIAyB4Av0DEv9wMoFOcA1CJNMyItUxqy4BNa5D8UvrLxp3uQHpvTpXSszizyT78+ieGy+8EzD9Ghd/gOgJhUaycEY/Wzho4cbzsyqUGHeDLYPKF181Y+hj7GkYVZjJyQBei6cUOJ9jNtu1mHiU2YIJ4EB8zK0srob7nMSzP8X80Fqr5YD10h4H0vJl1LjxtpJejFzbFmG3VyQEx/geT2MwDeGSmvB1VrHhazMm+nkZJ951NoCFrDyHVtobVuEkKgs4bfRJCO/TY94731A0Lp/dkYXlufEdlzY+H4W3vRTONYF4XU/xsw1nyXAodlEk/zbRt/xBr40hnShj9SIJPl3XiCmReMcmvg/xSyQjcExVK60tItikz1itaI/iQmRV8lmPSpJkmKUIaLzMWUn7eDRw2mWmC+RJuesFbWdVUWB5cjg6W+ES6ORCa77eXD1aZbwVMckBz62XLCsD0PGngE5OeiTTjH7YDIh1f6ObNKD9tXerQkbCD06cVznmx0RNecDM2tmxh4zt1C83gnnyfubNQxtJqRDUfdfSZ2liOns/NV7Q/japPsGkznsB1hG5SjhTV8fbNOjKDGrsgFMxxTWAZveRJv9UrnYTOteDpwBZkFc2uP7+jkHhPpVEWYL1bihyKzKP9PT6Eu7aTNbCeaqCg6W1q48AlPWgPyRhAG1emKjWA6KXxNyR7Lw91lWjyWXWqlyqeNaAlL1lJMGmvWdYH0QCpnYpMCYWXRVrwcYnLA6ZIP7idYBuLpC/9Z2Wu1sw0K3qZBD2ds6dz9XTkLGSZp98kyPc/Xn4n9P5LaV9/cO+4f/5N3rU2t40cweMSgAnAwFGAYyREZQPIpP7/T8x298zu6vLx6ioun/yQLcmSy+ZwZnr6cTZomU0uzE48gw4SsDTIokjRFOE3+8FfStC8wW0Ea+Fh90fyz7kmbloRU2HCN1YchOchw58njJ+JIwnHlQAsfdHXseE5oMJkZ07FW+a1Q9QJD3cv2b0aaRemWQeKEtyWzZS5V13+hogYPxwdvt6VRaSOWBmnAxeyKVR0Pq6U8bq6xR1Pj9Z0C5YT7wXytfr0IhRD13xF8td6q7AmO2verTCj0JHTGmFoqsE0t1PISGjGpb6Y+XtRLHZUItFeMXPs7nlmA4IbwmezoW13W8pv0m8nnMNCIdXCJQjdyfwM0FrbWgpzC8WKbzCdtBXOwHOmQFjZjDAyjob+qbUGL0z8gW8iu9PcmdS7S1uYBKL9fKsKs12m4f/s6vNXCaX/wV1oaHZwYtMQK8IPwJ1mESOAd0QhrI7FfOxbd6hoIKdksTxt1OTpMxMCxBha4EoLb69tQosl231/PndGJhi8BO7sTFh3x9sdEMpI0pMkWivh4LcTQ4bslnIc7+mpdnl/wh41PAIY72Os0Eo4t0dlUecEefEILIfT0uLpf/c77WBTYZ4nO2wqyhcGffHo6NGezy+0K3Ab6dxzY3YD+mwDfS8fVUnBii7sM/Ba1Rx1X2qdLaNpxdkntc4uh8ZhP4fmli1FCBuhSOXb1eQh1rPifd3s+8GTSRz00bkTDgekITCDT8sncaDBqXn9YvfNmxMBRe8xxbSsLPF9vChmWnspndYFBw0y91GANH++6CzSVm4HQGlJLwjh8ejPFcvlL1mY30noToX5YqfsaZLHIiIsy10Trz8I53z4RjjbK71sGS7dD+RPizKrgtrSugi+o4ITSKt9GpVdtHZwa2U/NZmTHrkIezmQ7J8XzAORgNPzKMNsrkuw4BF1/b5MXF3G6kUPbLBmrpe0cEIcRt3YKrsDxSwQPUXImJh3tAlaNYWiml6v8/WSZ3PMNiJ3+wCPg1/XbGGQzy0xOwzZdpkBILfRdGq9wsqs+mpcJ44e+8AabcUZGI3aLgK87ZgaWhuP28uMhai0scqlxz1HPJ2kGQpvgDT2ybkHwb3z7N32+uZ0+JsH14qiJ5Ys0veC304tJ9NmgPRxqbiI2uJD8iDbmo0Icbzx02JJjyCqv1rNwPHtx4/ffuHCRBxzKkzqSViYKDbVJQqz21z1tVX8uFnueVwWiaduhvcQTd0FuTpxJ/1zP+Crt5Hxg0Xx/dj8bpKvJXw1sTIPJ75raRXO69BtquHdEk+K9MReLbJ0f77rqjZKOQ0Lg2jHeTklSreJn1Be6qu4ozAAk6l/KBQ5p68ZnXm9VJp1inv0IL4qdU+Faevl2905PtkzzzAfBoc5Lc+6qMUIrmMRYWa4tQKAVp90DdJhvIgEnWdjFgccdq1eTxH84lCx5D3uS04hrMsQPvVPk301xmQvLFnhPVlSwkIyjsEtB4oFU4aRp4s9uTXYJ2gtbU1HHYj5mCSMQq9GzKGWRtEG9xTSDxwLQnqOefvx5SdeKv9kYZpC8ZzFxYPfDzUms3uTWsfk2WOZM/YzG5Fgp4vlntpdpdkUOrTDwB3lNO9IkZIGxQ3bn7tK7mlvLrgSbYC29+dR3S+ZpuD3EQQr7OQR6VOpOO208vQ/tCwgWj4eFPgpLozXk/VK7vt1hMMBfWdNwqgzp/noGe1n5RR7v1p7SzWJaZ/iTc9uPx0JsqJzHbbdT+IfgKW18hfJbzZAFqjSV6vyONbz61hTDPhXTU0/DhklEgeA1uvonWaiZ5w7RfWlQkNdRtOVBbMqMOCVFdmUc6aBP9Bpot4Vv4cB9UbDArZbsypQxbpwOhhiO2TzSptweSoJwpeDUsDYWUmZNX/KwfUk062hsQgK0yZc1jIdStIMu/Td+v3Hl58a7fnThalLwC06SbbrCpWdWumd1XloyUwzrbQm3W3inREeejvvF1oddTNJy2Qq5E1CzW1Pz4GTfBpxM9mk8wL0k/kDhUIAftB8TH64FBkvfW6vwbSabh+aaFM5bnu1jhrt9v1dnkHviN60iJmVdrSsRjpfsj+RAgQPErZPhuIKQLXSfPvdSvI8byRIecfUy0t9c42VcaUV5urLZKxRV6MYVAcUMWbxZa00De6FV7XuGyLtZMiHIlMcY9dqRm8sayStIoz6MYmKVkoSFppzQWGmBuyiyb5kkJhLAdmvvbfFxeK+UJiN/PGs2htum4uVWyjaTtNmsgiFug5NPnMqfQ+d0CHcoMDroCqWR6VHUt2CmT0byjO0nseHT9idb3U69K9ZmJql4KVIo+CXfNjnrdMpswHHp+v23A8Rk2kSMO+Q1uzglIfqxTthCL1Ps2bbbUfeHIRg1EMzmAMdFpYRG7x/qjWROG4qWk2421FPuXr/c5PC2t+2md9l4e+Z0ztpCM/0BPwwT1I+jDHVuk3tnb4kQlTo2XVnqnxEnsJXUQzAob3G9K+yqmO+WJbxZYV5um7LbSvvrsF0LoGT8zz02pFYz+qzKr3nJAVbOEUoHOW/NRbnnzFeOOlGPp9o0C2MVyZ3NUX4ZdF7rm2W8Y+njjS+JlrsSSED6WBCD/aGTINiR7KUA8vNU/fcvoRvV/xRqxtPMLp7EGOnCZXJJa6drbqodUvsl2yYfdOaUMzQV6SWQPeS2mUPrvqPwif4hTumUsg7lWQaiNg6J/ZJu5lQIQ3oZ6bVbNfNlU5y82BbFMtSOOi53aG99u4kDF48wKD0uQjQhCAL6Gps3XzLzPqvLAkjJNvxa7kfEGHdafsME9VnlANg0MO8uum+D+mUHGmxcgqkXdU9L3dat9PJ3Xi17Jh9JDQUT2+XVWGupWvGelRdPQvMF8uqk7o0JbqeUw3181FUCKtpLyMNUywRVNN37fhjUSS9gT2VN9CpoZbUocGJBLdQV5cE0irWm7na2hWz7yvlSZWG4L+qDIo4EEudKW1LGLxybYyVI3TT+DArko96ZpC9Hp23RAcKkmQSMhpIwUt/7df6T6MT/Pa3Kcx5pr0+O+bEWuz6l8+0JK4u3W1jsdby5TmLmqeN1Sn6ObdSUmLnfh6vQtyapgW5pAPldkn7bFra0nMBI01INLDIBcA7ikOp4CY35mpJTHhulQ5ln/Mo/LQatuuoqO7p+8T/bclww425GbAXHogI0ReazQlQLR0PVjPYox4sFeZroAOmV2b6WSOtaaCtZ0aPDnLRtFi3KMBojTEW+XSqwyixmKQpYuQKp8UHX9fikxLt2I6khzXqSuIMWlbeWRXm/8hSTHddOl6hwboNwXBjfK3pKnuqMRmdoJVzUcKthQ1V1iKmHxtspzRPWTFz9XWCkX09DSyQ7x4s1KT1uGk8Sy8NrbdaZsMTGFJCPM+hsA1/2OP5x9+lMPlg6xucMudmSA85oj5pvUjt80UMVrvcxkyMrWqYqYIXwbVk8KFQ0V67PpPyVKj0iX4sX79e5o8PxJ3gzMLsHCtzrbfT7ssld808xeoqmnpp2D/6Zc6k9oLIklN0WPz181ja3rusAuXhSfJ4UOGASHnz6L8Yy+1fbmQF/eZX5G1qH+UP562nf60zsiK9cUZHaKNx7pzHniO/3JOLRD5JU950Bl3dNdNI8IVM5MPwNTN6hMCmN11G7ZdUcQ7ZS+9E/ppCf4QYBXaoP2acpIpDUkVYLKJkCLJfd3DWc/UQOqS22VkZ+pnEFGODQsDc6aBxiUuQ9ZaodpY/T4B8acQpCiIg+JgbBMu2BtiKGEyOz6M17JZ3zeHxWExB8nOV3l92LpF2XyRZkPJA/8ERvdcM+zK+gffIyQ0oZ1v9aNTOAkGCzUKVNMot9VYVzrZ/2Ev6xT4Pr1SWmF+nfZ4d2NHkCc01QjeUbrLxuvI8nC8rKdgU5o992wqD9tAuisIW83YWTxdnnK0yG5JILA21y4OewC3J7ZFkveuFZjp4uF+HkdBLQ3qQRchf756iWfKIOseAXmcO3/MTiix+1gzkWOpfdoRWL1YrtZuKi1qU3uk83DyvEoZNf2MixNc1jvlQIsxVvjCTuwa5P0kJgc83ksXyEUIWY5bptLGYoN7iD+RfWVyejbNQGXJRSs0TJ11Q5L01mF9CcBcTcyCh3nqQSwOPmJY4zY7YSv412MrZ5vc2DfSWj+4c//2fn7D0/rKO6a7gwykrrplrZtOM0n7ts5uL2CmEcyzkz2LRgmsAZ3bw6fC8OrNhppdbr5rDR02QzIXQd22LpOphbMhR32TSfpjyaz42D7pCb1xwPtVBxFAhHDCnxy5Q6Y8v+ENbRdQVCLQfn1841abSlHKBPemiVXOkO8CFXgZYJVfZ0zIxbCUW5Cli7KBXjeEd0aBYoUA09CqZXzF3v1yURRd2L363Rsl7eysfwVJ1CiyXyzFTeVfKuE6rv1OcuW1C4nNukmEo5rTZHS9oduWhotxGqnQDhn718pvlvaRY/uhW4l5cBiD1VsNMj1caJg6Wg7RhlJrIYfoWit0lAVkdMH2gbc1kRPAsucFGwgNe1Ww4j3z5GxXm92hSQDy40n/uSwGZDRKFYANbbpYf6kIdNJc0ADLy3UFZJgnv2E4B5fDtC4bSx5L627RMcxf6Ba4V/fsSRkQvHKrNuQihHXw9NsVDom4z4KrNEZy+j1mDbLE9OPB8YYIzAbn8MVtdPp9VYSqCE06l7TcE+12VOXW9gHqARz6O9yDFraN9W3nhNCiItiQccg2f7V6vaqplWZYO6sW5ltnWDiTunrlmf73M1Yu5g3LbFKsAwjMyfEVYYM80uYjxVRudMXtfMcN/ybvW5rZxJBjSEAJQB6wC+YI984pLJqL+/088TPcMSNd9javiSuLz2o7t7OrUnlc/tNEdJ6OwdkdnWRcF4BLJevEMTpxBrBjKaKkhX+6UF+ZMYl3CCdqHu58jGW9kTRz1WzHalnfOC++YPJ+Qo24EIba143hlJ+vQ//r7v39X6H1YxVw051jYlTJS5kDWj90ygcyqnIFsG1kgiiVPpCc+7uAawOyALgYZKVate01vieT3CprsY/VtQMkq2DwknidlF2ApFIJKs5KkFB9JFKOxdDpbYuKqGrl3IplIV7pVFZwP7m4ZwflQ54NH+wlxeQXlFEpqdod0i37RMwreG/SUgvsKNrgAcZs0lxdQgXYozHeeNa12bobNzuw5AXM5aHzfTukNN82+XijVZOdMgq8OusPtRZvdxfTQPVXB9dXPlRpOI+VNnSDLSRK0PM8RskRlGYTYjyACoqjZe3CytDXsEU2tKULgsuutxdTSTjdAo65ewdctFqCJ32aux2aXGUNSGnvMidLYZTsral9//fv3hd7HtbI3fdYsuv2J9H3eQS6oudqGx7hA7GxZ6gSfEGsFSCd5wwQyRVMSZKgcR0RSc20KK1moRyrXSfXQiZ2MfuTrYQ+UawTctceVoLFZssPqycuAXPpccb40kQurZtbelvNpPRdOgWbracsbbYKHqe9+BtJoh+vVGkgorJk4D1nngAsiov142GzA9FpBAc+jfi6qRGFTYjl9fMs8gbp4U2Oo0QyDdMDiiJ8LN2ulv3FdB1xq2pdVRHNIB8/WqWulTZmGTJH2iXsg35PcWrt5sRIAACAASURBVOURBNri0TWPZiPRgKs5tWM/giJIUyPhTc9JNlHPSziqNeqw6LDBYihoh4PNkFc6nnC0HPWsAmMCONO3v/3ln99ZP/JBaV8/vyswNxJDN78pw2Cm1GvuRNkZhCDhHThn1Lyc2mCTgjSwcrFABBHqZq3Ytebyisgg6lPkk8acIggAANwM4fRhimd0AqEPpfpINTqmGa08qKQyP1Os2gDbqtbHVlNTrT3pRIm1M9ZIVVWcZ2CqSkyYQTxxXsbr0FO1rlcj1kw84V9Bp71DLzZg8pwWdLjTtnDUBJERuIQ/C8rnCZt99vw/YN7vRyiReelp0b0rO0G1J99u6iPPfaxKoqfDikRHytOM2X2faVoQmPwMt9ojhI9QDJ0FpLFfkSeSxEGTV5IxHAuj2C+dzvUYedOMmG2BkYiKoVKDct1YGGkyqi+Q0/0rq6UthUrctm//fCok/iqh9M+/sKVfdMhssFz2TbgG0jb6Ti2YyTOAN/s8bwcwPcumkHhEBJ1RbG0rKv8vZ2TbrrQKaV8etlBNDoY3cj4sfzLNtnh7QfXLslu1YbQVzPJsxbnGw1pIPpM/KFaLIcIRkwx4wvnw/arvgCmRfxLLUKKY7B+wlOw9Y9VolrNsgZgphthGhsGRk4NWFqsgls32z33nzlZZ7gvlKHi9qWEXR86zUtqC4gX/QqZbyIO/3S1ZoRfd1u66VmkElUvfuF6tdZ3Obl6d3IP7pVwJJQ5qmY4Lpjo+F5oTOGP3OCMSFVOBxeNmArpeYOK1TZ0lApWO12ouYhn8jlG2RMhJAj9JirKGT19VHQbRKC8nF80OLN7pIvbPA+aX7zdd8jdQ7n7Y9/aA7FlRtOd9z3Ns7aTbIaxUgeYhMUlS3XZx6fGjg8dBat1mjrD3H13rXI2OAOl0e6hBG8hdR3nYx65am/VEmeUwgwZZEbyKtvq5pkzz6LlfPyPotx2a1dY/tWpotVp/aQgDtaPyiT8eMvI+sKn9UVvxhC04dj/obalHeXm5mxRLmHy35QWCQCyFWvm8OA8sNnSG9nh5gBIfYQHlXsiy3ScaIGjImN45jx3tsZJ9N6HeJUthw3d1Es4iWUR4Il9P7lxGBLpczESWns/dAJpCaAu1tZyvqHOkj4o218Nr+WdR7qMpaY0dgx0wZZMXFfPqGaQWBnas4eZnGm1zVGSXVAqWvlZTnb6+FJ40C6M2J/cj+eXvz9e7/jJg/lefA6iX+yQ1M/B06eGCBybQDCtLRiRA1SUFbIV3rISCyeYseYlkG4v0tTm4S2uWoBtbdbW7eg6VYaVGsx5+BFzTCHdB4bWq/ksknFy6sjfNie2wTJQedpjVplHeSkhBqr04KjKBSSuWjK9eCzH70A/LEjjB81t3tAPpcKLcHCQX5QU6R7jXDtSSiXxsAV1h25+7IhKTAAumDp0nCh+HT+UkbJ2McLu9J+xxPSt96vkL8d2E06ymPpBiHYJqBiIcsbc2WB7MAiITd8xy0F31qimWeIFbmWKkvAK2Dwy9Y0nGosXIOR5KsAJSe8HalfwBpxthlZvwPBIsl1PiLpHOybumXk2UqqdnHPnK/RwN9AcC84udxdtvt4crXAxAZ8+YJvFM48lEHSt1WQujEWGTz1GUdr4BqXWYwiPI8ZKyhNoqJFnYouB5fsZKTYjJLGfViQDn2Pd0hXXDOWKHsAZqdQ8r3ISCKjNsBdwSLLtoQwso0vBdBWEVefIZsbjvjpr1DXptwJWkPeg4hfD+OqhB7ZX6TW1ptc+9S/e64Lo50KlkkAq2A5wCHrazeMPrYmg7SVL2M0yXky7lpJym948EQwvEObJ2+vy11V2ufjah5WyuH/DtkgGSAZUgek0JthsqHBd1X2N5JIo15gcpWRatbyxaMyOBZ4PoKbikaBqR5+zIvc9ltCBrR+U1gYnjTElSOF2xiE2DpjrQtvfL2+im5efn3Pb8SjOuRcONt2nfrgJKsWGXAonkr01a0SdOEqykLoiLHsY4ukCPrZpeplLFC8j76+U1pEz4pYOgA/Itoky4Uc3r6T5Cby8ydlgkoe/MIlERuGYCONUnWXwCVPoC5WQ4JI99lb8AJxuk0K9Z97k1rfXgycvkiWpc1x5hVHFXecClVt0slJpKxw4kj7+09+SggbR5xarcT1pFJc9A8bNrQ4sKKhjdgFjP28px+GwvtgwyA6+bObMj1la+1cKeeAfFSORgG2NNHF1A1AYkdIWzU+MCN3Vyed/aIo3WhsmgRZKLG6jGcP6wbU9BS1u0pAYTj2jMe8CG1XkVdVq1HunITsvZ0K8npn+RLBQsg6yPdWT+BJB8ggTVRi8S6K9/ODB/KukayNxlXEHXaqHSuQGT+x8sa8mf3RCVIEGaEhBUxlYn92eDZXz9z/DaHmVvR5bjRMkBVRrPhBYYb9ZZhc60QlB2Aem1ks0paSiwyWxz60NMMIX8J9fQVf36gH2F11zJ0hVXlMylj3CJgFKUeEAPuObamC2w0f56XNEPSSx6Y1DqFQ4kVzSvE6wvh/ZovTBhQ/NWFxw2xRpTZNaojgtws+uCFr+iKjl58/QsoIez12EUfbMceGlZ5c+27a6NLDUwWPgwmUUseJD85LuhXQmhC7Fc96xTf2aE1FrBNCRb9GyM/B/dtmxZq79TtFb1bERr3SyNZvl9Qs82GY9/BW1pUTFTolWCBfrRmhYhK/Kot/+c5fvXL1//eGB+vd87yXPzkjy+qaJkRuf6zmRWhSZy1t4bVNsTRJSb8zMMw9aaSyH4KH5BAHi+E4dgXUOBdKmEaU/5qjWvvbuVD1krzHkSjWiFABv3GxxSWfo6wnBS4c1TP1j1j4SMhDEU86eaCzXcI9OayISTgp5Q9Iryg9nyryZGhvp3UBuEwaIpgdWBZkJSOZeb2PDBXEBJQbtyEPBqfnoFKJDZALYvLINyfOndrJ00BaUDSQueyfMWyYLMIJB9fOzpBoe9lnNHKma3/qFbLEvq6I4v0VygBqlofW2IeuDsgq8S7SzSIQ1gRnEVCcbocXq5VD7s2PUmdikpDs3xQUUI42gbIJk9g2+j5eeC3kcDE53VxFtm5MnSc6zMKss0dl6ODZqb3A9beRUq+iwynbcIEIjWJESj2r3ToHCP2j4pFcTcEoxg3poBH1Qsgq/oNaMhwVQawBRigYCOlCSOjFCosLsF/OTISd8EvFBQlhKaV0UhcOkzrb+EjMQX4FKsb5NQ3aVwEp0aYIOoG+By4PpHYzYGtLS8nAgxQdKtB5rVTbr/YVMrK+55f2bDJYdOeO5NSuRTq6DD+FLOmMDlvk9iDbZcuznldSJAJiJxM/v00M0GzmVrNK1lMRwqMB39YtWyOfp+1DwqprxfHI8pGocpuDVvrrH3qgFOPfHdX9zBOpL/wx8Oh1r6sL1sXx13cSb4bND7sOySu16/Nx1q5BVcf7KKpKW67Z7+W2xrW4O71CpPKg94pRi24ElJNwN3/npa4q0QELzH0R/oXWEChCMJ9qYCVEgxeZqUXTDs9qQXBX9hrW95HktNDbJgNLD3ZYxDAjBhhaJqMmyD5We+rHhkZUv4prF9GoLmivLlEbrboI9pE9n1WjsfvKOk1mA5iOnJ1NNfL4yYm6YBS6ALHP+HhqaB5FuRZbVBVOSbi9w6GygFmPMsD7Wg0Vtz2x7xKx70adGUzs4ouJsfWHthzgpFJWr002WRW9xwDxHSliazB+feMVyPA2ToCXwsn+QIRIctzogsIWXplU4/cL0F1jaWWSYBSx1aHJhqOnL0DLb8udBwJIz0GCqKyil0hh5PniHn8K9/vn4+6H3U8ufbTbc/i2JSXtr8LfgSgUkiu2D1Omsq4yAHxLm35/r/2Lu65raNJFhCwPUumMXZK8e4I1MMQRP6/z/xprtnFrCr7uV8fojOTkyXJZKSRTRndqY/BhXUKrWIcLvUdndlpl3vmCdxD5qWHqY3w+NdmZliw+ODdnWsV7WpiFWYqWXxeD+Y01opzo2sAd9wynOao1mrsBBXVwm9edKEa3Hh+Acg5WkTBRgEIgV7yui2srWtmhPdJdlelvtzp+6xelpjC0kY0xtfuDIhnXNVnjXHRExcpaM/qH1cfJ7t8yANbG+JM+sN2kpgb8MY95rm4zqFbgW/HUxoCUzaJkgCJov182mP81rDN2RdqWyme2hl2qxOkpOTbRyPakzzrtwC5WCY9m3j4MQe/lBG6jZx7hzCDjry+xr3kgFWn+5EaaabZT9lHr31erk0+JZGCzAY49Xndvvj4EzwC5hgGKyvvWQmcvLyGsbPOG5uxYOFcNgs4svO1xV4xIimXamhJJHuym1nl2/6bRFlyKWcvv0v8vIS1XUOTkHK4Bsts8OJXWzyFhRvBsV7VXBxJdmeddSsUJ7hAJkENACR512URe46l+oDWlZSLC158fELpYoMwaZLuj6JfVdXywPhwTDOdpK7afyCZds4+fx272g1JQqe7QvDN600GirT9jaJt/DKMvoGSgL2KXZD19f13Dm1PqD1AW5YjchnxK2g3VMk79xyBlv4KXq3KuhoQkHrIpE8hNLZTYPiboRxFR8o/EVyOapM8PU8WzpKc/HuVMgbXNMZBnkiyUZfTe7eMHk3jNHEevvr64e/J/R+IjBdDcGKuWXMDYt75VFowjw8HwelkV6zVhoz+Qd1LsO11KsD02k+Kpu7J0iQhiScfNy7q4FEIAt5rpqeVg3tQa8GlgA3YhjBuWNWJOAVG1GHGee64ASiKLJsl8YtqtXAKtWonyZrK717teexvyXD/EzjPnJbSHIht9Aq5nNR0XyyurKrvfPUeYGNv/zAedYcXDQoM4TTKXKRHbs3yjl/+7hy0Wk/ZMfrK3rdFVvfTW9c27dGQkHd444UAuqPdM47H9MQRBxYxzCHtZ9Z8tBEYLOPaXrMQe9vh9Avj3n1FPlIL3GkN41+PDnTWXnNffDUD5c+bg1IMwk+q3VVh+z7kKETDXodLTKXti+0pPX7+JFfwDRgdkWDjphuxh7zH0byJZIDrrMqqB81N+cGZU5sZG8Hta72E1fXct6F1NhWXpV/EGPYhafE5DF/5BTxamAvymsMnmB0uLBvZUwqe6ynKHGV3fJdJHm7bwKsSktWWxuKLfpgxHDgsIoVWlpENbCyOusSXthQ41zJ69Ah7LNaRNLXDKvqOHA+FV10OtlvBYu9nD5/PsHlxnMdz+pyewElNBmRAk7d7fWja8vO/Jmzn7WyaT8aya7xrjihdd3SzhUKwxEMZd3N8uBKMDk/jtWS5wmtpuwdJZYiZbe/y/smhRKw8eyLUReNEFrN7fa431BtHEin7YShJkJtTHGyetvepnZYTuE4m/sYyp+iudrMeoV//K2h97OA+SdN/W/OFFsVkJBmj0rYiuax6mMNmJvEltfkQUN1zG9znbtXM2+xgyQ4DTa41z1WmRKOoExdfXRzv0r6CSIgz3gHefbCYymInbDpwQtsxRBVmlYH7mHp7gdgInCr1whnjWirPSv95WP2X/W+gYcn1MuEsyWrdMKFzbNmqpHWYGWzDii+qpd9HvRoF1jW1gYuwoVMz8/TbloTGXOIXdUahc0s0v/W26sX2rOalJRQE6d0TZv1KrBeyfaPVUrp6juW22vk20Le4q3secclC0/xRRVckxYmi2IBnLU8/K6dHbvcZJ3OBPvZZWGx31RoSQ6htEtEcp/r9rPmcDBmlzLMTYRK3tUl6nRd/OWFuQy5Ymu5uQT6vQLzv3+GP3cxr7dS9h4GPebG2olxq5c6jluzT2bn2c+bpwRvrGhXfaXiS/275JnKll5CrVVhYMm5kQK+SAgbQDxRkfQAv1nCTnK97NrbZnohNBxrr5Fp69ElANIdxRlDKI8mIjxrw+XKwyRrAA+2dgf7E4U0UYMGunxq0whg2mETKObZE7WzDOIQ3Z/BRFDZfN69gsILofVIuBMjy6nypfQXPpkySZCEk77vovhRmD2N8xnz3HFLMB3H94FO3mngmI1bZ/sqt6GPn37/qJDPcIsVBdbtXOns4luOKp8mYrOWbxIsHUqTl8wpchc6MCUkKU46L7nb4rUI6pPwsuXOLtLTQ8uVw9qr8+THfDDU0xO0cC2Z37Y+h31/SPxBofSHrwFMX3jjtMPhz0xWSV7H1M+I2GHGGfLqtIMEcqz7Fsz7wnJ2/TLgJT2JB4a9XcvgJY1DHJpvGUisNnLsU32p2clHi11x89v8MkjgmbzfVGaYxCQE5n0mv2GRjwIHsawhSxkRaY0DGB9pH6EFCjGZ+DF7j8GmjoVSF5VXTbuqNanVzX0hASE8MZ0qZLXzwUCGCwFqre1wGRqdMU5Shu197Ut4NCuKBEaavHzlRUdLbJyQGeisAKDzC40MXqxgAphnUXTDUqSza5Q4azWweMnLstvGzNo3JOPYfdNjrUkHaLwRnKdYq+g4aW824YngbIKC6hm8nxb9q7N08z48cgP3Ur71nx0O6QtSfVpj/8//Rcv3XoH54RZ2XERmWjWRNTBsONQBpr0OuvgyqhqhMxhoROKD887i1bIHnKQ9gkhYBmNoxOjU6hbOr0vcFbiswr14tKQeoFy34e0NR51L41NwHBPSEufK8hqseCspJORV9qtQiGVrWa1KX2qsRZ3Q4qFmaWnFgJrxWOCPG4cMigQdwVNi4q6BmkR3cRL2MF1R+IRNGPC14SKzmwuBqXntvyLZ/HQeOZOFIZ/8P6DTr3aGtZoLX9esKTFEPSUp2X2dSKBFRD0AysdPcigQklb9kbi9BKXdehzitEikyn104QeJ4HZQSONjmITDFXrntXMNIhMD6SZDVBIeP23I3ZRrDBqRNpp58JJZj/5ApdvxhTumvXQvKpZffwHzP3z2E6YTov7gN6okR4QYyKwgGozBM1Dqu9Ylm3scIAu+lCiY9jeUUWa6g11QNRdyHvvsSbYNhIQlOWPO/XnkMQ00kYUwi8+AvwBlbHX5+trTLsVKk50Sa3WCj2ZIMwgv6WGPbmxEsQUlCYyqQUIRrmHJmz0XCtsXzuC8oKtF28tdC0+huLyapkFqs1kx6/P+PBohLL2rFUiXCwlDz1NjpBFVhqKoAbDnl8vlIuheLs78o6cmAj0HWL4uYJNWlybb9a7i+sL/upnlWWbKuWcT9LlOjm1GcWazhmqs/g1C5bT7UfJOeL2HwQsfSqXDz0Ntccgsbjebd5+ufRIbt63jb7e27C6X9i/zRLKRHcq2/v7hwzs/VP4wML+4bvcW5rISFRokrylrCjTvzrIqlv5y+4i2JDo7z4eW17eaVUuTee7bTUbl1TRNGq6GdTRWBnAstoInSZhgJ/LQbN1vilJ2qVjUYyHSMC+tDk3AEC+9w31hGiewV4sEEpmHt5wYvJM4oOXsEVz5ljW7xce1BWQvi0Pnon1NLFPrHjrmAF0ePhTauQharTgvoT1qsxsDKW7xPTf9/2j1UVlp7ZbJc/b+ULmwwcHQVRtDBLm/9Dh3dzmfDn7obk/ZaT5CGd6KONgSr5/y2jKEEcgYAjA2xpoTuZeBRyjw2ephnfmNV54LrbvYTA/K3+f0lfhCBa0O3AxnSi3f/bTnh4H5RyjqfZGGSexGEeZVDAMPTZAdiLSZWmyycW3qT+tVG5LZ+1W5y6bDFAi9qmx6rMLaC+7aDodt42mvYkuicju3JloA4FnGpOsM5qnMnp5hIK2lgLhAQBNsxBrPaWD62OdGyZJYGErE7nDsumjxIrTFyKRybEt7Vuw/OaZdYhGK3eazxizIqQdPmA35qfN+pArFL+GTwWOO1MezPqNSGiifT+FSwCC9nsBskSTrwLydbx7/HpY+uvqnb0crPLG6A4gvPThW4+tQ2Gvm491DYD3tx0OuSPLU/aH543MQd+3z5BlEZffWc1tZfW44jngztKUYwdmL/LZ++ev/Ygz7w8Dk9Oe2drKsyD9p88WjV0yXSqfs1c8PjNYkvTHXpE+HJKbWnVKn8M3CmMqjwazG8RCrj3G0a2YUiEuLAAavsktrDNQFLsHQU1OG5st12RCetTJTGY+wIkxuWUUrLTNUMhK42qOuUbpTz76JnxUOCCywOSbTqJI/FGzdzhgC1KX7JEjvpCAAqE9kptx9Zuud7aG7PeIUuHzw4Q5TPD8Op9wDFnwzc8219DYwMjIj7SuySbprJQ6Vaz4Q3rpxs0s1WTtnNRzd68eHRusYVu5hW3kkDLmDJQNMhtiJHEgF+xRJGB+m3UckzrFsc+wGxC8Qg98b9H4eMD/EHnPn5GF9ptZ1k8DE9yWK5UtyM/AjZxIwY4nCD4GVcBdjKB55jWYWUQrDkKSZhEjSrkOYZp5kFZKbNo33LkqpRQYnqTpAVRtxreCk1lA73+rp81jDlto636Fys8Jinxge0ErKdvklJ/lxZMvqwENkbTxHGvZr7DcBjiLK3uLiFByBHwHT2vXZTkYQ9KwTfbC8kilUH4c+F1LPJ5Loq7e7uBtHuqHEUsUsjcudFi4d532Uu9fKg/g576vFA6jyIcxLZtCu1XJura9cslwmA8fNU73Euivd/aeEb/P4zbR1j+5zPoHb8Uk8LQtqvGNiCLdtty/vD3o/EZifbjuL/d/sXWF3EzkS3J2ThTRZzcLcvQzv5l7AS+z//xNPXVXdkvm2d+QLAR4hsWMnkCl3q7qqGiL2KzaWEGyHzF8OTK7my07PcH2QOzX9Vj0aus3ZAbZhi20vi0vbJP05eDQ1yTo0r/0HatunfXG8SWJPoCtDEtAysoQOyfb6r39bvdR6FKuW/eiZIXJY+lF226jw62DcK10XGJpUU8VATNdbalPq2yu6nS8BefyBpq0e+PRRMVHSOHZpYSI7kGn7Ch3fq6lw7bbXg2m46oP1ENxp2IWYyLgkO1UmP/jxjAmvVW7F0yg5cYlEvIi/Y5jynI2evoPoQG713Ffk2sH7cU2slKyAS1TYALrxZmisbQqchuVzUswOFZ8TRp5f6x0wXtz6i+39+ueXnxF6bwjM52EvsU62YIp55bLaTdSPjy9N7zNc03afpUc6uzA0sWKKmm1CwUSN0GaWUP+7N7MM5dFuTKQTHOBN7YjiSXx6lHVDdv6jaYSeE+m1O5YMYFYULKXUrfftxBS25b1kuvyP/sTXa3/q/jVaWXZlvUExa4/YWCipEcVJzzYpZ8w1yQHZW9PbGtIbt2Mf+nuTMcXRiBpq778qWsiPqvYEDSFgVkCbVVcoACSSoVoXZQrTR2VpCZnRwsZevTRTLRNE7c81Peyx1BaTJFGON8MrO04YnSWIjbJLu7S9ENGjWSLfclrAF5tvaQatvmPT5VZm0ust7MdvPyn03hCYn21545PTP2Z04DHT2tQbRLHAzcmRyX2LuFlIZk5MI21kiDLKoHYb/PMUamCSihOJIRtYpe1SIx0LKwzswt9NGf77mp4uedt8z57pBiozwKbYPrxYoCe17rIWLDC22BpF/PH72Qx1zJY3DV6x7Sx+/TReNLvi26zZBRHLJhK1yyjdTNMw54vQufcOuV97hlEDoBXAkRRvEKUqCE5OsLrWtWIG+spSutgjWC1RL/8CRbXKXVwBXRuXmOmqhMTv5elpUq8/ce6IMybHPnJrOV7klbZvfU1jkGJA30mDRRyQ1e9N8j3xPhH+nMnI1X2PUeTCL7aOzCD/mnJp1zpypDEp7j/t1Rxdv4D5d5/wA6U/KpmIj7JL/xZsjnGz13Byifxhp9vEvH6NaB27+b5pIZd5LIGSw+Es8UHLirQ7EUlgNiN79N3WFlkn2Q9w0O2YJC0ZMOm5xDeTMdiwmzD64EjycoHYfQAkoTTmwz/uD+uXdM2Wx4F+FFjMEWeMN3zMENd61Kpd/rlo3R2kCtn8m/a+96tHh5h9rZ2Kvl16Bne2AJQNsarWbdMWagfWVpVetbDTzMO8zHCOy+r56k/KT4bGR+zqKoAo0MBeNfpxMLuhS13pRPfYzNYAtVJgLnSDsuNESQ/C5ATifvSwNEpryFlHo7wqY6S6QNZGUpmotiy103yWH35i6L0hML990l4hSn80xZS7RGdKz6z0JtbYWhG1ZmSm8tw3w+Oeu/bAl0j2yrnFOPRASvNXWJjNLku5Qu2ovt83VCS77v3VH1CSnwkNqlVMsDSNtTMfZTEJYYNd0yppxilUIrwG0Xqht4l1QLRG2WNA6iMT3Znl42/kcjMjpFCVodCBT2x3WzKbVXar4ev0HJMm3+duQxC8u/NjJcYl3/lRfOU6Z/rK7pnSnEW1LN6xRh+JGUl/1E4I1jS8lQ961WWdPhra9jJNRIZ2rsYGhTh8+g7N8qB+tV/sM7LSSex/wzjEjx2VP7e25w2Bac4v1/70FkkeaQ/8uSHEUikjZ5i+XFxgIbSuPwCEjy14oW3zhGiWWurPkZLHgePZliek5oPgwQ99XcxeAYMXRQGsfC1T6+fOpqNtUGobAlHlWmKf268I3NZPiEsiKZs5ZwcmLQwDoxB3YlRlzJXs7RdgaRM3Vq3NL08W1kxAA7yA5T6AiV7VSMhK4JLu3YVAOLP7f8Hh4N0JTE0HfcSgaT7TzT1J/bIuiMVTMMiSJuD5kVDsT1pHd1nGCfDqYZYelzVlaj2CzKmjEsNQ/vP3yGzWW01ENIIpGoz4S1JH5T//M2US/ALm33/CLx9fApnXqJc2KfGgZ/vNnQkiZ1tV6TxuaeTn+eo+QzD23ja5dkUUiepFGIGFz7bL7/+44PSYF5x8+pvFbB62X9WVYZ4LdigjhE9ptBL6UQg6TXx+bjJyCoj9OXDYBPCKzkwlsWLi8ERNAXIbs4MSc0+cDlUxET5kOcUonLaQF0wUodpyDrm7JgRiPsquurmrpvqK5rmq7txmp/jxNTEBxP3JMS3BhMS71VTCbLWIY51pWfat+PwBPObHLmyN+eg4eu4Cuuin+pAUZNNVdfmx5MsBvcdWISDzqnkxKNiOyufvlwG9T2D+f8/waaxJeOkXqbDpCmUBOgAAIABJREFUubLqZzkqGYGzLJhbTsxQ9LVDyDzIanuJUyh6sgvfMQSBdaVfCjzRqlm004mxQ7dbWitKYdbJD15qzh/lDdsoNWuYU9pLdDV3dCHCMgGHyQd8Y4Ugsju3CZMmNMIREi2YRiVcOK/KKBZI0EZeZHFJzb47Y+sKG6vLSwr9jNVIVU+qX81BDFAeamMTCdl1kUUk5G4L1uItPrscvsvJUfnQpK7iYVYPxfJiOEYcGIAujrt1SXNX6p+S6kQhuZrOY0SmzjW63KwPEv8zICN4+fN7DvbdIPHHGaXt3s/cTa5mVt2fh4sw+ycOl678UY08YUHR6j6FkJyjiXWbdS6bM0csnzVdLv/KtzvOsnBGclsK0wp6Z5lU3JBfwsBK6OPzQQ8LSikSCjJgv5uX0WcgmS8FmXQ9b8mcUJriiMJY/gP0oiC3V9ZQnCJTe8/DVis2dNhXYBFpMSLIkb+aq1hNPBfiFAq6aMOsUcBePgHM3YU9HE3Gkg8ZJ7lcJ/Z2qZMdrItMWpWqvFW48gTZVKVfDS3PXCbLyG6ucabkJ+Qc+ZfrHKY3gKmK/pA8C9FfJdnz/I0drFMYv4D5vz/hx/BKU2UgbKqbvRkt67u4HK8OzFSCvM22kvZ+hlmaTSdV7CB+lPlqap7NRHIMLvDQLGs7gULgC2BxgwRhjwgimfRbjXdJAu3nwaqL0kUAc5oGFshiurJ8ljiEFvE8Q6Ai+seLrr1nfIrcjJWF09lJdrIKKGp+6JSuTfgDJmYRuM6jHL0g3xj2LazR0WJ2kKnEpnbzrEta541dAteaUiTreIplrJjGtx3sTQwy02xaTmOvQi1BBJU8SuwyL8QcaqL6+Cv7z2HrL7MT2fPbr4r5A4DpyDTlj8WUXm+bV8kbetKkte5HCO+YNXLWjKEJusssXxeSubA886jHQQ8nTombBLQt2zzUFovZAk0DIxTtZzMENc4ocvVOkVoCBirU5CVyAy2TSdRmS55uUekbvSXkjZo+blAGHLoLeoLcmq67rPkmz6mmP2p+NMXl6dzs2I1OfTd7WNuTw4GfBAk2ZjAmqHA9JJaB7KqUwqXdGYBTJ7uYnXFZfM3BApzNyVsJO9rt+1o10wimBnX1ukopsNLVUfXvmuNABLlxA9qAxY3OA7Zq4YfUr7/urQOYfM+Zwn5t2Orn936o/MHA/ICV0i+RyQVNwG2LxlSt6s3iRKZyabc3ydaZOxui2QpPyVeaASFyh+cylHkn1Ds5g3Qlzw7ROHvaWhOtglZYQdDajnLMKqCXtRkIRbBWBPEqYXFA/XPY7G70YmrqgcKHCgzxUIEYiJyp2lgRRFisk5vi4VQZ7RD6hNVaPPGSkOTVvsAWxbIcc7xlF4nro3ZzNfYHmYZiT0eMSNbwbF3WyF9dJ1dVFECt1cOYMz1Eg/CIFyWP4h4SSDwjBz3zeJRc1zmUKxYSjbStlMW12pdIDPuiyI7/Kh4Bqi6M7WzPv80U7C9g/iBgfuK2RiRyId/0GlhjVPNNPwGxPyRfT1fn9R8W73J785a3EQCUG6YksJgobGurtOmTVBLFezjoD6mFrCD4Kmtnh+ARJTDhO0NYiGnvsrmaFs47IJKlciWLhfUwLpgymV2wodnNvOjKYyvrSKsODK1X3nGvWwyDBBGZqlg5f/Be91Aa6aWgMow5zXBbMV4cgwwQp+pgr37WBOIGC7umYGbiiLjGvr2xwX0adExezeSAXwcFG6fTNCongOkyCyGS+gtWSvjRzzv3sb9T6L0tMD+/+AoTNrTFpHk82VEbcBOzk2nxYkLeyeDZEM4676PoWQfmodwtgQ8kTlJiLc6OwI67r6XuUe5byUHEwLVC+xfOh57EB0FZx+sZSXFWRnM8kNORQvkALEyykTXfYodDWcEwpYwUgKoFyzbAmc+gUR41FqFAnFthhdXClR8Vq+wovt0VJM0oZndOeXTPOif4LOF+Dj52XUP2WjxSpKjIkwEqsxdrKpjh/RKj4zWzjK9EPfwym6w1q4TDVZZOVV6Gd3N1k7VC9+sfX9419N4WmB98L6MJ85AJnqksoGjdeVdlF5ySAHUo2Jq+kWawDRtKVMys0SNHn19dSWSVj/fxQz+sKLWOBA6KcVL5olXERhyZ0ThwY0mf2y+gc7HemEhn48lxZBMji4kIKV+Qqp7v7+WOq1hjcYcQW9Z+bJvoob2OrZSGMNXiIjmpumDVq10jz+Zea9rJxNUkX8c++sp1WUeUXZp8lz7Nn2U8FE08Wj6ukuZ7EzuEATGhLHPlHJ1xJL6KrXUjpbflMnRecXCHRnm7317+ePfQe2NgPhv/Y0verrRmviSjYjEnsUvd1t8AbNUFPdaennU715K9DFJw4GORmKhEEGUmWWQzCo4YN0WvK1Qoi5WlMMdaYBXNMb3BgxARbYwOeV44wo5qwNwVpcFzIiKfp5hczUNwjmycvtaroyjresVXdPEsSJUFU9ASk0r/zQGf16O9ePmEY4pnUACzuT3lFfaUCVzU2HnNREu7OMnjWryR7cyjcDxW9kh+J2lSAImbKnFUTtNA5MEakr67oQTv+l/2rrU5buMIMshyMwvWIhSuHKjqZEYIA/7/nxhMd8/uIsqnpCwzydGlknSkj7J8ffPqB57YYgvHgolpwuBM5sueDxxGHtD7jYH5p5sbP78piA8bIDaTIBgYzIC4Ncmxl3Wx1v3+AmDeY1Eb9PbOyUNPC6YOoG1cFQUuN5GItsZjWLBdFZe8VjLttInVtbRocHT3WXSyPkra3dipJs2n2LviuO8DpcoyOtiNpKF4RFOltW0j17SRnDWbTWtV+lXNsa6VDoMmcjQLY7QyUYRmNhn+BKtuJFstIz4wVc6tVE5h0hqwvO5jyQcsqQ+LpU+6Onroq6ClbOpKfPGeLA2aLUvXhVB7mtIM9Kx0TGo3539hri6434/j9df3B4XgZwDzyw1r2ZkB5JCanDjc0+6XrROXaVdG5h1edsSmW+TltrXJQy9LJWdEaioo/gjtlkKDFomvAyFBJMDOBvVuw7CIK+eWaf3h7nXZ1LUGdT7XfcbwWMN5Xy1vaRQgvAUUn2VrltpZRpHyOGZ9RteZ4QuG/MlnTJhrEU2gbJ3it7YWj/dKZLIW1kFWHSrGyhqK6TJYAMRkGRtZ8n9IEuBUqeSg4bI/6iHj7USQirOJqmRJ41ooXVg+KWpjsouUOsyeY/3VTCOujJPj47h9BYngAb2fAMyvr2fJdGDOzDARMDPlJqAEoWKV7CZ1FWnuJyy83m0kpbKfLctg2NPJe2D/zM+JV8+tUYcqKQs1x81F+QV4hNvdLcsJ2mfMTfxzH+7UzdLEy0mqKZfNdACpEhM6yBAbBsUJdrk04RIHgBdTyyulkMC+1kLGjDgTs53ABLmdg68kYXHjCwNyD9r2IZZO5qiYK7P/rFtyhIu6hM+jvVzgdZ/ntzGkJF0To9Wwp05F19wbHcOY6N4oelO7Uyp9K4ScjHrX8TJHtJNuJHlQGOU/fv0fd2n+XMA8S+ZtyP1S9JQTV2k3UkykEm/zjgWuXCdIc45DhwL67kHDUz8rGLq2JKf5OCYy5ZpNiRKMkCKSufaDDrpuIsiSJJsbIxcD4rJAWChpSMZ4Vxa/lvhsBOdmMWUjLxNdODjkQSHc2vBk0wzvTLjJclsLh4M5PafabG+0UpLdHgjkjJszheRQUoISyVhzx8pKigN4RKG07DbqjTKOadNHzDS3Plals+2Jw0ISbLpKOz/xeqxZFfTbZZwt+1YnGHY21MruBEscBsEwiBDyxc5uOPbxsd/G188Dej8DmE+vSn1XxBTFmV4v3YYtmw4YXqzA23K5bXE9ct/KkrxeLS+KknZYakm7LTmlfOxKcO83FnFYZZOpekcKnhevFSF8+DKUPDB/yBRYWAL5egWrPRWxYvNCVz2KRPzpWWTqwiIKn0ppxkxcde+c80LliW9tXYw8p4ClLJBT+x0KJvZgZXStyq2VpPljDXNM+U63wOcODPSvU9gY9MvJ3K4oAaiwgk148wHlN3aomjqtB0Kny1jZgNq106PHXfiByBPb1+ONbAc65tnAwrXnAb2fDUyUTBTN+c1HSjoAFbSzux0dmAxkZNh3fi6Ml6IGvkqWqWG0kd09f8B1KEuewzPInWc19vE2ydJZpOSKyTCzGpeqRITKpD9XoSx99IFq5ASz22dtS6gwEbWXRSAgsaDKSVb9Klo2iEuMAunKf5pIk7MjbZCZ/SjoIajVO/cpdf7oShi21/1aKNAMNyzdDFvwSGPTTf2GMQ3+PPMPrNa4e5x/nxiaxfzp/WqhAmbteOsXkEvF7KLo7tkj+lUbLIsxb9hlXDeuYB/Q+zc/+x88w7fezM6ymQXJ/MhnxfSuNu7LJGIh4STTaae1pMNmNpzx4q65neWFPDreWrhPrcMNk40qu0/mPdIdAVcPxWVCj+W/MLoNeJUjjrzptQmmsJIPwnOHRjTSsCAHFze4LVgCqtDGblqEgCoK0NIpNGQiWFBpSEV1p70pdeaPt+vFGvcVGi/ygUqK+GcD3fylND8AcnVS1yx3n62WGd23r/wVSRal9Bk3WK3jQqj0O0pzmRyAHO8L+LmtX7WK5f/NDYIRD5b9Vx8PJP62Qul4+C/jkAlCuzs877gpHzqc6AMPeXhj29wgtyu62gbMsD7gQHo3EFqxr9222KgWtrEL9z2svjmuGLnqRiplSsVrElaWCx0ImrbSt0MTdkHe2c1JyZgWXa9EJtr75NaqZUlFatxCapavlGV6SnLhykqlNGWuWaaJZl7O1ROEdbaYw40yDvxzC9NikSwhYtbjl8SP1DlBgcXUwNYWsiW0JQO7x5qjQHe1u2RxjVpnGxDsNRL/ddp4V4oOTlT++tcfrbQe0PuJwHw6p8y3i/rLAQFc7rnBMwDq8mb/vUW4+yJB5sIylkXNQ2OE3hOk2a1fMPHvbPx05w6B6dW2OrApYOTzJifmDLYCQJwVKOB7HESNucMQ7yNGNwPmSmNcdWkkwc282kZA4m1z1H0hJpPAnETeiSthEq82SRLd6xWRuwbnzYjo2sfCCKmztsZp+sp4lmEkBDPIr1V2qZjeejdRSe9Cw3lL7x6Fw2z7ku4BO7DaG8OenUOJiV3b8e/gEPx6eYE8oPe7APP9l1fJMuc9gAksOi4p85cZJUslqJTwIuCyp/ZkeLqwNwNL1EveKSiLFk0v0ysgxxkUWcg5WDkopVjB1hq9aJadQeFV05PA8LTZY4jOXpaXN3a3/DNzC9Q62YVMIVrkidqSydqj7YFKJtC4GOweFd46yYoDKJ3Ao7VRAmU8QVjMl40/zrvjOa4mFkZ/mxES+yWx+xPoyDhfyADt6m9DfHtjEQy2lTZaisQ8OayPmuolJuOOxn6r9GyY5m/3gN7vXTHfA5jqZw/ElcAByMsmTxlZ86TuHR4G73EEJzS3Ip0kshTy8t29uiRKSe6W4yWTMGDocdbw12rqxhhkxxSNveoEup/z7iLP1b9d3VSZmWJFE3XvcFcQYf0rVDVB1sP0mKxSLlbCy01s0LD+ER4tPH1WSwsn1bJKvjyhWnlWZ8pxOLTuSYXZkzYc+W+QY3a7EDB1If8o8PyL09NzK6QMSo/yuafuTEBiD99quqYFX5p/iEOwcf+KytmWtC1z2jq9faD29Fvl+fHKVNn3B7g+ATCfvr29ApY3JQwh7OtwFyBl8znJwOulE4EszPMQsfiSPz549ZBJKVSY6G+3+1bvICW4qlnUnNmN0ee3I3QkO14UjBSD19qa5bq3cYT1x1OzG8nY4PiDRtw5/LZzyOys2hySTb6CfVcJjVjphcOpcxPMt6SiyIjnQ31DfUpT+L/J9bUGC2dSQGu4rbrBD4wj8d2mJODoh78/QHO2rlH7xhDJGDIHCqt1nnlrc8lDZ7eae9iz1rFTXEyG6XJcKXF1V+RrQN144aS91e/8q/YwtrNWvj49wPWpgPn+ZzrM3m5oZe2gs/mOH6UgAB79qvnw4yi9HxoIX2ateAY32oU8BIcV8762JSh4BK9zdbLcCgKYd9oCUTUiSsAm8ZmKIK0ssI7d3BSTt0evoAqmXUEjQFmQMARe6x6Gab37xGsWDXgqjTFbg8GTw1IgyUPOQg9JAXH3XdVyplgZThDw4okLiQQmfrnRwTONiQMqeOu4DxqKLaFdmpY7bOuuh82Bt/fj7nXoh0nR90Ax2pnBYRtKLr9WjjKuB7g+DTCjmb3duP/JmRUq70fUTC1M+JvwRj8/5pf5OI5l6Ig4kk6F2Qpr0SMc/apuH3HWTkVGeggrUYyezPd4YtnayZLlD/aYrERk8+D5slYzNUy1KKEkjnUkzUEZEu4rs+aqKi9zbvlqpggLNFYrI9O7S6SVdJfYN0b83NkSvDxHj1moPuNUW2ODmuzCl1uHa0aXK0uYZjlQJoPq4QA5bF+Ha0lp5Ha7WtvJbAQnZNg/4B3w8ASZc6z88gDXpwTm0xNd2clnLwepssdOiozRoUsKzSMKoz+S9/kPR1akukwJKBtB7qwH4EnVKTJn+F+Wrs6EDsVrJkPvKgudTNwz75VyIoE1T1AeFt1GHVVLkpqajJuwAFJiuzuG19J3Hjl3cYlsL7N6SrhGPr/Mz1NcGjtpfIjnWOXuaNFwaqG0unl6Ej8B5AUMsjX62N5jRr0rln5AZuOec8ZNoeUS4bwFiHRgDiC0MjS2nfna3pmoh5VJ93dvYL89DiKfFpgK5ZPLLNCnvexuexEaHZqWYw1EIB7p5bAXGkChyCHAuBjY6+aeOSWuE3wtSGnSPNGXMbAPGhb5+7BFRgmm/ZaQzz1rCUN1908stni5ZIxQzdrkAJVu9uWv/cZPbxnTJHyLVZc9+OpEwYrvYDObUiQLlHEFa83qJ3YrTVRCixEGGhi9RLZmmqcYr1F01cbGVgU7hbbJQCLhUnJpG5rxAYr/hM9Qmhj0OFkNhHBZwwgYUVH3L9/wSniA67NWzG+vb28NmLvYBEAoeUBRIQOV7Yph8z1bUzmGI225QwgSjj1oxSCCB6XbSKXLJbaBGDI9KcyHUmxJ4+kXRpYAp6S0brV9c8xwIuyRFFA2Nq/+PSpbY95QAViuYnNpmkPaTPrPZ4nUny3cc2hsEAEGHZh1ODmU4l7JIbFuJldytKWliatMKPzosqxOLk8K1CIud+WZtM/3FlXL5KG2jqy8LmC5sAd20ZvKcBUBKo+/fz/Hytf3/+uEkf8KYD790uIy5101ksIv15jYYMy+HKNObz+BWeKUQsYOm1Wd+pcchLsA8khVd9EzUk08eW9bXRsmup5I7hiI+I2R+1xo+xyDKJ4LkZbcwmYPosWJM3Nl5GFDC2WZoZomQE3WWhor6ascxuvgogYzJ3RVvWKW4R6obrc2C/MezMBetsrqMtdil3tjP/63qJFOnG1mBElGk0GZs0unuptdImTtH+yd4XLbSA6EtarxeEAvGYe+C1PlrJwpr/z+j3hEo4EBnf25VxUnSlWUWJK9a4fgzADdX7/rAxnVzqSH4TfQYdhelZ9eE9/uVlw/bWGeHi8PT4ByTUx+x4MG9E2g5/nsETVzFbZ/9ieeMRVogsGGACjy/Kacu2ZjCr0uovnjm1gkWW5qFzMaLXAHb2/PlmO7VS6LC5EGDgqawTOBSN1WZAVfzks7F8QTVYvH2//POPcDUo+2LMPWkcDeTJNeuB+9K2jH6tRT372GAJ1BYWkrO7ckUd33+Q2xmcVCYKHGK7SH6fe5ziZpODcvTDEKZEkFNU1plzvq1JpW5jYb+Vte3zL8loH743xy9Gqrt2zrYJ49v73VP+6P1Mlbcf20hXn/8nR5fDLwDxuxOrXEcBOL55WLX/UjCrR5Qq66icIX76X2FekhGBRikVzQXake20WhgLZuNpuWfP+OiFst69lmmhh+QpuHochsSh7eGSBYwBZ1MUtXOUO5oLFfSHgnhcQ9isg6MeB7o70S6915JhDPV8HZrmvx+b4PPilOn2fnzxr5eeXnTWK+uGIdmpKh5Wm8UdZyXNY4p2yBVm9DQsdetKsMmouRUmKeHP5WjptduGfMaYPbnN7T1Fz55VY+H6kw779gjoljZmGQgfpL7MjZe/GeDzpDHEx2m16Pze2mbZQydUMu03QpLhzCnXuLYGioxzecMjX7fa9OkEe2zTSx+yO6KOSF4O11Zhwjmz8LcjD1LiEmOXAYu7if38poHXFehpB1JyJsz0zjW4NeGcpxv8pNqiqbePNoJaSLx9Wiags/nTpgLsUKlOMBMI80BqMnU3ga81cOillx4s9AiHSHc/lXjwgDaS08coJkxbewcd3K5/9bmP/q17//9GTR77qzsoLsrRr2p6I5e11SD4GaA0nPGDG2SidSf1wXOhilp8TUBos1eDa8aUMg/HdkMMNWgn6rfUGhegYydYUO1Rh5qMh9ieiBaiSPeaM+Vqw9a5YmhsOvM72T1kqhVUSXyQBSzUGPbSSI+HQQnaNh9mJVzjYg5HH0/UpJoKVIKTktaxiazz+GirRjVyd9nivPkyB9kHBH6CyzXXDk4Ez4eXm+Xvvn17gKbtX00xulx6v3n/fCRPx7b6ZoRycV6yfOnbZGqhWseZc22ZYp69FXpj/Mb+JAD0XzuGpg41My4JT7a5qrYG0d+yQ7zDJr05c/Z5P4bFVbsIJ+0arCWqURM/R5jiwv59FuiGenx2usVNPdpHkla/HcL54nPcQ57SzNNZLj6Jqf7FYmELGAc/n51pMDyCiiYIuY1SvzsXoYrIdg3b+fJnJ4yKNWfr/D+LzfOUFO0l4PQVq38vmAhXl6+XxhYZo5s6A/qxta0U2t8qZaowusjfPmoTxh6+tTsSbPltzQ/rhpq2ioicRPpyZN34aVEro928ZiDWw+RVlMBw+Ggh0/t8UAXdscG1mmi1jW0LIan8t0QN7Y1F0surHr7MxxKhRCs/pD+nk4wEh7bnGGdEarJ+ENB2QSzc2mTbBy7EziSnaTQOO5I6w5f7lG9h97vnHC5D2LdKTx84YjTjWw/dPXowTz9Horn49UmK8vT6bLA2Kkdy1EXSm1pbBv9jpgq1g2e2A8knjchp02TbFu5qLiPq2ihfGYQoZPzFK6naYAxYQlE6VZEZtZG1k7sDeL55rEKjubzxMNYayYC1yaMhSw1bEEVpWenydo7uxleXfnRhNPGBKPNSm0UB4TW4O7PgzUSYM79HQ+4I/z4RoxWtl8GYJ3srqCCdTT2dK1dik2tkX+UU3BeJJukZhHqYTg+vT1Vj4fvTBPr9+M/6OVWUD/aTbIJJ2r2xDFJQj1GHNAYUmoERAYBRGdAHK5Bd4nrZgQIEQoPJq0JvwBZKtSb7p5YZJ3U+og97Rz48xw2VZI3wv7MhZdEpey2cBsWTqr5o5wkQE69gwiOXKwqLgLmkAmRAsd1e1gSBYXB0jsYtPU1OxdPTh373mvaoPV2uyHXpHn5db0PQ2e9dDb0Xr+9nbQwN7K5yMX5un0pxbmw6Ujr6Ib8Rlmr6ZbWtGV0gC05ItUi1+nIgFDRZfO7Qvsw8N5WDgXWivn0RMSPswblk1QoNBrRQpHuWvQ5BFjWVTuZ4J40XAivUA1X8QLU+t33tamDCBrFmsbFQt0OZvubl11eE85QXVteWkEgel4wcb4Z24xi4wwZXNZGaBg9r2s4+kkAcxbNiVT3GOZQ7617Qld1/Lgkatlghu0QQ8Z0YEsz0EB3er4mEy06a+XW4H8OoV5/8W07BNWyzQvqd3EXTwTknZIP7Q4uJk56zpR14bnf+5K64YqsOpamrVnzVbC3401q0G58FHri+XsDDcAnqHe0QtST5UecVmbC10biXrRvMHVu66bSQugAALKXYkEXjhM8FqH3HxQnwtwY+18sP5zijGLD01aEhsYO4d729UNXA4UkQxtJtxnSOlyrI+5MYevK2W203NGcjw4Rqb7CxhS/Xtb/sEtciufD1+Yp9fP6P9MxIwI/2goxV68nK4hLKcHsx5PnXupLPt5c8FuDOTJrW41BijisVKuBGLEEHniWzXsZCsWRTKkubML2C0ZvtnxUxh7sm2MzJsNuzlTOhuc1yCpcjQyB2NE0BiaZ+/KOiuHJTXLgANJcn55oyYrCUaLqHnUSJGBW0502aHy4Yq870nGfLL/MPkcfaiZdrg5zhEW46T7178wFbkVyK9VmKhMFmbpU8Nxs1ULFkJxxpCj1bwlrUHlop2E50ax9CE2S0f6XhDAqwQ4EYkHMRrZ/zijdrkkbG61NKQzVKQzlQcWMWTxJwTe6b54Q98njmUBUsWpkZBZa/uaeiEqjqe/HDAtAz8S1RlrqQybh69+ySMZmbA9MmKzZdo+0DW0uz+rJAuXPafsiO6oyeY/+MVnT6aAXR7/6/+WtwL5xQrz9PJIX6b9avagwVG+KtI8zZDmoVRf3HnCYQrquVpkiHgNGHjAzc9LmKbnOtovFq+FPo45yoRVVAJ7YEgsTEB0JQac0sSzs81PZd33r/tuNpz/UlMQbaJLJ1NmjbGHd1+JEmm0YJawZr5bNWPKYQTLMocQQJJzGS9yTdRjfA9EiJasfUiCrNmja2rFJnyWHGZUVMBe++O3W5DBL1yYr98saEh9JgVN2aKgnt4kM9BtJAIxbFopryakBYRL2VQqJ9grRwU3lAVh9Vu20dBlWwPb3RphqUa4q0tjYRroORQ51d/mo0kcLxHmg/GdphGtkd+uJHWfw+eg9lDStBVb5L2gS8IkD5GPL5ExvqzverPh4ULH1brGodBxyHPHijmwHwNoV9qUIhFieeZ/J0UHpnGx/owsJ1Rl6dfLp5ebLv3XLszTqwoNkJkwkcuuE8xuzkzsqYxkztOkwXDgZyZyZD8rPlsXSDyWGtBXkw7Aq2tXXmr1W/BXDACqiQaAVxfHNA+pHI3SG4Yw2ueF3gdg9m0h3nlliK2C7SYeaJNOLpg95FfSVhUiWTlW8JzWn/ghAAAWKUlEQVTmI0L3iEcVlKHwKYnjOicBu/VveuSFpJ6Pu0CnGIv6T2Us7BJncX7gToIhILgVyC9fmIhNsMrU2AQR39S6j4TaPKKgxZ/TSiM9S5g0tDC+h6LqUuK9FLBUDiQR6dMiZchWQ/06hruhfr0018E2U8OSb8mvghxNQ65brF+LqKxIhh7XOu4MzbF6Y397aMGOk+lRmSrp3FmOeHNpByt1qM2h9cky2GypbK7nYQk2HsPHhPKHX6pKVzLI11uB/DaFebrHMbNrnq1p7KADOihjMTfZLyCVzspVGM++mbRVlrWtshB83oQAaDMmiWHjqmlfMUNcQB1BtO1m45T9kKhH2KWsJlIv6zwTlgdiFzqT22ybYdEZK56AkN1EQPvvddV0SnWPWGWaKZNNHt4YvFlkbWIXsZNMh9Q/hmTWtLMd7se0l03flt2GWGoelaCaxvB6lTbEQlGUMlTodegHBsVogJmflQvS//zrViC/V2Ge7h8vDw8ToAbXjhkdarNw8QzFj7d/fJJpq1epzxklXBmhbhxXu2jtdOkdysUGoLa9XQh+h91rRhZPueM+b4Z9pGkkvZksN9O9L9b8sWPXbInUugN/epiKR1zi6jdHZedzDeqic5GBKQhTR7Dl2mF9lJr2rCANaZ2duZ2V1KYdotdp4lrp3usp0+28aRzTlsjeMs8p1Rl2TzJWz1u/fLnpXT/Aq//+13/93C9PncEJKpRtOs1UMbve+0eYifzTRktcPRtHRous8dwgkclgVxMg5+e7c1oVMN+w8eded6JErBJlAYcIE1+b0KyJAta/byYoAB9PCm4jqu/1aA/HWobgFXeU6vkdBF+NfeigzB27ue+mimnamJV4BwMzd7EysmR9aCkj7TPtW0v85BzJayWJRs/T15fbNf/7GKXfvfr66XLZ18yuLaCqajyx9RGXVXfVD9e2GJs4V8aHlcuSRp7LcE6HtgzLrR3/ZvNrEi2LBWO2lKv4VHqcSegRoERUQ7BxnFnjMlfBq7askKfuEHNSVZHLLtWPuGZyGbQebizrAD9mj6X3WGsADkqyN7d8rhzqdi/FmhQDOEgGTDMnVfIuBtWjKTeW79y9Xi9DaXcrgd+yME/3+5oJDBDkebV1R+ep5UTE8ejRxXdndCtDrpcCZoF6niU+q9LAJYPlhfQtBNXS7cug9mqELdfAI37e8QjWArLStFEmLvsz7iGTQ7ZKtF2NM60hvRauGe1gfdt6TvOUdnSpxFY3HQyT+EcGeWdwaF0FOHjpIWZ3bUWNh1a9FebgeXrc9v0rMriu6qm8lcBvX5in+y+Xju7sw75m2oXn62NnboHgb4SIMH1o/ImNIhYKENV1ZaOgoPqq6Y1O841UHAJBnKymssNbGnghHkWpUMbubZvtf+xdDW8cNw4NchNZ2kBKvMZaASawd+Db/P+f2OF7JMXZFtfcoQ18hTaAm2RadxPoLSnyfYCyJ9ZBQgziUoMUOUqpPi1lkGerOnvtiN1Odosda5qh7MphshoKps1mzcRrqLpKdIMuIZJgsAsUpqoKMQJSIA0c5q/Up15hPLZ3rz+2p8vbpL9OYCqr6xm2edteOXd4QCVNSGzjCJUcw6HtIpn1FzkNeVL1IYZv5VILUXA0uVk4/bEblwYaXMnsqcqQ1Tg95M4iZ8hdoA0liTmyn6E8MRvHyqWnTE+3BXdYoez1lM9Fr6nq/ROcPHLUemUXQtL0T7vYQPIxhZmnKLgdtPMCU/SEL2WoQqKCrmtw7wpJpXilv00ITGD61PfDkwIzbyd4tOuAItvoJw3GrDrrndBEagR8GXFApfg0Q3WVyszT08jTLkNUd0fG2hHOld2U0DpcVcd1UZyQfK6CaI/Yy+bckem5k8htr2QeESjIxJXz3+EbpFJMhWC06zikDaSonT5+DeS5GPFcRref3Ejsfj15Z6ckvP3b/tqoc54QmMA8Pr38izXzhCEQxrEgcjrnfBs7k1zauv+bg5mn80QwD5Q94EzPCoMeHXcI8xUh7ULMXT59OrHiSuX6uGDFUVTm1NF40hgINtDljFVJJ38nawJ8ITH1BDd114WARisCsLJ1Zisg+qTK8pSMvGySx+Uu6MRDCjzbixU1jXyhbC2qM4LcgD2sJNNQ1Byh2VILTSxYdl+PPj0TAhOYgQv9+LLtZWxHpQyBRuJ7Afenmbd6MWdLZrejFomJMxOk0yIeIIu5sHMq1NHy6jzGojosrIOcV+kuRVS5VEsSyhgP9aoer8aHt6Kck3fORctlkGu5BYqIvJi0SdO+alHqOrRy5/Mae0/fnwgByatosBTgnlX/CNBt+fTYbbJ+v16yvHt0E7xS3m5Pj6/zkE9g/qenD9/EbRYbwUUYBnmz5jUvJdJR7mwsE6cXawuRJ+x768jZyyb4suHL6HpR07pKmwRI8FTHBAocAkyTuuW0LzkAqHKEc1rC9VA10GruBX4Qp797zUWcazHzLnaydTDHh5HHUZri3zuNHYkNhtUYZBlkgRCr3syDl1n2jQKc7oYgX17nIZ/A/NOnD9/3ovny+SRW/oLMRRPASpSbJPPaagZMKXhMYTQLrvFCAcQC5LgZgEkB8VBpSSDWkkKKP1M0UhdESIsjdDIJZR3ZAerrmq0CBykJW91zse1Ksq44CTD3P0xvJUepZS32rcflMXp73L/Msc5WvS4LsaXS4SrJvy38XQlv6cru9cft6/PrPOQTmD/59OHytCPzY6Y/12nTy2Y8cCm4xXJ4wXBLn9b4BKgVYxtoa2hRP1WdPTigoQeXyp6bqFcEh2caYPZek/vApuSW5dFO2dzsdFuis6FayG+vcBdS1SeEaak53HKYwB5S+JQ/l2zMSjJ+FJLmYfZ6yCu8fy1ZhzxVJq+39bbfKA+YnId8AvPPn77JTfP0Se6ZKqDmWHYUzRKBCVInamRtBw42FoyLu7KDeGC+PsQmHaEbYINQW6YG7d9oR9QOKwo6e/XS63w21quFwcsfKaN2k6JsfWpHlFGXvWc9fxSefaI37bm2GvJs7+piCpE9JR+Uy6UMf+Xkju56c0zlMNlpST+zkt4r2w9xSP96MYrdPOQTmP/lU7lpnpDRty3qahBVD76LQwYfMYWWtuRg3dVbppkPrT/Uu53HvY6ovA63dlwEG0rsDpyWd+SAPYSrp4bH1mSWyPoTXR4udJ8rOUSIVA2olgZZsF11gdjLx7OA3i+UKeBvEOXGfTUPyk7YR2oltR0vMNjt74V21ipWxc+viARdWSbnIZ/A/N+fPkKdCcdZoYcvy918Ecnv8J7Zj+O16TzWnEMKovdW4wxYh9sGg1wDNt2JBzt/um/tlXUFvQdDG3q5ww3AgbnYVBf26thl1BQmNJqNgHkRhf8cGEtBPuOSqWLNIdUqGmmAN28pQQZGtQWL7gJmqlCiNxkWkt3x6K8VWSKvv5PbzUM+gfmzT9/s6V40RVcomMwvSE9Q8+aSU1R57WDjOLbHWQdklJ0XQkuDDQfYr6JEM+1BwH6RHWNOK4MQcB8EW2fZb7pM3yq0yAlBs3lJuvK3u1/TFD7eMDH6wcJEZj4Iv61ModUCXzT5LqfDDbOYtUAqd27XyUfM6Axq0yu27obaiKdksP02DdL/ycD81fLPZySaiJoK2nsn7QxGniZ56QJzePvw6qfUc0S97xh30Zi0fLx7VieV164G7YLofl7XMwoms4OShonZqp72knkDS6GMhtPZOknVK1yPIjSyc4jE9QasaZclVL3id+jBKvR8P/k/I6ooGXee1ALdJG2ozOGTSpciZNhtjx8eZsb6FEr/hU8f3r5q2BB2JotZulpsJnmuEomAeFqn/qSjdBMKYOi5imK1cutPOCZ1q5T/Hj7QgiRETjNPWjK+1Fq6qLVQBjSW08lDCZSFZ7dGJC3ACpMBuKi6phcr2Wxsc+Sge9ea3HQHPyo7gO7oCzQeriO7JYkiv4x/kpXEgS9HKeU8xhOYfw0R6CKZQ9n88zZ11NJCYZGYxW6Y9QjMEp1fMyLitXe1YDASAJIe566zWWHvrStz+rCML8j5cn/mgqxoc1lWmo9uXqrxahl+ORalCYuSyvkUIxNU7REmsJGhT2RWc6fTfOswAmvasioUpWG4XtHUwzILobHzGE9g/k18g72fPSWh52WNUbgnmSEcyONtUvRoB5RSVY1HstpiI07h0hYca5DTGJlJ8dO5thV1WH672RCo5gPxJqUBKCP6gDxUNUtBKfh58xFtgUiyGK9VjajHPCqsamFdAjTz+sv1iKtDOHK9Db4rpj4slNvl+zzGE5h/75vZ+1mkDQnjjcyz7UhtUUgmixovR9Je6G974+KjqJElZzWc+xCSVb4IQM8VQxPpCXdoksOWqhHlclVDSRJuzAKhaj6mm6wDXFntgiyn2q+hKaxIghKLMIffu3w08IvxlryNb0oTltetXa8kDogN80FJOQZq8xhPYP7FTx++PyLQRK6IyLQN18w2uLPcWNbgUOD3TEsM6WwqY33KLKSSTt6EBb/jct2BeJZf/hDTm/XKGtrNz50qj6TOdvRnt9vrYI+n4BVgqSmNLtNE5miLhUHbSGVVMlLtJO9aKWz13lRSP42u+vFxY/P6daqbJzB/6Zu5PNI0D0WTPgbxqGIH0ezy1Y1H4Dbq7ADruJuVMEVSPresXASFROL+D7lH6rZBLpwshw4lqV/nnIzm6lmVI1sgkHhUbWZsJai8UphkOU9QSb6Nu5/mMRBBGnIb28kb3p30ri9k80x18wTm3/+/e/MeTH7r8jklUZ0ktLK0k6Wj5QLqWx8XrVFULA6HmxMj+iSqSGxEm3C7rCyWMo+99mtZVxD6lrKf+1V+1GqmdsWdcmpnSt757PHrllKUIskOXSkq6xlSb1jxjFz6wfNtZhlJmqDdLS1FKXSvzTCZnp6/x7/QeVAnMH/xm/n+ckuwaQcplpuBPzAMj4IKWXLI7NSCVpOFMVdtRcVEq3Joglw5VM8VNL96vfZ/Syq8nH+pmaLskrJJMrgOek1HYh6wOofN7o8VYso876fUZNCugZLfGcIwCHWJ6do3lZ7uP/b3xLukTHienr/9Qd8/D+oE5q9+M5enGyyvtk136CnqSJiO5eXKOkQKOrvNOZMaVXJOm0mb5fRnJYEIS8eG0nnFirNed2TunwI7wjqVW+QPFDWuTDXEWNpoJ2UNklW6O+Pxljw6aksz6uDq6sKj86vLSq2zbUoX+IHG9enb69s8qPPp+zGBubzslSJtn9WcvZXD3hLALGGHydATJY8P2oGs/pIy+Bgo5HJFWZLIlAjDICUYnGsTYCovRw3wGJOZA11OSbfW64ZIEk/zKnc+1T7fUex1w6bpQ67d+lZB5LY9Pn+f45359P0BEw0tOT8bmS7tLi0zUEodjTpTaUkz1jHxaYzuUlU1gkp4c9OSyZHnFb6zWUlBuSh7oDN+NmWtzZj4jgT0aEan1h9LGT47QTrZXJHVQHVNt/XWIgdd29aXLzR5neOd+fR9AnOH5pNAk4XJWr52lAeXeye4ZAle6vXBWUvtzItW/LqD445CcPwEl/16FYsRnaqWRE9KWI1oqLTJO2XlUSDu6IEM2NrvPD4AQNNj2YXStqmjiiJca79JfvHhzsxunk/fKTB5s3p9vO3YlAtbKJnSPC733lNxtqKGkY0sAzJxzHy5E0bwekVkh7S0oMkKya2TaUs2OgFue802vNkTt5HO0a1DNuos3qqBuYo+r4tXK4/oXVd48WxPlztJyATmfPqOK6YEnTx8exFsHmrRMG73DjKFHcnRMK7Y+qQGyXJVho3jRXYoqwBz/xRIwGnT1D048yVVjdD0vZMlAPVLNfur8ekQ+tNRFYNiUvw+tExuL5eYTjCP4nz6k0/fw3t7fdzoiUc/gcDRK55WS/mTXjDlAqgE1mbJJ/xSFjaqxFeFvQimoLU1JtNKwkGH0qTaxrSTh1up7uAKteMbaqBuU2ePPqitf/hSCoMsZdqmW8mZoj6f/vzTD+/urX5Y0g1bRc0sibIwo/TojIUXQlJ+KvgI8pjp7fWcqCsplunxUT1pV4xly/kzPKGhqyyVv61x0tRdSV1tXSthSluFeIx2Iuxmb9bTAoh7g3x1PMoC5OUxUFznYZtP/7+Bub+epacVobTcOXNLB5PL6vOfTrKQoaMYL1V/XTkEspEtwUQrIWwpdRfayZVr0IalQeXDqiOwG27t5lPXTnxzFbOG+siN5JfL6yS4zqf/PGCCd7AJEIpPQUe2XPMhEEpZbmF3knR2Y9lfjUIrtc37rb27600aCgAwvGQG9WIFQtiWFIGlOf3/P9GezxZ106kXZDwkarZneHHSd6cfpyXPofnYNN2Bkl7p6DHdpNldHCfON1/Vha5xuc50FBzy2tZ5gkxF9nHZzmFoZ1ttbPTjhZkeqrcJY1hNE1JZJjO31y1uP86r4x7yHSiLZzfP68a78hzL/P60ECG9Nd9+XGa+/oeDxPRkgbqsPH0Oc75dJX8kc5skx3xeZ1OKHF7/TWNjox8izPS90/YlxDrb7SJ9Vy5XlDM88fWpnix9qg+d+9ouKa7m2427uoa81n0+56eXL/use7GL904VpuUBeYY899280/qyW1tHR28uzPzt0/0xTBW0W6P65aeAdfMHhbWTpuUa6Ne2D3o5FV58HXN/WJUZswU6HzXGr+NJnXKTZAoyzZHb51eeee7+ZfrBwxxmOqzj6aBQP5pveY2irZErM2Naob6qOZYf7luViyv/XV0m19c1tPlMTroA2YX0qQPx10HtMc2Q+8Npsbdtc6K3OWMudPh2/yU+f6Dv25Ff+iu0Tvu+u9gJzfNq/vZTizNd2UhnYFeresWxa/9t/Hds82V83EF3PG4f9/kYcjqIfP0w8m6wOdHbCzOH8biZ5s54L+W0exm6Nt3lc6ehtHruznVabCdO+3qAeLEIIM6Q5Sl05Ufrzuq0t7p9PNzZYKgw/1RP+23Kc8x3O8faconneEAY9z9DOX6MqYV+/jtOozHEdIpnebEj53jcrNfrQzufM9hgqDDft7B2yib2+RLCHFYp9Y3XmP6Mi7eEeP/VbtpZTStZh4t9VRsMFeb7df7GMAyn0/N+v95udrt4YTO01xjGywpfdrtN7PB5+Gl1jk2CCvP/hPmra/m/e93lhQBDe+/Q9lptElSY/6hvXTH8/PePmLMrS68hTGNC6RWqQaBUmJRSYVIqTEqpMCkVJqVUmJQK0yBQKkxKqTApFSalVJiUCpNSKkxKqTGh9JpUmJQKk1IqTEqFSSkVJqXCpJQKk1JhGgRKhUkpFSalwqSUCpNSYVJKhUnpTYdpTCi9QjUIlAqTUipMSoVJKRUmpcKklAqTUmEaBEqFSSkVJqXCpJQKk1JhUkqFSSk1JpRekwqTUmFSSoVJqTAppcKkVJiUUmFSKkyDQKkwKaXCpFSYlFJhUipMSqkwKb3pMI0JpVeoBoFSYVJKhUmpMCmlwqRUmJRSYVIqTINAqTAppcKkVJiUUmFSKkxKqTAppcaE0mtSYVIqTEqpMCkVJqVUmJQKk1IqTEqFaRAoFSalVJiUCpNSKkxKhUkpFSalt6zfAWW7m7mx0otkAAAAAElFTkSuQmCC;" vertex="1" parent="7">
                    <mxGeometry x="410" y="142.17" width="330.66" height="215.65" as="geometry"/>
                </mxCell>
                <mxCell id="16" value="White bread" style="rounded=0;whiteSpace=wrap;html=1;fontSize=19;" vertex="1" parent="7">
                    <mxGeometry x="180" y="190" width="130" height="40" as="geometry"/>
                </mxCell>
                <mxCell id="18" value="Wholegrain" style="rounded=0;whiteSpace=wrap;html=1;fontSize=19;" vertex="1" parent="7">
                    <mxGeometry x="180" y="230" width="130" height="40" as="geometry"/>
                </mxCell>
                <mxCell id="19" value="Multigrain" style="rounded=0;whiteSpace=wrap;html=1;fontSize=19;" vertex="1" parent="7">
                    <mxGeometry x="180" y="270" width="130" height="40" as="geometry"/>
                </mxCell>
                <mxCell id="20" value="Rye" style="rounded=0;whiteSpace=wrap;html=1;fontSize=19;" vertex="1" parent="7">
                    <mxGeometry x="180" y="310" width="130" height="40" as="geometry"/>
                </mxCell>
            </root>
        </mxGraphModel>
    </diagram>
</mxfile>